G04 #@! TF.GenerationSoftware,KiCad,Pcbnew,5.1.4-e60b266~84~ubuntu18.04.1*
G04 #@! TF.CreationDate,2019-09-15T19:51:56+01:00*
G04 #@! TF.ProjectId,minitiouner-rt5047,6d696e69-7469-46f7-956e-65722d727435,rev?*
G04 #@! TF.SameCoordinates,Original*
G04 #@! TF.FileFunction,Legend,Top*
G04 #@! TF.FilePolarity,Positive*
%FSLAX46Y46*%
G04 Gerber Fmt 4.6, Leading zero omitted, Abs format (unit mm)*
G04 Created by KiCad (PCBNEW 5.1.4-e60b266~84~ubuntu18.04.1) date 2019-09-15 19:51:56*
%MOMM*%
%LPD*%
G04 APERTURE LIST*
%ADD10C,0.250000*%
%ADD11C,0.120000*%
%ADD12C,0.400000*%
%ADD13C,0.200000*%
%ADD14C,0.150000*%
G04 APERTURE END LIST*
D10*
X114216119Y-91338309D02*
X114216119Y-89738309D01*
X114978023Y-90271642D02*
X114978023Y-91338309D01*
X114978023Y-90424023D02*
X115054214Y-90347833D01*
X115206595Y-90271642D01*
X115435166Y-90271642D01*
X115587547Y-90347833D01*
X115663738Y-90500214D01*
X115663738Y-91338309D01*
X116425642Y-90271642D02*
X116425642Y-91871642D01*
X116425642Y-90347833D02*
X116578023Y-90271642D01*
X116882785Y-90271642D01*
X117035166Y-90347833D01*
X117111357Y-90424023D01*
X117187547Y-90576404D01*
X117187547Y-91033547D01*
X117111357Y-91185928D01*
X117035166Y-91262119D01*
X116882785Y-91338309D01*
X116578023Y-91338309D01*
X116425642Y-91262119D01*
X118558976Y-90271642D02*
X118558976Y-91338309D01*
X117873261Y-90271642D02*
X117873261Y-91109738D01*
X117949452Y-91262119D01*
X118101833Y-91338309D01*
X118330404Y-91338309D01*
X118482785Y-91262119D01*
X118558976Y-91185928D01*
X119092309Y-90271642D02*
X119701833Y-90271642D01*
X119320880Y-89738309D02*
X119320880Y-91109738D01*
X119397071Y-91262119D01*
X119549452Y-91338309D01*
X119701833Y-91338309D01*
X120235166Y-91185928D02*
X120311357Y-91262119D01*
X120235166Y-91338309D01*
X120158976Y-91262119D01*
X120235166Y-91185928D01*
X120235166Y-91338309D01*
X120235166Y-90347833D02*
X120311357Y-90424023D01*
X120235166Y-90500214D01*
X120158976Y-90424023D01*
X120235166Y-90347833D01*
X120235166Y-90500214D01*
X122444690Y-90424023D02*
X122292309Y-90347833D01*
X122216119Y-90271642D01*
X122139928Y-90119261D01*
X122139928Y-90043071D01*
X122216119Y-89890690D01*
X122292309Y-89814500D01*
X122444690Y-89738309D01*
X122749452Y-89738309D01*
X122901833Y-89814500D01*
X122978023Y-89890690D01*
X123054214Y-90043071D01*
X123054214Y-90119261D01*
X122978023Y-90271642D01*
X122901833Y-90347833D01*
X122749452Y-90424023D01*
X122444690Y-90424023D01*
X122292309Y-90500214D01*
X122216119Y-90576404D01*
X122139928Y-90728785D01*
X122139928Y-91033547D01*
X122216119Y-91185928D01*
X122292309Y-91262119D01*
X122444690Y-91338309D01*
X122749452Y-91338309D01*
X122901833Y-91262119D01*
X122978023Y-91185928D01*
X123054214Y-91033547D01*
X123054214Y-90728785D01*
X122978023Y-90576404D01*
X122901833Y-90500214D01*
X122749452Y-90424023D01*
X123511357Y-89738309D02*
X124044690Y-91338309D01*
X124578023Y-89738309D01*
X126330404Y-90728785D02*
X127549452Y-90728785D01*
X130368499Y-91338309D02*
X129454214Y-91338309D01*
X129911357Y-91338309D02*
X129911357Y-89738309D01*
X129758976Y-89966880D01*
X129606595Y-90119261D01*
X129454214Y-90195452D01*
X131739928Y-89738309D02*
X131435166Y-89738309D01*
X131282785Y-89814500D01*
X131206595Y-89890690D01*
X131054214Y-90119261D01*
X130978023Y-90424023D01*
X130978023Y-91033547D01*
X131054214Y-91185928D01*
X131130404Y-91262119D01*
X131282785Y-91338309D01*
X131587547Y-91338309D01*
X131739928Y-91262119D01*
X131816119Y-91185928D01*
X131892309Y-91033547D01*
X131892309Y-90652595D01*
X131816119Y-90500214D01*
X131739928Y-90424023D01*
X131587547Y-90347833D01*
X131282785Y-90347833D01*
X131130404Y-90424023D01*
X131054214Y-90500214D01*
X130978023Y-90652595D01*
X132349452Y-89738309D02*
X132882785Y-91338309D01*
X133416119Y-89738309D01*
X106838333Y-92786309D02*
X107143095Y-92786309D01*
X107295476Y-92862500D01*
X107447857Y-93014880D01*
X107524047Y-93319642D01*
X107524047Y-93852976D01*
X107447857Y-94157738D01*
X107295476Y-94310119D01*
X107143095Y-94386309D01*
X106838333Y-94386309D01*
X106685952Y-94310119D01*
X106533571Y-94157738D01*
X106457380Y-93852976D01*
X106457380Y-93319642D01*
X106533571Y-93014880D01*
X106685952Y-92862500D01*
X106838333Y-92786309D01*
X108895476Y-93319642D02*
X108895476Y-94386309D01*
X108209761Y-93319642D02*
X108209761Y-94157738D01*
X108285952Y-94310119D01*
X108438333Y-94386309D01*
X108666904Y-94386309D01*
X108819285Y-94310119D01*
X108895476Y-94233928D01*
X109428809Y-93319642D02*
X110038333Y-93319642D01*
X109657380Y-92786309D02*
X109657380Y-94157738D01*
X109733571Y-94310119D01*
X109885952Y-94386309D01*
X110038333Y-94386309D01*
X110571666Y-93319642D02*
X110571666Y-94919642D01*
X110571666Y-93395833D02*
X110724047Y-93319642D01*
X111028809Y-93319642D01*
X111181190Y-93395833D01*
X111257380Y-93472023D01*
X111333571Y-93624404D01*
X111333571Y-94081547D01*
X111257380Y-94233928D01*
X111181190Y-94310119D01*
X111028809Y-94386309D01*
X110724047Y-94386309D01*
X110571666Y-94310119D01*
X112705000Y-93319642D02*
X112705000Y-94386309D01*
X112019285Y-93319642D02*
X112019285Y-94157738D01*
X112095476Y-94310119D01*
X112247857Y-94386309D01*
X112476428Y-94386309D01*
X112628809Y-94310119D01*
X112705000Y-94233928D01*
X113238333Y-93319642D02*
X113847857Y-93319642D01*
X113466904Y-92786309D02*
X113466904Y-94157738D01*
X113543095Y-94310119D01*
X113695476Y-94386309D01*
X113847857Y-94386309D01*
X114381190Y-94233928D02*
X114457380Y-94310119D01*
X114381190Y-94386309D01*
X114305000Y-94310119D01*
X114381190Y-94233928D01*
X114381190Y-94386309D01*
X114381190Y-93395833D02*
X114457380Y-93472023D01*
X114381190Y-93548214D01*
X114305000Y-93472023D01*
X114381190Y-93395833D01*
X114381190Y-93548214D01*
X117200238Y-94386309D02*
X116285952Y-94386309D01*
X116743095Y-94386309D02*
X116743095Y-92786309D01*
X116590714Y-93014880D01*
X116438333Y-93167261D01*
X116285952Y-93243452D01*
X117733571Y-92786309D02*
X118724047Y-92786309D01*
X118190714Y-93395833D01*
X118419285Y-93395833D01*
X118571666Y-93472023D01*
X118647857Y-93548214D01*
X118724047Y-93700595D01*
X118724047Y-94081547D01*
X118647857Y-94233928D01*
X118571666Y-94310119D01*
X118419285Y-94386309D01*
X117962142Y-94386309D01*
X117809761Y-94310119D01*
X117733571Y-94233928D01*
X119409761Y-94233928D02*
X119485952Y-94310119D01*
X119409761Y-94386309D01*
X119333571Y-94310119D01*
X119409761Y-94233928D01*
X119409761Y-94386309D01*
X120019285Y-92786309D02*
X121009761Y-92786309D01*
X120476428Y-93395833D01*
X120705000Y-93395833D01*
X120857380Y-93472023D01*
X120933571Y-93548214D01*
X121009761Y-93700595D01*
X121009761Y-94081547D01*
X120933571Y-94233928D01*
X120857380Y-94310119D01*
X120705000Y-94386309D01*
X120247857Y-94386309D01*
X120095476Y-94310119D01*
X120019285Y-94233928D01*
X121466904Y-92786309D02*
X122000238Y-94386309D01*
X122533571Y-92786309D01*
X125428809Y-92710119D02*
X124057380Y-94767261D01*
X128019285Y-94386309D02*
X127105000Y-94386309D01*
X127562142Y-94386309D02*
X127562142Y-92786309D01*
X127409761Y-93014880D01*
X127257380Y-93167261D01*
X127105000Y-93243452D01*
X128933571Y-93472023D02*
X128781190Y-93395833D01*
X128705000Y-93319642D01*
X128628809Y-93167261D01*
X128628809Y-93091071D01*
X128705000Y-92938690D01*
X128781190Y-92862500D01*
X128933571Y-92786309D01*
X129238333Y-92786309D01*
X129390714Y-92862500D01*
X129466904Y-92938690D01*
X129543095Y-93091071D01*
X129543095Y-93167261D01*
X129466904Y-93319642D01*
X129390714Y-93395833D01*
X129238333Y-93472023D01*
X128933571Y-93472023D01*
X128781190Y-93548214D01*
X128705000Y-93624404D01*
X128628809Y-93776785D01*
X128628809Y-94081547D01*
X128705000Y-94233928D01*
X128781190Y-94310119D01*
X128933571Y-94386309D01*
X129238333Y-94386309D01*
X129390714Y-94310119D01*
X129466904Y-94233928D01*
X129543095Y-94081547D01*
X129543095Y-93776785D01*
X129466904Y-93624404D01*
X129390714Y-93548214D01*
X129238333Y-93472023D01*
X130228809Y-94233928D02*
X130305000Y-94310119D01*
X130228809Y-94386309D01*
X130152619Y-94310119D01*
X130228809Y-94233928D01*
X130228809Y-94386309D01*
X130838333Y-92786309D02*
X131828809Y-92786309D01*
X131295476Y-93395833D01*
X131524047Y-93395833D01*
X131676428Y-93472023D01*
X131752619Y-93548214D01*
X131828809Y-93700595D01*
X131828809Y-94081547D01*
X131752619Y-94233928D01*
X131676428Y-94310119D01*
X131524047Y-94386309D01*
X131066904Y-94386309D01*
X130914523Y-94310119D01*
X130838333Y-94233928D01*
X132285952Y-92786309D02*
X132819285Y-94386309D01*
X133352619Y-92786309D01*
D11*
X72390000Y-119380000D02*
X87630000Y-121920000D01*
X87630000Y-119380000D02*
X72390000Y-121920000D01*
X43053000Y-74930000D02*
X40005000Y-121920000D01*
X43053000Y-121920000D02*
X40005000Y-74930000D01*
X136906000Y-74930000D02*
X139954000Y-121920000D01*
X136969500Y-74930000D02*
X136906000Y-74930000D01*
X136906000Y-121920000D02*
X139954000Y-74930000D01*
D10*
X118029660Y-87110785D02*
X118254660Y-85310785D01*
X118940375Y-85310785D01*
X119101089Y-85396500D01*
X119176089Y-85482214D01*
X119240375Y-85653642D01*
X119208232Y-85910785D01*
X119101089Y-86082214D01*
X119004660Y-86167928D01*
X118822517Y-86253642D01*
X118136803Y-86253642D01*
X119829660Y-87110785D02*
X120054660Y-85310785D01*
X120601089Y-87110785D02*
X120718946Y-86167928D01*
X120654660Y-85996500D01*
X120493946Y-85910785D01*
X120236803Y-85910785D01*
X120054660Y-85996500D01*
X119958232Y-86082214D01*
X121458232Y-87110785D02*
X121608232Y-85910785D01*
X121683232Y-85310785D02*
X121586803Y-85396500D01*
X121661803Y-85482214D01*
X121758232Y-85396500D01*
X121683232Y-85310785D01*
X121661803Y-85482214D01*
X122572517Y-87110785D02*
X122411803Y-87025071D01*
X122347517Y-86853642D01*
X122540375Y-85310785D01*
X124629660Y-87110785D02*
X124854660Y-85310785D01*
X125293946Y-86596500D01*
X126054660Y-85310785D01*
X125829660Y-87110785D01*
X127254660Y-85310785D02*
X127426089Y-85310785D01*
X127586803Y-85396500D01*
X127661803Y-85482214D01*
X127726089Y-85653642D01*
X127768946Y-85996500D01*
X127715375Y-86425071D01*
X127586803Y-86767928D01*
X127479660Y-86939357D01*
X127383232Y-87025071D01*
X127201089Y-87110785D01*
X127029660Y-87110785D01*
X126868946Y-87025071D01*
X126793946Y-86939357D01*
X126729660Y-86767928D01*
X126686803Y-86425071D01*
X126740375Y-85996500D01*
X126868946Y-85653642D01*
X126976089Y-85482214D01*
X127072517Y-85396500D01*
X127254660Y-85310785D01*
X128401089Y-87110785D02*
X128626089Y-85310785D01*
X129054660Y-85310785D01*
X129301089Y-85396500D01*
X129451089Y-85567928D01*
X129515375Y-85739357D01*
X129558232Y-86082214D01*
X129526089Y-86339357D01*
X129397517Y-86682214D01*
X129290375Y-86853642D01*
X129097517Y-87025071D01*
X128829660Y-87110785D01*
X128401089Y-87110785D01*
X130201089Y-87110785D02*
X130426089Y-85310785D01*
X131229660Y-87110785D01*
X131454660Y-85310785D01*
X132536803Y-86253642D02*
X132429660Y-87110785D01*
X132054660Y-85310785D02*
X132536803Y-86253642D01*
X133254660Y-85310785D01*
D12*
X76970976Y-79807452D02*
X76970976Y-77307452D01*
X77804309Y-79093166D01*
X78637642Y-77307452D01*
X78637642Y-79807452D01*
X79828119Y-79807452D02*
X79828119Y-78140785D01*
X79828119Y-77307452D02*
X79709071Y-77426500D01*
X79828119Y-77545547D01*
X79947166Y-77426500D01*
X79828119Y-77307452D01*
X79828119Y-77545547D01*
X81018595Y-78140785D02*
X81018595Y-79807452D01*
X81018595Y-78378880D02*
X81137642Y-78259833D01*
X81375738Y-78140785D01*
X81732880Y-78140785D01*
X81970976Y-78259833D01*
X82090023Y-78497928D01*
X82090023Y-79807452D01*
X83280499Y-79807452D02*
X83280499Y-78140785D01*
X83280499Y-77307452D02*
X83161452Y-77426500D01*
X83280499Y-77545547D01*
X83399547Y-77426500D01*
X83280499Y-77307452D01*
X83280499Y-77545547D01*
X84113833Y-78140785D02*
X85066214Y-78140785D01*
X84470976Y-77307452D02*
X84470976Y-79450309D01*
X84590023Y-79688404D01*
X84828119Y-79807452D01*
X85066214Y-79807452D01*
X85899547Y-79807452D02*
X85899547Y-78140785D01*
X85899547Y-77307452D02*
X85780499Y-77426500D01*
X85899547Y-77545547D01*
X86018595Y-77426500D01*
X85899547Y-77307452D01*
X85899547Y-77545547D01*
X87447166Y-79807452D02*
X87209071Y-79688404D01*
X87090023Y-79569357D01*
X86970976Y-79331261D01*
X86970976Y-78616976D01*
X87090023Y-78378880D01*
X87209071Y-78259833D01*
X87447166Y-78140785D01*
X87804309Y-78140785D01*
X88042404Y-78259833D01*
X88161452Y-78378880D01*
X88280499Y-78616976D01*
X88280499Y-79331261D01*
X88161452Y-79569357D01*
X88042404Y-79688404D01*
X87804309Y-79807452D01*
X87447166Y-79807452D01*
X90423357Y-78140785D02*
X90423357Y-79807452D01*
X89351928Y-78140785D02*
X89351928Y-79450309D01*
X89470976Y-79688404D01*
X89709071Y-79807452D01*
X90066214Y-79807452D01*
X90304309Y-79688404D01*
X90423357Y-79569357D01*
X91613833Y-78140785D02*
X91613833Y-79807452D01*
X91613833Y-78378880D02*
X91732880Y-78259833D01*
X91970976Y-78140785D01*
X92328119Y-78140785D01*
X92566214Y-78259833D01*
X92685261Y-78497928D01*
X92685261Y-79807452D01*
X94828119Y-79688404D02*
X94590023Y-79807452D01*
X94113833Y-79807452D01*
X93875738Y-79688404D01*
X93756690Y-79450309D01*
X93756690Y-78497928D01*
X93875738Y-78259833D01*
X94113833Y-78140785D01*
X94590023Y-78140785D01*
X94828119Y-78259833D01*
X94947166Y-78497928D01*
X94947166Y-78736023D01*
X93756690Y-78974119D01*
X96018595Y-79807452D02*
X96018595Y-78140785D01*
X96018595Y-78616976D02*
X96137642Y-78378880D01*
X96256690Y-78259833D01*
X96494785Y-78140785D01*
X96732880Y-78140785D01*
X100661452Y-79807452D02*
X99470976Y-79807452D01*
X99470976Y-77307452D01*
X101494785Y-79807452D02*
X101494785Y-77307452D01*
X102923357Y-79807452D01*
X102923357Y-77307452D01*
X104947166Y-78497928D02*
X105304309Y-78616976D01*
X105423357Y-78736023D01*
X105542404Y-78974119D01*
X105542404Y-79331261D01*
X105423357Y-79569357D01*
X105304309Y-79688404D01*
X105066214Y-79807452D01*
X104113833Y-79807452D01*
X104113833Y-77307452D01*
X104947166Y-77307452D01*
X105185261Y-77426500D01*
X105304309Y-77545547D01*
X105423357Y-77783642D01*
X105423357Y-78021738D01*
X105304309Y-78259833D01*
X105185261Y-78378880D01*
X104947166Y-78497928D01*
X104113833Y-78497928D01*
X108518595Y-79807452D02*
X108518595Y-77307452D01*
X109470976Y-77307452D01*
X109709071Y-77426500D01*
X109828119Y-77545547D01*
X109947166Y-77783642D01*
X109947166Y-78140785D01*
X109828119Y-78378880D01*
X109709071Y-78497928D01*
X109470976Y-78616976D01*
X108518595Y-78616976D01*
X111375738Y-79807452D02*
X111137642Y-79688404D01*
X111018595Y-79569357D01*
X110899547Y-79331261D01*
X110899547Y-78616976D01*
X111018595Y-78378880D01*
X111137642Y-78259833D01*
X111375738Y-78140785D01*
X111732880Y-78140785D01*
X111970976Y-78259833D01*
X112090023Y-78378880D01*
X112209071Y-78616976D01*
X112209071Y-79331261D01*
X112090023Y-79569357D01*
X111970976Y-79688404D01*
X111732880Y-79807452D01*
X111375738Y-79807452D01*
X113042404Y-78140785D02*
X113518595Y-79807452D01*
X113994785Y-78616976D01*
X114470976Y-79807452D01*
X114947166Y-78140785D01*
X116851928Y-79688404D02*
X116613833Y-79807452D01*
X116137642Y-79807452D01*
X115899547Y-79688404D01*
X115780499Y-79450309D01*
X115780499Y-78497928D01*
X115899547Y-78259833D01*
X116137642Y-78140785D01*
X116613833Y-78140785D01*
X116851928Y-78259833D01*
X116970976Y-78497928D01*
X116970976Y-78736023D01*
X115780499Y-78974119D01*
X118042404Y-79807452D02*
X118042404Y-78140785D01*
X118042404Y-78616976D02*
X118161452Y-78378880D01*
X118280499Y-78259833D01*
X118518595Y-78140785D01*
X118756690Y-78140785D01*
X121375738Y-79688404D02*
X121732880Y-79807452D01*
X122328119Y-79807452D01*
X122566214Y-79688404D01*
X122685261Y-79569357D01*
X122804309Y-79331261D01*
X122804309Y-79093166D01*
X122685261Y-78855071D01*
X122566214Y-78736023D01*
X122328119Y-78616976D01*
X121851928Y-78497928D01*
X121613833Y-78378880D01*
X121494785Y-78259833D01*
X121375738Y-78021738D01*
X121375738Y-77783642D01*
X121494785Y-77545547D01*
X121613833Y-77426500D01*
X121851928Y-77307452D01*
X122447166Y-77307452D01*
X122804309Y-77426500D01*
X124947166Y-78140785D02*
X124947166Y-79807452D01*
X123875738Y-78140785D02*
X123875738Y-79450309D01*
X123994785Y-79688404D01*
X124232880Y-79807452D01*
X124590023Y-79807452D01*
X124828119Y-79688404D01*
X124947166Y-79569357D01*
X126137642Y-78140785D02*
X126137642Y-80640785D01*
X126137642Y-78259833D02*
X126375738Y-78140785D01*
X126851928Y-78140785D01*
X127090023Y-78259833D01*
X127209071Y-78378880D01*
X127328119Y-78616976D01*
X127328119Y-79331261D01*
X127209071Y-79569357D01*
X127090023Y-79688404D01*
X126851928Y-79807452D01*
X126375738Y-79807452D01*
X126137642Y-79688404D01*
X128399547Y-78140785D02*
X128399547Y-80640785D01*
X128399547Y-78259833D02*
X128637642Y-78140785D01*
X129113833Y-78140785D01*
X129351928Y-78259833D01*
X129470976Y-78378880D01*
X129590023Y-78616976D01*
X129590023Y-79331261D01*
X129470976Y-79569357D01*
X129351928Y-79688404D01*
X129113833Y-79807452D01*
X128637642Y-79807452D01*
X128399547Y-79688404D01*
X131018595Y-79807452D02*
X130780499Y-79688404D01*
X130661452Y-79450309D01*
X130661452Y-77307452D01*
X131732880Y-78140785D02*
X132328119Y-79807452D01*
X132923357Y-78140785D02*
X132328119Y-79807452D01*
X132090023Y-80402690D01*
X131970976Y-80521738D01*
X131732880Y-80640785D01*
D13*
X125588285Y-83600857D02*
X125588285Y-82800857D01*
X125588285Y-83029428D02*
X125645428Y-82915142D01*
X125702571Y-82858000D01*
X125816857Y-82800857D01*
X125931142Y-82800857D01*
X126274000Y-82515142D02*
X126331142Y-82458000D01*
X126445428Y-82400857D01*
X126731142Y-82400857D01*
X126845428Y-82458000D01*
X126902571Y-82515142D01*
X126959714Y-82629428D01*
X126959714Y-82743714D01*
X126902571Y-82915142D01*
X126216857Y-83600857D01*
X126959714Y-83600857D01*
X127702571Y-82400857D02*
X127816857Y-82400857D01*
X127931142Y-82458000D01*
X127988285Y-82515142D01*
X128045428Y-82629428D01*
X128102571Y-82858000D01*
X128102571Y-83143714D01*
X128045428Y-83372285D01*
X127988285Y-83486571D01*
X127931142Y-83543714D01*
X127816857Y-83600857D01*
X127702571Y-83600857D01*
X127588285Y-83543714D01*
X127531142Y-83486571D01*
X127474000Y-83372285D01*
X127416857Y-83143714D01*
X127416857Y-82858000D01*
X127474000Y-82629428D01*
X127531142Y-82515142D01*
X127588285Y-82458000D01*
X127702571Y-82400857D01*
X129245428Y-83600857D02*
X128559714Y-83600857D01*
X128902571Y-83600857D02*
X128902571Y-82400857D01*
X128788285Y-82572285D01*
X128674000Y-82686571D01*
X128559714Y-82743714D01*
X129816857Y-83600857D02*
X130045428Y-83600857D01*
X130159714Y-83543714D01*
X130216857Y-83486571D01*
X130331142Y-83315142D01*
X130388285Y-83086571D01*
X130388285Y-82629428D01*
X130331142Y-82515142D01*
X130274000Y-82458000D01*
X130159714Y-82400857D01*
X129931142Y-82400857D01*
X129816857Y-82458000D01*
X129759714Y-82515142D01*
X129702571Y-82629428D01*
X129702571Y-82915142D01*
X129759714Y-83029428D01*
X129816857Y-83086571D01*
X129931142Y-83143714D01*
X130159714Y-83143714D01*
X130274000Y-83086571D01*
X130331142Y-83029428D01*
X130388285Y-82915142D01*
X130902571Y-83486571D02*
X130959714Y-83543714D01*
X130902571Y-83600857D01*
X130845428Y-83543714D01*
X130902571Y-83486571D01*
X130902571Y-83600857D01*
X131702571Y-82400857D02*
X131816857Y-82400857D01*
X131931142Y-82458000D01*
X131988285Y-82515142D01*
X132045428Y-82629428D01*
X132102571Y-82858000D01*
X132102571Y-83143714D01*
X132045428Y-83372285D01*
X131988285Y-83486571D01*
X131931142Y-83543714D01*
X131816857Y-83600857D01*
X131702571Y-83600857D01*
X131588285Y-83543714D01*
X131531142Y-83486571D01*
X131474000Y-83372285D01*
X131416857Y-83143714D01*
X131416857Y-82858000D01*
X131474000Y-82629428D01*
X131531142Y-82515142D01*
X131588285Y-82458000D01*
X131702571Y-82400857D01*
X132788285Y-82915142D02*
X132674000Y-82858000D01*
X132616857Y-82800857D01*
X132559714Y-82686571D01*
X132559714Y-82629428D01*
X132616857Y-82515142D01*
X132674000Y-82458000D01*
X132788285Y-82400857D01*
X133016857Y-82400857D01*
X133131142Y-82458000D01*
X133188285Y-82515142D01*
X133245428Y-82629428D01*
X133245428Y-82686571D01*
X133188285Y-82800857D01*
X133131142Y-82858000D01*
X133016857Y-82915142D01*
X132788285Y-82915142D01*
X132674000Y-82972285D01*
X132616857Y-83029428D01*
X132559714Y-83143714D01*
X132559714Y-83372285D01*
X132616857Y-83486571D01*
X132674000Y-83543714D01*
X132788285Y-83600857D01*
X133016857Y-83600857D01*
X133131142Y-83543714D01*
X133188285Y-83486571D01*
X133245428Y-83372285D01*
X133245428Y-83143714D01*
X133188285Y-83029428D01*
X133131142Y-82972285D01*
X133016857Y-82915142D01*
D11*
X85852000Y-114300000D02*
X74676000Y-114300000D01*
X85852000Y-108204000D02*
X85852000Y-114300000D01*
X85598000Y-108204000D02*
X85852000Y-108204000D01*
X74676000Y-108204000D02*
X85598000Y-108204000D01*
X74676000Y-114300000D02*
X74676000Y-108204000D01*
X139954000Y-74930000D02*
X139954000Y-121920000D01*
X136906000Y-74930000D02*
X139954000Y-74930000D01*
X136906000Y-121920000D02*
X136906000Y-74930000D01*
X139954000Y-121920000D02*
X136906000Y-121920000D01*
X40005000Y-121920000D02*
X43053000Y-121920000D01*
X40005000Y-74930000D02*
X40005000Y-121920000D01*
X43053000Y-74930000D02*
X40005000Y-74930000D01*
X43053000Y-121920000D02*
X43053000Y-74930000D01*
X72390000Y-121920000D02*
X87630000Y-121920000D01*
X72390000Y-119380000D02*
X72390000Y-121920000D01*
X87630000Y-119380000D02*
X72390000Y-119380000D01*
X87630000Y-121920000D02*
X87630000Y-119380000D01*
D14*
X77541000Y-112393000D02*
X76891000Y-112393000D01*
X77541000Y-112143000D02*
X77541000Y-112393000D01*
X76891000Y-112143000D02*
X77541000Y-112143000D01*
X76891000Y-112393000D02*
X76891000Y-112143000D01*
X65701000Y-91565000D02*
X64601000Y-91565000D01*
X65701000Y-91315000D02*
X65701000Y-91565000D01*
X64601000Y-91315000D02*
X65701000Y-91315000D01*
X64601000Y-91565000D02*
X64601000Y-91315000D01*
X62569000Y-91565000D02*
X62569000Y-91315000D01*
X62569000Y-91315000D02*
X63669000Y-91315000D01*
X63669000Y-91315000D02*
X63669000Y-91565000D01*
X63669000Y-91565000D02*
X62569000Y-91565000D01*
X61637000Y-91565000D02*
X60537000Y-91565000D01*
X61637000Y-91315000D02*
X61637000Y-91565000D01*
X60537000Y-91315000D02*
X61637000Y-91315000D01*
X60537000Y-91565000D02*
X60537000Y-91315000D01*
X58505000Y-91565000D02*
X58505000Y-91315000D01*
X58505000Y-91315000D02*
X59605000Y-91315000D01*
X59605000Y-91315000D02*
X59605000Y-91565000D01*
X59605000Y-91565000D02*
X58505000Y-91565000D01*
X68170520Y-100869840D02*
X68170520Y-99769840D01*
X68420520Y-100869840D02*
X68170520Y-100869840D01*
X68420520Y-99769840D02*
X68420520Y-100869840D01*
X68170520Y-99769840D02*
X68420520Y-99769840D01*
X56297000Y-109545000D02*
X56047000Y-109545000D01*
X56047000Y-109545000D02*
X56047000Y-108895000D01*
X56047000Y-108895000D02*
X56297000Y-108895000D01*
X56297000Y-108895000D02*
X56297000Y-109545000D01*
X69159000Y-90553000D02*
X69159000Y-90803000D01*
X69159000Y-90803000D02*
X68509000Y-90803000D01*
X68509000Y-90803000D02*
X68509000Y-90553000D01*
X68509000Y-90553000D02*
X69159000Y-90553000D01*
X82987000Y-112143000D02*
X83637000Y-112143000D01*
X82987000Y-112393000D02*
X82987000Y-112143000D01*
X83637000Y-112393000D02*
X82987000Y-112393000D01*
X83637000Y-112143000D02*
X83637000Y-112393000D01*
X68170520Y-101872960D02*
X68420520Y-101872960D01*
X68420520Y-101872960D02*
X68420520Y-102972960D01*
X68420520Y-102972960D02*
X68170520Y-102972960D01*
X68170520Y-102972960D02*
X68170520Y-101872960D01*
X68267040Y-98856680D02*
X68267040Y-98206680D01*
X68517040Y-98856680D02*
X68267040Y-98856680D01*
X68517040Y-98206680D02*
X68517040Y-98856680D01*
X68267040Y-98206680D02*
X68517040Y-98206680D01*
X56297000Y-112593000D02*
X56047000Y-112593000D01*
X56047000Y-112593000D02*
X56047000Y-111943000D01*
X56047000Y-111943000D02*
X56297000Y-111943000D01*
X56297000Y-111943000D02*
X56297000Y-112593000D01*
X76644500Y-85122000D02*
X79679500Y-89122000D01*
X76644500Y-85122000D02*
X73609500Y-89122000D01*
X79679500Y-89122000D02*
X73609500Y-89122000D01*
X81214000Y-111910000D02*
X81214000Y-111910000D01*
X81214000Y-111910000D02*
X79314000Y-111910000D01*
X79314000Y-111910000D02*
X79314000Y-111610000D01*
X79314000Y-111610000D02*
X80914000Y-111610000D01*
X80914000Y-111610000D02*
X81214000Y-111910000D01*
X68600000Y-92500000D02*
X72000000Y-92500000D01*
X68000000Y-97500000D02*
X72000000Y-97500000D01*
X68600000Y-92500000D02*
G75*
G03X68000000Y-92500000I-300000J0D01*
G01*
X95496500Y-90680000D02*
X96146500Y-90680000D01*
X95496500Y-90930000D02*
X95496500Y-90680000D01*
X96146500Y-90930000D02*
X95496500Y-90930000D01*
X96146500Y-90680000D02*
X96146500Y-90930000D01*
X94241500Y-90654500D02*
X94241500Y-90904500D01*
X94241500Y-90904500D02*
X93591500Y-90904500D01*
X93591500Y-90904500D02*
X93591500Y-90654500D01*
X93591500Y-90654500D02*
X94241500Y-90654500D01*
X92336500Y-99125500D02*
X92336500Y-99375500D01*
X92336500Y-99375500D02*
X91686500Y-99375500D01*
X91686500Y-99375500D02*
X91686500Y-99125500D01*
X91686500Y-99125500D02*
X92336500Y-99125500D01*
X91686500Y-90680000D02*
X92336500Y-90680000D01*
X91686500Y-90930000D02*
X91686500Y-90680000D01*
X92336500Y-90930000D02*
X91686500Y-90930000D01*
X92336500Y-90680000D02*
X92336500Y-90930000D01*
X128976000Y-101153500D02*
X128326000Y-101153500D01*
X128976000Y-100903500D02*
X128976000Y-101153500D01*
X128326000Y-100903500D02*
X128976000Y-100903500D01*
X128326000Y-101153500D02*
X128326000Y-100903500D01*
D11*
X46118000Y-113556000D02*
X46118000Y-119576000D01*
X46118000Y-119576000D02*
X51418000Y-119576000D01*
X51418000Y-119576000D02*
X51418000Y-113556000D01*
X51418000Y-113556000D02*
X46118000Y-113556000D01*
X45828000Y-114586000D02*
X45828000Y-118586000D01*
X47498000Y-119576000D02*
X47498000Y-118576000D01*
X47498000Y-118576000D02*
X50038000Y-118576000D01*
X50038000Y-118576000D02*
X50038000Y-119576000D01*
X47498000Y-118576000D02*
X47748000Y-118046000D01*
X47748000Y-118046000D02*
X49788000Y-118046000D01*
X49788000Y-118046000D02*
X50038000Y-118576000D01*
X47748000Y-119576000D02*
X47748000Y-118576000D01*
X49788000Y-119576000D02*
X49788000Y-118576000D01*
X46698000Y-113556000D02*
X46698000Y-114156000D01*
X46698000Y-114156000D02*
X48298000Y-114156000D01*
X48298000Y-114156000D02*
X48298000Y-113556000D01*
X49238000Y-113556000D02*
X49238000Y-114156000D01*
X49238000Y-114156000D02*
X50838000Y-114156000D01*
X50838000Y-114156000D02*
X50838000Y-113556000D01*
X59728000Y-114156000D02*
X59728000Y-113556000D01*
X58128000Y-114156000D02*
X59728000Y-114156000D01*
X58128000Y-113556000D02*
X58128000Y-114156000D01*
X57188000Y-114156000D02*
X57188000Y-113556000D01*
X55588000Y-114156000D02*
X57188000Y-114156000D01*
X55588000Y-113556000D02*
X55588000Y-114156000D01*
X58678000Y-119576000D02*
X58678000Y-118576000D01*
X56638000Y-119576000D02*
X56638000Y-118576000D01*
X58678000Y-118046000D02*
X58928000Y-118576000D01*
X56638000Y-118046000D02*
X58678000Y-118046000D01*
X56388000Y-118576000D02*
X56638000Y-118046000D01*
X58928000Y-118576000D02*
X58928000Y-119576000D01*
X56388000Y-118576000D02*
X58928000Y-118576000D01*
X56388000Y-119576000D02*
X56388000Y-118576000D01*
X54718000Y-114586000D02*
X54718000Y-118586000D01*
X60308000Y-113556000D02*
X55008000Y-113556000D01*
X60308000Y-119576000D02*
X60308000Y-113556000D01*
X55008000Y-119576000D02*
X60308000Y-119576000D01*
X55008000Y-113556000D02*
X55008000Y-119576000D01*
X113936000Y-113175000D02*
X113936000Y-119195000D01*
X113936000Y-119195000D02*
X119236000Y-119195000D01*
X119236000Y-119195000D02*
X119236000Y-113175000D01*
X119236000Y-113175000D02*
X113936000Y-113175000D01*
X113646000Y-114205000D02*
X113646000Y-118205000D01*
X115316000Y-119195000D02*
X115316000Y-118195000D01*
X115316000Y-118195000D02*
X117856000Y-118195000D01*
X117856000Y-118195000D02*
X117856000Y-119195000D01*
X115316000Y-118195000D02*
X115566000Y-117665000D01*
X115566000Y-117665000D02*
X117606000Y-117665000D01*
X117606000Y-117665000D02*
X117856000Y-118195000D01*
X115566000Y-119195000D02*
X115566000Y-118195000D01*
X117606000Y-119195000D02*
X117606000Y-118195000D01*
X114516000Y-113175000D02*
X114516000Y-113775000D01*
X114516000Y-113775000D02*
X116116000Y-113775000D01*
X116116000Y-113775000D02*
X116116000Y-113175000D01*
X117056000Y-113175000D02*
X117056000Y-113775000D01*
X117056000Y-113775000D02*
X118656000Y-113775000D01*
X118656000Y-113775000D02*
X118656000Y-113175000D01*
X91838000Y-113175000D02*
X91838000Y-119195000D01*
X91838000Y-119195000D02*
X99678000Y-119195000D01*
X99678000Y-119195000D02*
X99678000Y-113175000D01*
X99678000Y-113175000D02*
X91838000Y-113175000D01*
X91548000Y-114205000D02*
X91548000Y-118205000D01*
X93218000Y-119195000D02*
X93218000Y-118195000D01*
X93218000Y-118195000D02*
X98298000Y-118195000D01*
X98298000Y-118195000D02*
X98298000Y-119195000D01*
X93218000Y-118195000D02*
X93468000Y-117665000D01*
X93468000Y-117665000D02*
X98048000Y-117665000D01*
X98048000Y-117665000D02*
X98298000Y-118195000D01*
X93468000Y-119195000D02*
X93468000Y-118195000D01*
X98048000Y-119195000D02*
X98048000Y-118195000D01*
X92418000Y-113175000D02*
X92418000Y-113775000D01*
X92418000Y-113775000D02*
X94018000Y-113775000D01*
X94018000Y-113775000D02*
X94018000Y-113175000D01*
X94958000Y-113175000D02*
X94958000Y-113775000D01*
X94958000Y-113775000D02*
X96558000Y-113775000D01*
X96558000Y-113775000D02*
X96558000Y-113175000D01*
X97498000Y-113175000D02*
X97498000Y-113775000D01*
X97498000Y-113775000D02*
X99098000Y-113775000D01*
X99098000Y-113775000D02*
X99098000Y-113175000D01*
X123905500Y-113175000D02*
X123905500Y-119195000D01*
X123905500Y-119195000D02*
X134285500Y-119195000D01*
X134285500Y-119195000D02*
X134285500Y-113175000D01*
X134285500Y-113175000D02*
X123905500Y-113175000D01*
X123615500Y-114205000D02*
X123615500Y-118205000D01*
X125285500Y-119195000D02*
X125285500Y-118195000D01*
X125285500Y-118195000D02*
X132905500Y-118195000D01*
X132905500Y-118195000D02*
X132905500Y-119195000D01*
X125285500Y-118195000D02*
X125535500Y-117665000D01*
X125535500Y-117665000D02*
X132655500Y-117665000D01*
X132655500Y-117665000D02*
X132905500Y-118195000D01*
X125535500Y-119195000D02*
X125535500Y-118195000D01*
X132655500Y-119195000D02*
X132655500Y-118195000D01*
X124485500Y-113175000D02*
X124485500Y-113775000D01*
X124485500Y-113775000D02*
X126085500Y-113775000D01*
X126085500Y-113775000D02*
X126085500Y-113175000D01*
X127025500Y-113175000D02*
X127025500Y-113775000D01*
X127025500Y-113775000D02*
X128625500Y-113775000D01*
X128625500Y-113775000D02*
X128625500Y-113175000D01*
X129565500Y-113175000D02*
X129565500Y-113775000D01*
X129565500Y-113775000D02*
X131165500Y-113775000D01*
X131165500Y-113775000D02*
X131165500Y-113175000D01*
X132105500Y-113175000D02*
X132105500Y-113775000D01*
X132105500Y-113775000D02*
X133705500Y-113775000D01*
X133705500Y-113775000D02*
X133705500Y-113175000D01*
X115060000Y-111816000D02*
X115060000Y-110886000D01*
X115060000Y-108656000D02*
X115060000Y-109586000D01*
X115060000Y-108656000D02*
X112900000Y-108656000D01*
X115060000Y-111816000D02*
X113600000Y-111816000D01*
D14*
X117531000Y-109853000D02*
X117531000Y-109603000D01*
X117531000Y-109603000D02*
X118181000Y-109603000D01*
X118181000Y-109603000D02*
X118181000Y-109853000D01*
X118181000Y-109853000D02*
X117531000Y-109853000D01*
X65276000Y-109022000D02*
X65276000Y-109672000D01*
X65026000Y-109022000D02*
X65276000Y-109022000D01*
X65026000Y-109672000D02*
X65026000Y-109022000D01*
X65276000Y-109672000D02*
X65026000Y-109672000D01*
X65149000Y-111943000D02*
X65149000Y-112593000D01*
X64899000Y-111943000D02*
X65149000Y-111943000D01*
X64899000Y-112593000D02*
X64899000Y-111943000D01*
X65149000Y-112593000D02*
X64899000Y-112593000D01*
D11*
X63898000Y-113556000D02*
X63898000Y-119576000D01*
X63898000Y-119576000D02*
X69198000Y-119576000D01*
X69198000Y-119576000D02*
X69198000Y-113556000D01*
X69198000Y-113556000D02*
X63898000Y-113556000D01*
X63608000Y-114586000D02*
X63608000Y-118586000D01*
X65278000Y-119576000D02*
X65278000Y-118576000D01*
X65278000Y-118576000D02*
X67818000Y-118576000D01*
X67818000Y-118576000D02*
X67818000Y-119576000D01*
X65278000Y-118576000D02*
X65528000Y-118046000D01*
X65528000Y-118046000D02*
X67568000Y-118046000D01*
X67568000Y-118046000D02*
X67818000Y-118576000D01*
X65528000Y-119576000D02*
X65528000Y-118576000D01*
X67568000Y-119576000D02*
X67568000Y-118576000D01*
X64478000Y-113556000D02*
X64478000Y-114156000D01*
X64478000Y-114156000D02*
X66078000Y-114156000D01*
X66078000Y-114156000D02*
X66078000Y-113556000D01*
X67018000Y-113556000D02*
X67018000Y-114156000D01*
X67018000Y-114156000D02*
X68618000Y-114156000D01*
X68618000Y-114156000D02*
X68618000Y-113556000D01*
D14*
X58632000Y-107313000D02*
X58632000Y-107063000D01*
X58632000Y-107063000D02*
X59732000Y-107063000D01*
X59732000Y-107063000D02*
X59732000Y-107313000D01*
X59732000Y-107313000D02*
X58632000Y-107313000D01*
X59732000Y-111377000D02*
X58632000Y-111377000D01*
X59732000Y-111127000D02*
X59732000Y-111377000D01*
X58632000Y-111127000D02*
X59732000Y-111127000D01*
X58632000Y-111377000D02*
X58632000Y-111127000D01*
X67522000Y-107440000D02*
X67522000Y-107190000D01*
X67522000Y-107190000D02*
X68622000Y-107190000D01*
X68622000Y-107190000D02*
X68622000Y-107440000D01*
X68622000Y-107440000D02*
X67522000Y-107440000D01*
X68622000Y-111504000D02*
X67522000Y-111504000D01*
X68622000Y-111254000D02*
X68622000Y-111504000D01*
X67522000Y-111254000D02*
X68622000Y-111254000D01*
X67522000Y-111504000D02*
X67522000Y-111254000D01*
D11*
X131905500Y-104645000D02*
X133905500Y-104645000D01*
X131905500Y-107445000D02*
X131905500Y-104645000D01*
X133905500Y-107445000D02*
X131905500Y-107445000D01*
X133905500Y-104645000D02*
X133905500Y-107445000D01*
X125460000Y-104645000D02*
X125460000Y-107445000D01*
X125460000Y-107445000D02*
X123460000Y-107445000D01*
X123460000Y-107445000D02*
X123460000Y-104645000D01*
X123460000Y-104645000D02*
X125460000Y-104645000D01*
D14*
X50603240Y-109323600D02*
X50603240Y-109573600D01*
X50603240Y-109573600D02*
X49503240Y-109573600D01*
X49503240Y-109573600D02*
X49503240Y-109323600D01*
X49503240Y-109323600D02*
X50603240Y-109323600D01*
D11*
X127651000Y-104645000D02*
X129651000Y-104645000D01*
X127651000Y-107445000D02*
X127651000Y-104645000D01*
X129651000Y-107445000D02*
X127651000Y-107445000D01*
X129651000Y-104645000D02*
X129651000Y-107445000D01*
D14*
X49020000Y-106243000D02*
X48770000Y-106243000D01*
X48770000Y-106243000D02*
X48770000Y-105593000D01*
X48770000Y-105593000D02*
X49020000Y-105593000D01*
X49020000Y-105593000D02*
X49020000Y-106243000D01*
X65270920Y-105994320D02*
X65270920Y-106644320D01*
X65020920Y-105994320D02*
X65270920Y-105994320D01*
X65020920Y-106644320D02*
X65020920Y-105994320D01*
X65270920Y-106644320D02*
X65020920Y-106644320D01*
X56299640Y-106522400D02*
X56049640Y-106522400D01*
X56049640Y-106522400D02*
X56049640Y-105872400D01*
X56049640Y-105872400D02*
X56299640Y-105872400D01*
X56299640Y-105872400D02*
X56299640Y-106522400D01*
X111386500Y-116080000D02*
X111386500Y-116330000D01*
X111386500Y-116330000D02*
X110736500Y-116330000D01*
X110736500Y-116330000D02*
X110736500Y-116080000D01*
X110736500Y-116080000D02*
X111386500Y-116080000D01*
X100830500Y-116080000D02*
X101480500Y-116080000D01*
X100830500Y-116330000D02*
X100830500Y-116080000D01*
X101480500Y-116330000D02*
X100830500Y-116330000D01*
X101480500Y-116080000D02*
X101480500Y-116330000D01*
D11*
X104220500Y-113175000D02*
X104220500Y-119195000D01*
X104220500Y-119195000D02*
X109520500Y-119195000D01*
X109520500Y-119195000D02*
X109520500Y-113175000D01*
X109520500Y-113175000D02*
X104220500Y-113175000D01*
X103930500Y-114205000D02*
X103930500Y-118205000D01*
X105600500Y-119195000D02*
X105600500Y-118195000D01*
X105600500Y-118195000D02*
X108140500Y-118195000D01*
X108140500Y-118195000D02*
X108140500Y-119195000D01*
X105600500Y-118195000D02*
X105850500Y-117665000D01*
X105850500Y-117665000D02*
X107890500Y-117665000D01*
X107890500Y-117665000D02*
X108140500Y-118195000D01*
X105850500Y-119195000D02*
X105850500Y-118195000D01*
X107890500Y-119195000D02*
X107890500Y-118195000D01*
X104800500Y-113175000D02*
X104800500Y-113775000D01*
X104800500Y-113775000D02*
X106400500Y-113775000D01*
X106400500Y-113775000D02*
X106400500Y-113175000D01*
X107340500Y-113175000D02*
X107340500Y-113775000D01*
X107340500Y-113775000D02*
X108940500Y-113775000D01*
X108940500Y-113775000D02*
X108940500Y-113175000D01*
D14*
X124135000Y-101153500D02*
X124135000Y-100903500D01*
X124135000Y-100903500D02*
X124785000Y-100903500D01*
X124785000Y-100903500D02*
X124785000Y-101153500D01*
X124785000Y-101153500D02*
X124135000Y-101153500D01*
X121165500Y-116080000D02*
X121165500Y-116330000D01*
X121165500Y-116330000D02*
X120515500Y-116330000D01*
X120515500Y-116330000D02*
X120515500Y-116080000D01*
X120515500Y-116080000D02*
X121165500Y-116080000D01*
D11*
X59892000Y-101250500D02*
X59892000Y-95050500D01*
X59892000Y-95050500D02*
X60342000Y-95050500D01*
X66092000Y-95050500D02*
X66092000Y-101250500D01*
X66092000Y-95050500D02*
X65642000Y-95050500D01*
X66092000Y-101250500D02*
X65642000Y-101250500D01*
X59892000Y-101250500D02*
X60342000Y-101250500D01*
D14*
X71374000Y-88032500D02*
X72759000Y-89132500D01*
X71374000Y-88032500D02*
X69989000Y-89132500D01*
X72759000Y-89132500D02*
X69989000Y-89132500D01*
X57912000Y-96255500D02*
X59297000Y-97355500D01*
X57912000Y-96255500D02*
X56527000Y-97355500D01*
X59297000Y-97355500D02*
X56527000Y-97355500D01*
X66526500Y-84086000D02*
X66526500Y-86856000D01*
X65426500Y-85471000D02*
X66526500Y-86856000D01*
X65426500Y-85471000D02*
X66526500Y-84086000D01*
X76049142Y-112434666D02*
X76096761Y-112482285D01*
X76144380Y-112625142D01*
X76144380Y-112720380D01*
X76096761Y-112863238D01*
X76001523Y-112958476D01*
X75906285Y-113006095D01*
X75715809Y-113053714D01*
X75572952Y-113053714D01*
X75382476Y-113006095D01*
X75287238Y-112958476D01*
X75192000Y-112863238D01*
X75144380Y-112720380D01*
X75144380Y-112625142D01*
X75192000Y-112482285D01*
X75239619Y-112434666D01*
X76144380Y-111482285D02*
X76144380Y-112053714D01*
X76144380Y-111768000D02*
X75144380Y-111768000D01*
X75287238Y-111863238D01*
X75382476Y-111958476D01*
X75430095Y-112053714D01*
X65508142Y-88812666D02*
X65555761Y-88860285D01*
X65603380Y-89003142D01*
X65603380Y-89098380D01*
X65555761Y-89241238D01*
X65460523Y-89336476D01*
X65365285Y-89384095D01*
X65174809Y-89431714D01*
X65031952Y-89431714D01*
X64841476Y-89384095D01*
X64746238Y-89336476D01*
X64651000Y-89241238D01*
X64603380Y-89098380D01*
X64603380Y-89003142D01*
X64651000Y-88860285D01*
X64698619Y-88812666D01*
X64698619Y-88431714D02*
X64651000Y-88384095D01*
X64603380Y-88288857D01*
X64603380Y-88050761D01*
X64651000Y-87955523D01*
X64698619Y-87907904D01*
X64793857Y-87860285D01*
X64889095Y-87860285D01*
X65031952Y-87907904D01*
X65603380Y-88479333D01*
X65603380Y-87860285D01*
X63476142Y-88812666D02*
X63523761Y-88860285D01*
X63571380Y-89003142D01*
X63571380Y-89098380D01*
X63523761Y-89241238D01*
X63428523Y-89336476D01*
X63333285Y-89384095D01*
X63142809Y-89431714D01*
X62999952Y-89431714D01*
X62809476Y-89384095D01*
X62714238Y-89336476D01*
X62619000Y-89241238D01*
X62571380Y-89098380D01*
X62571380Y-89003142D01*
X62619000Y-88860285D01*
X62666619Y-88812666D01*
X62571380Y-88479333D02*
X62571380Y-87860285D01*
X62952333Y-88193619D01*
X62952333Y-88050761D01*
X62999952Y-87955523D01*
X63047571Y-87907904D01*
X63142809Y-87860285D01*
X63380904Y-87860285D01*
X63476142Y-87907904D01*
X63523761Y-87955523D01*
X63571380Y-88050761D01*
X63571380Y-88336476D01*
X63523761Y-88431714D01*
X63476142Y-88479333D01*
X61444142Y-88812666D02*
X61491761Y-88860285D01*
X61539380Y-89003142D01*
X61539380Y-89098380D01*
X61491761Y-89241238D01*
X61396523Y-89336476D01*
X61301285Y-89384095D01*
X61110809Y-89431714D01*
X60967952Y-89431714D01*
X60777476Y-89384095D01*
X60682238Y-89336476D01*
X60587000Y-89241238D01*
X60539380Y-89098380D01*
X60539380Y-89003142D01*
X60587000Y-88860285D01*
X60634619Y-88812666D01*
X60872714Y-87955523D02*
X61539380Y-87955523D01*
X60491761Y-88193619D02*
X61206047Y-88431714D01*
X61206047Y-87812666D01*
X59412142Y-88812666D02*
X59459761Y-88860285D01*
X59507380Y-89003142D01*
X59507380Y-89098380D01*
X59459761Y-89241238D01*
X59364523Y-89336476D01*
X59269285Y-89384095D01*
X59078809Y-89431714D01*
X58935952Y-89431714D01*
X58745476Y-89384095D01*
X58650238Y-89336476D01*
X58555000Y-89241238D01*
X58507380Y-89098380D01*
X58507380Y-89003142D01*
X58555000Y-88860285D01*
X58602619Y-88812666D01*
X58507380Y-87907904D02*
X58507380Y-88384095D01*
X58983571Y-88431714D01*
X58935952Y-88384095D01*
X58888333Y-88288857D01*
X58888333Y-88050761D01*
X58935952Y-87955523D01*
X58983571Y-87907904D01*
X59078809Y-87860285D01*
X59316904Y-87860285D01*
X59412142Y-87907904D01*
X59459761Y-87955523D01*
X59507380Y-88050761D01*
X59507380Y-88288857D01*
X59459761Y-88384095D01*
X59412142Y-88431714D01*
X70902533Y-100687142D02*
X70854914Y-100734761D01*
X70712057Y-100782380D01*
X70616819Y-100782380D01*
X70473961Y-100734761D01*
X70378723Y-100639523D01*
X70331104Y-100544285D01*
X70283485Y-100353809D01*
X70283485Y-100210952D01*
X70331104Y-100020476D01*
X70378723Y-99925238D01*
X70473961Y-99830000D01*
X70616819Y-99782380D01*
X70712057Y-99782380D01*
X70854914Y-99830000D01*
X70902533Y-99877619D01*
X71759676Y-99782380D02*
X71569200Y-99782380D01*
X71473961Y-99830000D01*
X71426342Y-99877619D01*
X71331104Y-100020476D01*
X71283485Y-100210952D01*
X71283485Y-100591904D01*
X71331104Y-100687142D01*
X71378723Y-100734761D01*
X71473961Y-100782380D01*
X71664438Y-100782380D01*
X71759676Y-100734761D01*
X71807295Y-100687142D01*
X71854914Y-100591904D01*
X71854914Y-100353809D01*
X71807295Y-100258571D01*
X71759676Y-100210952D01*
X71664438Y-100163333D01*
X71473961Y-100163333D01*
X71378723Y-100210952D01*
X71331104Y-100258571D01*
X71283485Y-100353809D01*
X56030833Y-108164902D02*
X55983214Y-108212521D01*
X55840357Y-108260140D01*
X55745119Y-108260140D01*
X55602261Y-108212521D01*
X55507023Y-108117283D01*
X55459404Y-108022045D01*
X55411785Y-107831569D01*
X55411785Y-107688712D01*
X55459404Y-107498236D01*
X55507023Y-107402998D01*
X55602261Y-107307760D01*
X55745119Y-107260140D01*
X55840357Y-107260140D01*
X55983214Y-107307760D01*
X56030833Y-107355379D01*
X56364166Y-107260140D02*
X57030833Y-107260140D01*
X56602261Y-108260140D01*
X69191142Y-88431666D02*
X69238761Y-88479285D01*
X69286380Y-88622142D01*
X69286380Y-88717380D01*
X69238761Y-88860238D01*
X69143523Y-88955476D01*
X69048285Y-89003095D01*
X68857809Y-89050714D01*
X68714952Y-89050714D01*
X68524476Y-89003095D01*
X68429238Y-88955476D01*
X68334000Y-88860238D01*
X68286380Y-88717380D01*
X68286380Y-88622142D01*
X68334000Y-88479285D01*
X68381619Y-88431666D01*
X68714952Y-87860238D02*
X68667333Y-87955476D01*
X68619714Y-88003095D01*
X68524476Y-88050714D01*
X68476857Y-88050714D01*
X68381619Y-88003095D01*
X68334000Y-87955476D01*
X68286380Y-87860238D01*
X68286380Y-87669761D01*
X68334000Y-87574523D01*
X68381619Y-87526904D01*
X68476857Y-87479285D01*
X68524476Y-87479285D01*
X68619714Y-87526904D01*
X68667333Y-87574523D01*
X68714952Y-87669761D01*
X68714952Y-87860238D01*
X68762571Y-87955476D01*
X68810190Y-88003095D01*
X68905428Y-88050714D01*
X69095904Y-88050714D01*
X69191142Y-88003095D01*
X69238761Y-87955476D01*
X69286380Y-87860238D01*
X69286380Y-87669761D01*
X69238761Y-87574523D01*
X69191142Y-87526904D01*
X69095904Y-87479285D01*
X68905428Y-87479285D01*
X68810190Y-87526904D01*
X68762571Y-87574523D01*
X68714952Y-87669761D01*
X85193142Y-112434666D02*
X85240761Y-112482285D01*
X85288380Y-112625142D01*
X85288380Y-112720380D01*
X85240761Y-112863238D01*
X85145523Y-112958476D01*
X85050285Y-113006095D01*
X84859809Y-113053714D01*
X84716952Y-113053714D01*
X84526476Y-113006095D01*
X84431238Y-112958476D01*
X84336000Y-112863238D01*
X84288380Y-112720380D01*
X84288380Y-112625142D01*
X84336000Y-112482285D01*
X84383619Y-112434666D01*
X85288380Y-111958476D02*
X85288380Y-111768000D01*
X85240761Y-111672761D01*
X85193142Y-111625142D01*
X85050285Y-111529904D01*
X84859809Y-111482285D01*
X84478857Y-111482285D01*
X84383619Y-111529904D01*
X84336000Y-111577523D01*
X84288380Y-111672761D01*
X84288380Y-111863238D01*
X84336000Y-111958476D01*
X84383619Y-112006095D01*
X84478857Y-112053714D01*
X84716952Y-112053714D01*
X84812190Y-112006095D01*
X84859809Y-111958476D01*
X84907428Y-111863238D01*
X84907428Y-111672761D01*
X84859809Y-111577523D01*
X84812190Y-111529904D01*
X84716952Y-111482285D01*
X70883542Y-102780102D02*
X70835923Y-102827721D01*
X70693066Y-102875340D01*
X70597828Y-102875340D01*
X70454971Y-102827721D01*
X70359733Y-102732483D01*
X70312114Y-102637245D01*
X70264495Y-102446769D01*
X70264495Y-102303912D01*
X70312114Y-102113436D01*
X70359733Y-102018198D01*
X70454971Y-101922960D01*
X70597828Y-101875340D01*
X70693066Y-101875340D01*
X70835923Y-101922960D01*
X70883542Y-101970579D01*
X71835923Y-102875340D02*
X71264495Y-102875340D01*
X71550209Y-102875340D02*
X71550209Y-101875340D01*
X71454971Y-102018198D01*
X71359733Y-102113436D01*
X71264495Y-102161055D01*
X72454971Y-101875340D02*
X72550209Y-101875340D01*
X72645447Y-101922960D01*
X72693066Y-101970579D01*
X72740685Y-102065817D01*
X72788304Y-102256293D01*
X72788304Y-102494388D01*
X72740685Y-102684864D01*
X72693066Y-102780102D01*
X72645447Y-102827721D01*
X72550209Y-102875340D01*
X72454971Y-102875340D01*
X72359733Y-102827721D01*
X72312114Y-102780102D01*
X72264495Y-102684864D01*
X72216876Y-102494388D01*
X72216876Y-102256293D01*
X72264495Y-102065817D01*
X72312114Y-101970579D01*
X72359733Y-101922960D01*
X72454971Y-101875340D01*
X70759182Y-98888822D02*
X70711563Y-98936441D01*
X70568706Y-98984060D01*
X70473468Y-98984060D01*
X70330611Y-98936441D01*
X70235373Y-98841203D01*
X70187754Y-98745965D01*
X70140135Y-98555489D01*
X70140135Y-98412632D01*
X70187754Y-98222156D01*
X70235373Y-98126918D01*
X70330611Y-98031680D01*
X70473468Y-97984060D01*
X70568706Y-97984060D01*
X70711563Y-98031680D01*
X70759182Y-98079299D01*
X71711563Y-98984060D02*
X71140135Y-98984060D01*
X71425849Y-98984060D02*
X71425849Y-97984060D01*
X71330611Y-98126918D01*
X71235373Y-98222156D01*
X71140135Y-98269775D01*
X72663944Y-98984060D02*
X72092516Y-98984060D01*
X72378230Y-98984060D02*
X72378230Y-97984060D01*
X72282992Y-98126918D01*
X72187754Y-98222156D01*
X72092516Y-98269775D01*
X55491142Y-111228142D02*
X55443523Y-111275761D01*
X55300666Y-111323380D01*
X55205428Y-111323380D01*
X55062571Y-111275761D01*
X54967333Y-111180523D01*
X54919714Y-111085285D01*
X54872095Y-110894809D01*
X54872095Y-110751952D01*
X54919714Y-110561476D01*
X54967333Y-110466238D01*
X55062571Y-110371000D01*
X55205428Y-110323380D01*
X55300666Y-110323380D01*
X55443523Y-110371000D01*
X55491142Y-110418619D01*
X56443523Y-111323380D02*
X55872095Y-111323380D01*
X56157809Y-111323380D02*
X56157809Y-110323380D01*
X56062571Y-110466238D01*
X55967333Y-110561476D01*
X55872095Y-110609095D01*
X56824476Y-110418619D02*
X56872095Y-110371000D01*
X56967333Y-110323380D01*
X57205428Y-110323380D01*
X57300666Y-110371000D01*
X57348285Y-110418619D01*
X57395904Y-110513857D01*
X57395904Y-110609095D01*
X57348285Y-110751952D01*
X56776857Y-111323380D01*
X57395904Y-111323380D01*
X81414880Y-87860095D02*
X80414880Y-87860095D01*
X80414880Y-87622000D01*
X80462500Y-87479142D01*
X80557738Y-87383904D01*
X80652976Y-87336285D01*
X80843452Y-87288666D01*
X80986309Y-87288666D01*
X81176785Y-87336285D01*
X81272023Y-87383904D01*
X81367261Y-87479142D01*
X81414880Y-87622000D01*
X81414880Y-87860095D01*
X81414880Y-86336285D02*
X81414880Y-86907714D01*
X81414880Y-86622000D02*
X80414880Y-86622000D01*
X80557738Y-86717238D01*
X80652976Y-86812476D01*
X80700595Y-86907714D01*
X79287809Y-109672380D02*
X79287809Y-108672380D01*
X80335428Y-109577142D02*
X80287809Y-109624761D01*
X80144952Y-109672380D01*
X80049714Y-109672380D01*
X79906857Y-109624761D01*
X79811619Y-109529523D01*
X79764000Y-109434285D01*
X79716380Y-109243809D01*
X79716380Y-109100952D01*
X79764000Y-108910476D01*
X79811619Y-108815238D01*
X79906857Y-108720000D01*
X80049714Y-108672380D01*
X80144952Y-108672380D01*
X80287809Y-108720000D01*
X80335428Y-108767619D01*
X81287809Y-109672380D02*
X80716380Y-109672380D01*
X81002095Y-109672380D02*
X81002095Y-108672380D01*
X80906857Y-108815238D01*
X80811619Y-108910476D01*
X80716380Y-108958095D01*
X74017309Y-93479880D02*
X74017309Y-92479880D01*
X75064928Y-93384642D02*
X75017309Y-93432261D01*
X74874452Y-93479880D01*
X74779214Y-93479880D01*
X74636357Y-93432261D01*
X74541119Y-93337023D01*
X74493500Y-93241785D01*
X74445880Y-93051309D01*
X74445880Y-92908452D01*
X74493500Y-92717976D01*
X74541119Y-92622738D01*
X74636357Y-92527500D01*
X74779214Y-92479880D01*
X74874452Y-92479880D01*
X75017309Y-92527500D01*
X75064928Y-92575119D01*
X75445880Y-92575119D02*
X75493500Y-92527500D01*
X75588738Y-92479880D01*
X75826833Y-92479880D01*
X75922071Y-92527500D01*
X75969690Y-92575119D01*
X76017309Y-92670357D01*
X76017309Y-92765595D01*
X75969690Y-92908452D01*
X75398261Y-93479880D01*
X76017309Y-93479880D01*
X96273880Y-88368166D02*
X95797690Y-88701500D01*
X96273880Y-88939595D02*
X95273880Y-88939595D01*
X95273880Y-88558642D01*
X95321500Y-88463404D01*
X95369119Y-88415785D01*
X95464357Y-88368166D01*
X95607214Y-88368166D01*
X95702452Y-88415785D01*
X95750071Y-88463404D01*
X95797690Y-88558642D01*
X95797690Y-88939595D01*
X96273880Y-87415785D02*
X96273880Y-87987214D01*
X96273880Y-87701500D02*
X95273880Y-87701500D01*
X95416738Y-87796738D01*
X95511976Y-87891976D01*
X95559595Y-87987214D01*
X94432380Y-88368166D02*
X93956190Y-88701500D01*
X94432380Y-88939595D02*
X93432380Y-88939595D01*
X93432380Y-88558642D01*
X93480000Y-88463404D01*
X93527619Y-88415785D01*
X93622857Y-88368166D01*
X93765714Y-88368166D01*
X93860952Y-88415785D01*
X93908571Y-88463404D01*
X93956190Y-88558642D01*
X93956190Y-88939595D01*
X93527619Y-87987214D02*
X93480000Y-87939595D01*
X93432380Y-87844357D01*
X93432380Y-87606261D01*
X93480000Y-87511023D01*
X93527619Y-87463404D01*
X93622857Y-87415785D01*
X93718095Y-87415785D01*
X93860952Y-87463404D01*
X94432380Y-88034833D01*
X94432380Y-87415785D01*
X92463880Y-102084166D02*
X91987690Y-102417500D01*
X92463880Y-102655595D02*
X91463880Y-102655595D01*
X91463880Y-102274642D01*
X91511500Y-102179404D01*
X91559119Y-102131785D01*
X91654357Y-102084166D01*
X91797214Y-102084166D01*
X91892452Y-102131785D01*
X91940071Y-102179404D01*
X91987690Y-102274642D01*
X91987690Y-102655595D01*
X91463880Y-101750833D02*
X91463880Y-101131785D01*
X91844833Y-101465119D01*
X91844833Y-101322261D01*
X91892452Y-101227023D01*
X91940071Y-101179404D01*
X92035309Y-101131785D01*
X92273404Y-101131785D01*
X92368642Y-101179404D01*
X92416261Y-101227023D01*
X92463880Y-101322261D01*
X92463880Y-101607976D01*
X92416261Y-101703214D01*
X92368642Y-101750833D01*
X92463880Y-88368166D02*
X91987690Y-88701500D01*
X92463880Y-88939595D02*
X91463880Y-88939595D01*
X91463880Y-88558642D01*
X91511500Y-88463404D01*
X91559119Y-88415785D01*
X91654357Y-88368166D01*
X91797214Y-88368166D01*
X91892452Y-88415785D01*
X91940071Y-88463404D01*
X91987690Y-88558642D01*
X91987690Y-88939595D01*
X91797214Y-87511023D02*
X92463880Y-87511023D01*
X91416261Y-87749119D02*
X92130547Y-87987214D01*
X92130547Y-87368166D01*
X129103380Y-98591666D02*
X128627190Y-98925000D01*
X129103380Y-99163095D02*
X128103380Y-99163095D01*
X128103380Y-98782142D01*
X128151000Y-98686904D01*
X128198619Y-98639285D01*
X128293857Y-98591666D01*
X128436714Y-98591666D01*
X128531952Y-98639285D01*
X128579571Y-98686904D01*
X128627190Y-98782142D01*
X128627190Y-99163095D01*
X128103380Y-97686904D02*
X128103380Y-98163095D01*
X128579571Y-98210714D01*
X128531952Y-98163095D01*
X128484333Y-98067857D01*
X128484333Y-97829761D01*
X128531952Y-97734523D01*
X128579571Y-97686904D01*
X128674809Y-97639285D01*
X128912904Y-97639285D01*
X129008142Y-97686904D01*
X129055761Y-97734523D01*
X129103380Y-97829761D01*
X129103380Y-98067857D01*
X129055761Y-98163095D01*
X129008142Y-98210714D01*
X48434666Y-120356380D02*
X48434666Y-121070666D01*
X48387047Y-121213523D01*
X48291809Y-121308761D01*
X48148952Y-121356380D01*
X48053714Y-121356380D01*
X49434666Y-121356380D02*
X48863238Y-121356380D01*
X49148952Y-121356380D02*
X49148952Y-120356380D01*
X49053714Y-120499238D01*
X48958476Y-120594476D01*
X48863238Y-120642095D01*
X45092880Y-119752666D02*
X45092880Y-120324095D01*
X45092880Y-120038380D02*
X44092880Y-120038380D01*
X44235738Y-120133619D01*
X44330976Y-120228857D01*
X44378595Y-120324095D01*
X44188119Y-119371714D02*
X44140500Y-119324095D01*
X44092880Y-119228857D01*
X44092880Y-118990761D01*
X44140500Y-118895523D01*
X44188119Y-118847904D01*
X44283357Y-118800285D01*
X44378595Y-118800285D01*
X44521452Y-118847904D01*
X45092880Y-119419333D01*
X45092880Y-118800285D01*
X44092880Y-118514571D02*
X45092880Y-118181238D01*
X44092880Y-117847904D01*
X45188119Y-117752666D02*
X45188119Y-116990761D01*
X45092880Y-116752666D02*
X44092880Y-116752666D01*
X45092880Y-116276476D02*
X44092880Y-116276476D01*
X45092880Y-115705047D01*
X44092880Y-115705047D01*
X45092880Y-115228857D02*
X44092880Y-115228857D01*
X44092880Y-114847904D01*
X44140500Y-114752666D01*
X44188119Y-114705047D01*
X44283357Y-114657428D01*
X44426214Y-114657428D01*
X44521452Y-114705047D01*
X44569071Y-114752666D01*
X44616690Y-114847904D01*
X44616690Y-115228857D01*
X44092880Y-114228857D02*
X44902404Y-114228857D01*
X44997642Y-114181238D01*
X45045261Y-114133619D01*
X45092880Y-114038380D01*
X45092880Y-113847904D01*
X45045261Y-113752666D01*
X44997642Y-113705047D01*
X44902404Y-113657428D01*
X44092880Y-113657428D01*
X44092880Y-113324095D02*
X44092880Y-112752666D01*
X45092880Y-113038380D02*
X44092880Y-113038380D01*
X57324666Y-120419880D02*
X57324666Y-121134166D01*
X57277047Y-121277023D01*
X57181809Y-121372261D01*
X57038952Y-121419880D01*
X56943714Y-121419880D01*
X57753238Y-120515119D02*
X57800857Y-120467500D01*
X57896095Y-120419880D01*
X58134190Y-120419880D01*
X58229428Y-120467500D01*
X58277047Y-120515119D01*
X58324666Y-120610357D01*
X58324666Y-120705595D01*
X58277047Y-120848452D01*
X57705619Y-121419880D01*
X58324666Y-121419880D01*
X54014666Y-121308190D02*
X54014666Y-120832000D01*
X54300380Y-121403428D02*
X53300380Y-121070095D01*
X54300380Y-120736761D01*
X54395619Y-120641523D02*
X54395619Y-119879619D01*
X54300380Y-119165333D02*
X54300380Y-119641523D01*
X53300380Y-119641523D01*
X54300380Y-118832000D02*
X53300380Y-118832000D01*
X54300380Y-118260571D01*
X53300380Y-118260571D01*
X53776571Y-117451047D02*
X53824190Y-117308190D01*
X53871809Y-117260571D01*
X53967047Y-117212952D01*
X54109904Y-117212952D01*
X54205142Y-117260571D01*
X54252761Y-117308190D01*
X54300380Y-117403428D01*
X54300380Y-117784380D01*
X53300380Y-117784380D01*
X53300380Y-117451047D01*
X53348000Y-117355809D01*
X53395619Y-117308190D01*
X53490857Y-117260571D01*
X53586095Y-117260571D01*
X53681333Y-117308190D01*
X53728952Y-117355809D01*
X53776571Y-117451047D01*
X53776571Y-117784380D01*
X54395619Y-117022476D02*
X54395619Y-116260571D01*
X54300380Y-116022476D02*
X53300380Y-116022476D01*
X53300380Y-115641523D01*
X53348000Y-115546285D01*
X53395619Y-115498666D01*
X53490857Y-115451047D01*
X53633714Y-115451047D01*
X53728952Y-115498666D01*
X53776571Y-115546285D01*
X53824190Y-115641523D01*
X53824190Y-116022476D01*
X53300380Y-114832000D02*
X53300380Y-114641523D01*
X53348000Y-114546285D01*
X53443238Y-114451047D01*
X53633714Y-114403428D01*
X53967047Y-114403428D01*
X54157523Y-114451047D01*
X54252761Y-114546285D01*
X54300380Y-114641523D01*
X54300380Y-114832000D01*
X54252761Y-114927238D01*
X54157523Y-115022476D01*
X53967047Y-115070095D01*
X53633714Y-115070095D01*
X53443238Y-115022476D01*
X53348000Y-114927238D01*
X53300380Y-114832000D01*
X53300380Y-114070095D02*
X54300380Y-113832000D01*
X53586095Y-113641523D01*
X54300380Y-113451047D01*
X53300380Y-113212952D01*
X53776571Y-112832000D02*
X53776571Y-112498666D01*
X54300380Y-112355809D02*
X54300380Y-112832000D01*
X53300380Y-112832000D01*
X53300380Y-112355809D01*
X54300380Y-111355809D02*
X53824190Y-111689142D01*
X54300380Y-111927238D02*
X53300380Y-111927238D01*
X53300380Y-111546285D01*
X53348000Y-111451047D01*
X53395619Y-111403428D01*
X53490857Y-111355809D01*
X53633714Y-111355809D01*
X53728952Y-111403428D01*
X53776571Y-111451047D01*
X53824190Y-111546285D01*
X53824190Y-111927238D01*
X116252666Y-120419880D02*
X116252666Y-121134166D01*
X116205047Y-121277023D01*
X116109809Y-121372261D01*
X115966952Y-121419880D01*
X115871714Y-121419880D01*
X116633619Y-120419880D02*
X117252666Y-120419880D01*
X116919333Y-120800833D01*
X117062190Y-120800833D01*
X117157428Y-120848452D01*
X117205047Y-120896071D01*
X117252666Y-120991309D01*
X117252666Y-121229404D01*
X117205047Y-121324642D01*
X117157428Y-121372261D01*
X117062190Y-121419880D01*
X116776476Y-121419880D01*
X116681238Y-121372261D01*
X116633619Y-121324642D01*
X112704571Y-119538333D02*
X112704571Y-119871666D01*
X113228380Y-119871666D02*
X112228380Y-119871666D01*
X112228380Y-119395476D01*
X112942666Y-119062142D02*
X112942666Y-118585952D01*
X113228380Y-119157380D02*
X112228380Y-118824047D01*
X113228380Y-118490714D01*
X112228380Y-118157380D02*
X113037904Y-118157380D01*
X113133142Y-118109761D01*
X113180761Y-118062142D01*
X113228380Y-117966904D01*
X113228380Y-117776428D01*
X113180761Y-117681190D01*
X113133142Y-117633571D01*
X113037904Y-117585952D01*
X112228380Y-117585952D01*
X113228380Y-116633571D02*
X113228380Y-117109761D01*
X112228380Y-117109761D01*
X112228380Y-116443095D02*
X112228380Y-115871666D01*
X113228380Y-116157380D02*
X112228380Y-116157380D01*
X113323619Y-115776428D02*
X113323619Y-115014523D01*
X113228380Y-114300238D02*
X113228380Y-114776428D01*
X112228380Y-114776428D01*
X112704571Y-113966904D02*
X112704571Y-113633571D01*
X113228380Y-113490714D02*
X113228380Y-113966904D01*
X112228380Y-113966904D01*
X112228380Y-113490714D01*
X113228380Y-113062142D02*
X112228380Y-113062142D01*
X112228380Y-112824047D01*
X112276000Y-112681190D01*
X112371238Y-112585952D01*
X112466476Y-112538333D01*
X112656952Y-112490714D01*
X112799809Y-112490714D01*
X112990285Y-112538333D01*
X113085523Y-112585952D01*
X113180761Y-112681190D01*
X113228380Y-112824047D01*
X113228380Y-113062142D01*
X95424666Y-120419880D02*
X95424666Y-121134166D01*
X95377047Y-121277023D01*
X95281809Y-121372261D01*
X95138952Y-121419880D01*
X95043714Y-121419880D01*
X96329428Y-120753214D02*
X96329428Y-121419880D01*
X96091333Y-120372261D02*
X95853238Y-121086547D01*
X96472285Y-121086547D01*
X90066880Y-120943095D02*
X91066880Y-120609761D01*
X90066880Y-120276428D01*
X91019261Y-119990714D02*
X91066880Y-119847857D01*
X91066880Y-119609761D01*
X91019261Y-119514523D01*
X90971642Y-119466904D01*
X90876404Y-119419285D01*
X90781166Y-119419285D01*
X90685928Y-119466904D01*
X90638309Y-119514523D01*
X90590690Y-119609761D01*
X90543071Y-119800238D01*
X90495452Y-119895476D01*
X90447833Y-119943095D01*
X90352595Y-119990714D01*
X90257357Y-119990714D01*
X90162119Y-119943095D01*
X90114500Y-119895476D01*
X90066880Y-119800238D01*
X90066880Y-119562142D01*
X90114500Y-119419285D01*
X90543071Y-118990714D02*
X90543071Y-118657380D01*
X91066880Y-118514523D02*
X91066880Y-118990714D01*
X90066880Y-118990714D01*
X90066880Y-118514523D01*
X91066880Y-117609761D02*
X91066880Y-118085952D01*
X90066880Y-118085952D01*
X91162119Y-117514523D02*
X91162119Y-116752619D01*
X91019261Y-116562142D02*
X91066880Y-116419285D01*
X91066880Y-116181190D01*
X91019261Y-116085952D01*
X90971642Y-116038333D01*
X90876404Y-115990714D01*
X90781166Y-115990714D01*
X90685928Y-116038333D01*
X90638309Y-116085952D01*
X90590690Y-116181190D01*
X90543071Y-116371666D01*
X90495452Y-116466904D01*
X90447833Y-116514523D01*
X90352595Y-116562142D01*
X90257357Y-116562142D01*
X90162119Y-116514523D01*
X90114500Y-116466904D01*
X90066880Y-116371666D01*
X90066880Y-116133571D01*
X90114500Y-115990714D01*
X90066880Y-115657380D02*
X91066880Y-115419285D01*
X90352595Y-115228809D01*
X91066880Y-115038333D01*
X90066880Y-114800238D01*
X91066880Y-114419285D02*
X90066880Y-114419285D01*
X90066880Y-114085952D02*
X90066880Y-113514523D01*
X91066880Y-113800238D02*
X90066880Y-113800238D01*
X90971642Y-112609761D02*
X91019261Y-112657380D01*
X91066880Y-112800238D01*
X91066880Y-112895476D01*
X91019261Y-113038333D01*
X90924023Y-113133571D01*
X90828785Y-113181190D01*
X90638309Y-113228809D01*
X90495452Y-113228809D01*
X90304976Y-113181190D01*
X90209738Y-113133571D01*
X90114500Y-113038333D01*
X90066880Y-112895476D01*
X90066880Y-112800238D01*
X90114500Y-112657380D01*
X90162119Y-112609761D01*
X91066880Y-112181190D02*
X90066880Y-112181190D01*
X90543071Y-112181190D02*
X90543071Y-111609761D01*
X91066880Y-111609761D02*
X90066880Y-111609761D01*
X128762166Y-120356380D02*
X128762166Y-121070666D01*
X128714547Y-121213523D01*
X128619309Y-121308761D01*
X128476452Y-121356380D01*
X128381214Y-121356380D01*
X129714547Y-120356380D02*
X129238357Y-120356380D01*
X129190738Y-120832571D01*
X129238357Y-120784952D01*
X129333595Y-120737333D01*
X129571690Y-120737333D01*
X129666928Y-120784952D01*
X129714547Y-120832571D01*
X129762166Y-120927809D01*
X129762166Y-121165904D01*
X129714547Y-121261142D01*
X129666928Y-121308761D01*
X129571690Y-121356380D01*
X129333595Y-121356380D01*
X129238357Y-121308761D01*
X129190738Y-121261142D01*
X122070880Y-121205000D02*
X122880404Y-121205000D01*
X122975642Y-121157380D01*
X123023261Y-121109761D01*
X123070880Y-121014523D01*
X123070880Y-120824047D01*
X123023261Y-120728809D01*
X122975642Y-120681190D01*
X122880404Y-120633571D01*
X122070880Y-120633571D01*
X123023261Y-120205000D02*
X123070880Y-120062142D01*
X123070880Y-119824047D01*
X123023261Y-119728809D01*
X122975642Y-119681190D01*
X122880404Y-119633571D01*
X122785166Y-119633571D01*
X122689928Y-119681190D01*
X122642309Y-119728809D01*
X122594690Y-119824047D01*
X122547071Y-120014523D01*
X122499452Y-120109761D01*
X122451833Y-120157380D01*
X122356595Y-120205000D01*
X122261357Y-120205000D01*
X122166119Y-120157380D01*
X122118500Y-120109761D01*
X122070880Y-120014523D01*
X122070880Y-119776428D01*
X122118500Y-119633571D01*
X122547071Y-118871666D02*
X122594690Y-118728809D01*
X122642309Y-118681190D01*
X122737547Y-118633571D01*
X122880404Y-118633571D01*
X122975642Y-118681190D01*
X123023261Y-118728809D01*
X123070880Y-118824047D01*
X123070880Y-119205000D01*
X122070880Y-119205000D01*
X122070880Y-118871666D01*
X122118500Y-118776428D01*
X122166119Y-118728809D01*
X122261357Y-118681190D01*
X122356595Y-118681190D01*
X122451833Y-118728809D01*
X122499452Y-118776428D01*
X122547071Y-118871666D01*
X122547071Y-119205000D01*
X123166119Y-118443095D02*
X123166119Y-117681190D01*
X122975642Y-116871666D02*
X123023261Y-116919285D01*
X123070880Y-117062142D01*
X123070880Y-117157380D01*
X123023261Y-117300238D01*
X122928023Y-117395476D01*
X122832785Y-117443095D01*
X122642309Y-117490714D01*
X122499452Y-117490714D01*
X122308976Y-117443095D01*
X122213738Y-117395476D01*
X122118500Y-117300238D01*
X122070880Y-117157380D01*
X122070880Y-117062142D01*
X122118500Y-116919285D01*
X122166119Y-116871666D01*
X122070880Y-116252619D02*
X122070880Y-116062142D01*
X122118500Y-115966904D01*
X122213738Y-115871666D01*
X122404214Y-115824047D01*
X122737547Y-115824047D01*
X122928023Y-115871666D01*
X123023261Y-115966904D01*
X123070880Y-116062142D01*
X123070880Y-116252619D01*
X123023261Y-116347857D01*
X122928023Y-116443095D01*
X122737547Y-116490714D01*
X122404214Y-116490714D01*
X122213738Y-116443095D01*
X122118500Y-116347857D01*
X122070880Y-116252619D01*
X123070880Y-115395476D02*
X122070880Y-115395476D01*
X123070880Y-114824047D01*
X122070880Y-114824047D01*
X122070880Y-114490714D02*
X122070880Y-113919285D01*
X123070880Y-114205000D02*
X122070880Y-114205000D01*
X123070880Y-113014523D02*
X122594690Y-113347857D01*
X123070880Y-113585952D02*
X122070880Y-113585952D01*
X122070880Y-113205000D01*
X122118500Y-113109761D01*
X122166119Y-113062142D01*
X122261357Y-113014523D01*
X122404214Y-113014523D01*
X122499452Y-113062142D01*
X122547071Y-113109761D01*
X122594690Y-113205000D01*
X122594690Y-113585952D01*
X122070880Y-112395476D02*
X122070880Y-112205000D01*
X122118500Y-112109761D01*
X122213738Y-112014523D01*
X122404214Y-111966904D01*
X122737547Y-111966904D01*
X122928023Y-112014523D01*
X123023261Y-112109761D01*
X123070880Y-112205000D01*
X123070880Y-112395476D01*
X123023261Y-112490714D01*
X122928023Y-112585952D01*
X122737547Y-112633571D01*
X122404214Y-112633571D01*
X122213738Y-112585952D01*
X122118500Y-112490714D01*
X122070880Y-112395476D01*
X123070880Y-111062142D02*
X123070880Y-111538333D01*
X122070880Y-111538333D01*
X114204761Y-108283619D02*
X114109523Y-108236000D01*
X114014285Y-108140761D01*
X113871428Y-107997904D01*
X113776190Y-107950285D01*
X113680952Y-107950285D01*
X113728571Y-108188380D02*
X113633333Y-108140761D01*
X113538095Y-108045523D01*
X113490476Y-107855047D01*
X113490476Y-107521714D01*
X113538095Y-107331238D01*
X113633333Y-107236000D01*
X113728571Y-107188380D01*
X113919047Y-107188380D01*
X114014285Y-107236000D01*
X114109523Y-107331238D01*
X114157142Y-107521714D01*
X114157142Y-107855047D01*
X114109523Y-108045523D01*
X114014285Y-108140761D01*
X113919047Y-108188380D01*
X113728571Y-108188380D01*
X115109523Y-108188380D02*
X114538095Y-108188380D01*
X114823809Y-108188380D02*
X114823809Y-107188380D01*
X114728571Y-107331238D01*
X114633333Y-107426476D01*
X114538095Y-107474095D01*
X118371880Y-107354666D02*
X117895690Y-107688000D01*
X118371880Y-107926095D02*
X117371880Y-107926095D01*
X117371880Y-107545142D01*
X117419500Y-107449904D01*
X117467119Y-107402285D01*
X117562357Y-107354666D01*
X117705214Y-107354666D01*
X117800452Y-107402285D01*
X117848071Y-107449904D01*
X117895690Y-107545142D01*
X117895690Y-107926095D01*
X117371880Y-106497523D02*
X117371880Y-106688000D01*
X117419500Y-106783238D01*
X117467119Y-106830857D01*
X117609976Y-106926095D01*
X117800452Y-106973714D01*
X118181404Y-106973714D01*
X118276642Y-106926095D01*
X118324261Y-106878476D01*
X118371880Y-106783238D01*
X118371880Y-106592761D01*
X118324261Y-106497523D01*
X118276642Y-106449904D01*
X118181404Y-106402285D01*
X117943309Y-106402285D01*
X117848071Y-106449904D01*
X117800452Y-106497523D01*
X117752833Y-106592761D01*
X117752833Y-106783238D01*
X117800452Y-106878476D01*
X117848071Y-106926095D01*
X117943309Y-106973714D01*
X64508142Y-108307142D02*
X64460523Y-108354761D01*
X64317666Y-108402380D01*
X64222428Y-108402380D01*
X64079571Y-108354761D01*
X63984333Y-108259523D01*
X63936714Y-108164285D01*
X63889095Y-107973809D01*
X63889095Y-107830952D01*
X63936714Y-107640476D01*
X63984333Y-107545238D01*
X64079571Y-107450000D01*
X64222428Y-107402380D01*
X64317666Y-107402380D01*
X64460523Y-107450000D01*
X64508142Y-107497619D01*
X65460523Y-108402380D02*
X64889095Y-108402380D01*
X65174809Y-108402380D02*
X65174809Y-107402380D01*
X65079571Y-107545238D01*
X64984333Y-107640476D01*
X64889095Y-107688095D01*
X65793857Y-107402380D02*
X66412904Y-107402380D01*
X66079571Y-107783333D01*
X66222428Y-107783333D01*
X66317666Y-107830952D01*
X66365285Y-107878571D01*
X66412904Y-107973809D01*
X66412904Y-108211904D01*
X66365285Y-108307142D01*
X66317666Y-108354761D01*
X66222428Y-108402380D01*
X65936714Y-108402380D01*
X65841476Y-108354761D01*
X65793857Y-108307142D01*
X64381142Y-111228142D02*
X64333523Y-111275761D01*
X64190666Y-111323380D01*
X64095428Y-111323380D01*
X63952571Y-111275761D01*
X63857333Y-111180523D01*
X63809714Y-111085285D01*
X63762095Y-110894809D01*
X63762095Y-110751952D01*
X63809714Y-110561476D01*
X63857333Y-110466238D01*
X63952571Y-110371000D01*
X64095428Y-110323380D01*
X64190666Y-110323380D01*
X64333523Y-110371000D01*
X64381142Y-110418619D01*
X65333523Y-111323380D02*
X64762095Y-111323380D01*
X65047809Y-111323380D02*
X65047809Y-110323380D01*
X64952571Y-110466238D01*
X64857333Y-110561476D01*
X64762095Y-110609095D01*
X66190666Y-110656714D02*
X66190666Y-111323380D01*
X65952571Y-110275761D02*
X65714476Y-110990047D01*
X66333523Y-110990047D01*
X66214666Y-120419880D02*
X66214666Y-121134166D01*
X66167047Y-121277023D01*
X66071809Y-121372261D01*
X65928952Y-121419880D01*
X65833714Y-121419880D01*
X67119428Y-120419880D02*
X66928952Y-120419880D01*
X66833714Y-120467500D01*
X66786095Y-120515119D01*
X66690857Y-120657976D01*
X66643238Y-120848452D01*
X66643238Y-121229404D01*
X66690857Y-121324642D01*
X66738476Y-121372261D01*
X66833714Y-121419880D01*
X67024190Y-121419880D01*
X67119428Y-121372261D01*
X67167047Y-121324642D01*
X67214666Y-121229404D01*
X67214666Y-120991309D01*
X67167047Y-120896071D01*
X67119428Y-120848452D01*
X67024190Y-120800833D01*
X66833714Y-120800833D01*
X66738476Y-120848452D01*
X66690857Y-120896071D01*
X66643238Y-120991309D01*
X62412571Y-120998666D02*
X62460190Y-120855809D01*
X62507809Y-120808190D01*
X62603047Y-120760571D01*
X62745904Y-120760571D01*
X62841142Y-120808190D01*
X62888761Y-120855809D01*
X62936380Y-120951047D01*
X62936380Y-121332000D01*
X61936380Y-121332000D01*
X61936380Y-120998666D01*
X61984000Y-120903428D01*
X62031619Y-120855809D01*
X62126857Y-120808190D01*
X62222095Y-120808190D01*
X62317333Y-120855809D01*
X62364952Y-120903428D01*
X62412571Y-120998666D01*
X62412571Y-121332000D01*
X63031619Y-120570095D02*
X63031619Y-119808190D01*
X62936380Y-119093904D02*
X62936380Y-119570095D01*
X61936380Y-119570095D01*
X62936380Y-118760571D02*
X61936380Y-118760571D01*
X62936380Y-118189142D01*
X61936380Y-118189142D01*
X62412571Y-117379619D02*
X62460190Y-117236761D01*
X62507809Y-117189142D01*
X62603047Y-117141523D01*
X62745904Y-117141523D01*
X62841142Y-117189142D01*
X62888761Y-117236761D01*
X62936380Y-117332000D01*
X62936380Y-117712952D01*
X61936380Y-117712952D01*
X61936380Y-117379619D01*
X61984000Y-117284380D01*
X62031619Y-117236761D01*
X62126857Y-117189142D01*
X62222095Y-117189142D01*
X62317333Y-117236761D01*
X62364952Y-117284380D01*
X62412571Y-117379619D01*
X62412571Y-117712952D01*
X63031619Y-116951047D02*
X63031619Y-116189142D01*
X62936380Y-115951047D02*
X61936380Y-115951047D01*
X61936380Y-115570095D01*
X61984000Y-115474857D01*
X62031619Y-115427238D01*
X62126857Y-115379619D01*
X62269714Y-115379619D01*
X62364952Y-115427238D01*
X62412571Y-115474857D01*
X62460190Y-115570095D01*
X62460190Y-115951047D01*
X61936380Y-114760571D02*
X61936380Y-114570095D01*
X61984000Y-114474857D01*
X62079238Y-114379619D01*
X62269714Y-114332000D01*
X62603047Y-114332000D01*
X62793523Y-114379619D01*
X62888761Y-114474857D01*
X62936380Y-114570095D01*
X62936380Y-114760571D01*
X62888761Y-114855809D01*
X62793523Y-114951047D01*
X62603047Y-114998666D01*
X62269714Y-114998666D01*
X62079238Y-114951047D01*
X61984000Y-114855809D01*
X61936380Y-114760571D01*
X61936380Y-113998666D02*
X62936380Y-113760571D01*
X62222095Y-113570095D01*
X62936380Y-113379619D01*
X61936380Y-113141523D01*
X62412571Y-112760571D02*
X62412571Y-112427238D01*
X62936380Y-112284380D02*
X62936380Y-112760571D01*
X61936380Y-112760571D01*
X61936380Y-112284380D01*
X62936380Y-111284380D02*
X62460190Y-111617714D01*
X62936380Y-111855809D02*
X61936380Y-111855809D01*
X61936380Y-111474857D01*
X61984000Y-111379619D01*
X62031619Y-111332000D01*
X62126857Y-111284380D01*
X62269714Y-111284380D01*
X62364952Y-111332000D01*
X62412571Y-111379619D01*
X62460190Y-111474857D01*
X62460190Y-111855809D01*
X60888571Y-108021333D02*
X60888571Y-108354666D01*
X61412380Y-108354666D02*
X60412380Y-108354666D01*
X60412380Y-107878476D01*
X60888571Y-107164190D02*
X60936190Y-107021333D01*
X60983809Y-106973714D01*
X61079047Y-106926095D01*
X61221904Y-106926095D01*
X61317142Y-106973714D01*
X61364761Y-107021333D01*
X61412380Y-107116571D01*
X61412380Y-107497523D01*
X60412380Y-107497523D01*
X60412380Y-107164190D01*
X60460000Y-107068952D01*
X60507619Y-107021333D01*
X60602857Y-106973714D01*
X60698095Y-106973714D01*
X60793333Y-107021333D01*
X60840952Y-107068952D01*
X60888571Y-107164190D01*
X60888571Y-107497523D01*
X61412380Y-105973714D02*
X61412380Y-106545142D01*
X61412380Y-106259428D02*
X60412380Y-106259428D01*
X60555238Y-106354666D01*
X60650476Y-106449904D01*
X60698095Y-106545142D01*
X60888571Y-112085333D02*
X60888571Y-112418666D01*
X61412380Y-112418666D02*
X60412380Y-112418666D01*
X60412380Y-111942476D01*
X60888571Y-111228190D02*
X60936190Y-111085333D01*
X60983809Y-111037714D01*
X61079047Y-110990095D01*
X61221904Y-110990095D01*
X61317142Y-111037714D01*
X61364761Y-111085333D01*
X61412380Y-111180571D01*
X61412380Y-111561523D01*
X60412380Y-111561523D01*
X60412380Y-111228190D01*
X60460000Y-111132952D01*
X60507619Y-111085333D01*
X60602857Y-111037714D01*
X60698095Y-111037714D01*
X60793333Y-111085333D01*
X60840952Y-111132952D01*
X60888571Y-111228190D01*
X60888571Y-111561523D01*
X60507619Y-110609142D02*
X60460000Y-110561523D01*
X60412380Y-110466285D01*
X60412380Y-110228190D01*
X60460000Y-110132952D01*
X60507619Y-110085333D01*
X60602857Y-110037714D01*
X60698095Y-110037714D01*
X60840952Y-110085333D01*
X61412380Y-110656761D01*
X61412380Y-110037714D01*
X69778571Y-108186333D02*
X69778571Y-108519666D01*
X70302380Y-108519666D02*
X69302380Y-108519666D01*
X69302380Y-108043476D01*
X69778571Y-107329190D02*
X69826190Y-107186333D01*
X69873809Y-107138714D01*
X69969047Y-107091095D01*
X70111904Y-107091095D01*
X70207142Y-107138714D01*
X70254761Y-107186333D01*
X70302380Y-107281571D01*
X70302380Y-107662523D01*
X69302380Y-107662523D01*
X69302380Y-107329190D01*
X69350000Y-107233952D01*
X69397619Y-107186333D01*
X69492857Y-107138714D01*
X69588095Y-107138714D01*
X69683333Y-107186333D01*
X69730952Y-107233952D01*
X69778571Y-107329190D01*
X69778571Y-107662523D01*
X69302380Y-106757761D02*
X69302380Y-106138714D01*
X69683333Y-106472047D01*
X69683333Y-106329190D01*
X69730952Y-106233952D01*
X69778571Y-106186333D01*
X69873809Y-106138714D01*
X70111904Y-106138714D01*
X70207142Y-106186333D01*
X70254761Y-106233952D01*
X70302380Y-106329190D01*
X70302380Y-106614904D01*
X70254761Y-106710142D01*
X70207142Y-106757761D01*
X69778571Y-112212333D02*
X69778571Y-112545666D01*
X70302380Y-112545666D02*
X69302380Y-112545666D01*
X69302380Y-112069476D01*
X69778571Y-111355190D02*
X69826190Y-111212333D01*
X69873809Y-111164714D01*
X69969047Y-111117095D01*
X70111904Y-111117095D01*
X70207142Y-111164714D01*
X70254761Y-111212333D01*
X70302380Y-111307571D01*
X70302380Y-111688523D01*
X69302380Y-111688523D01*
X69302380Y-111355190D01*
X69350000Y-111259952D01*
X69397619Y-111212333D01*
X69492857Y-111164714D01*
X69588095Y-111164714D01*
X69683333Y-111212333D01*
X69730952Y-111259952D01*
X69778571Y-111355190D01*
X69778571Y-111688523D01*
X69635714Y-110259952D02*
X70302380Y-110259952D01*
X69254761Y-110498047D02*
X69969047Y-110736142D01*
X69969047Y-110117095D01*
X132357880Y-109989833D02*
X133072166Y-109989833D01*
X133215023Y-110037452D01*
X133310261Y-110132690D01*
X133357880Y-110275547D01*
X133357880Y-110370785D01*
X133357880Y-109513642D02*
X132357880Y-109513642D01*
X132357880Y-109132690D01*
X132405500Y-109037452D01*
X132453119Y-108989833D01*
X132548357Y-108942214D01*
X132691214Y-108942214D01*
X132786452Y-108989833D01*
X132834071Y-109037452D01*
X132881690Y-109132690D01*
X132881690Y-109513642D01*
X133357880Y-107989833D02*
X133357880Y-108561261D01*
X133357880Y-108275547D02*
X132357880Y-108275547D01*
X132500738Y-108370785D01*
X132595976Y-108466023D01*
X132643595Y-108561261D01*
X134929571Y-110045000D02*
X134929571Y-109711666D01*
X135453380Y-109568809D02*
X135453380Y-110045000D01*
X134453380Y-110045000D01*
X134453380Y-109568809D01*
X135453380Y-109140238D02*
X134453380Y-109140238D01*
X135453380Y-108568809D01*
X134453380Y-108568809D01*
X135548619Y-108330714D02*
X135548619Y-107568809D01*
X135453380Y-106759285D02*
X134977190Y-107092619D01*
X135453380Y-107330714D02*
X134453380Y-107330714D01*
X134453380Y-106949761D01*
X134501000Y-106854523D01*
X134548619Y-106806904D01*
X134643857Y-106759285D01*
X134786714Y-106759285D01*
X134881952Y-106806904D01*
X134929571Y-106854523D01*
X134977190Y-106949761D01*
X134977190Y-107330714D01*
X134929571Y-106330714D02*
X134929571Y-105997380D01*
X135453380Y-105854523D02*
X135453380Y-106330714D01*
X134453380Y-106330714D01*
X134453380Y-105854523D01*
X135453380Y-105425952D02*
X134453380Y-105425952D01*
X135167666Y-105092619D01*
X134453380Y-104759285D01*
X135453380Y-104759285D01*
X134453380Y-104092619D02*
X134453380Y-103902142D01*
X134501000Y-103806904D01*
X134596238Y-103711666D01*
X134786714Y-103664047D01*
X135120047Y-103664047D01*
X135310523Y-103711666D01*
X135405761Y-103806904D01*
X135453380Y-103902142D01*
X135453380Y-104092619D01*
X135405761Y-104187857D01*
X135310523Y-104283095D01*
X135120047Y-104330714D01*
X134786714Y-104330714D01*
X134596238Y-104283095D01*
X134501000Y-104187857D01*
X134453380Y-104092619D01*
X134453380Y-103378333D02*
X134453380Y-102806904D01*
X135453380Y-103092619D02*
X134453380Y-103092619D01*
X134929571Y-102473571D02*
X134929571Y-102140238D01*
X135453380Y-101997380D02*
X135453380Y-102473571D01*
X134453380Y-102473571D01*
X134453380Y-101997380D01*
X123912380Y-109926333D02*
X124626666Y-109926333D01*
X124769523Y-109973952D01*
X124864761Y-110069190D01*
X124912380Y-110212047D01*
X124912380Y-110307285D01*
X124912380Y-109450142D02*
X123912380Y-109450142D01*
X123912380Y-109069190D01*
X123960000Y-108973952D01*
X124007619Y-108926333D01*
X124102857Y-108878714D01*
X124245714Y-108878714D01*
X124340952Y-108926333D01*
X124388571Y-108973952D01*
X124436190Y-109069190D01*
X124436190Y-109450142D01*
X124007619Y-108497761D02*
X123960000Y-108450142D01*
X123912380Y-108354904D01*
X123912380Y-108116809D01*
X123960000Y-108021571D01*
X124007619Y-107973952D01*
X124102857Y-107926333D01*
X124198095Y-107926333D01*
X124340952Y-107973952D01*
X124912380Y-108545380D01*
X124912380Y-107926333D01*
X126007880Y-111092619D02*
X126007880Y-110521190D01*
X127007880Y-110806904D02*
X126007880Y-110806904D01*
X126007880Y-109997380D02*
X126007880Y-109806904D01*
X126055500Y-109711666D01*
X126150738Y-109616428D01*
X126341214Y-109568809D01*
X126674547Y-109568809D01*
X126865023Y-109616428D01*
X126960261Y-109711666D01*
X127007880Y-109806904D01*
X127007880Y-109997380D01*
X126960261Y-110092619D01*
X126865023Y-110187857D01*
X126674547Y-110235476D01*
X126341214Y-110235476D01*
X126150738Y-110187857D01*
X126055500Y-110092619D01*
X126007880Y-109997380D01*
X127007880Y-109140238D02*
X126007880Y-109140238D01*
X127007880Y-108568809D01*
X126007880Y-108568809D01*
X126484071Y-108092619D02*
X126484071Y-107759285D01*
X127007880Y-107616428D02*
X127007880Y-108092619D01*
X126007880Y-108092619D01*
X126007880Y-107616428D01*
X127103119Y-107425952D02*
X127103119Y-106664047D01*
X127007880Y-105854523D02*
X126531690Y-106187857D01*
X127007880Y-106425952D02*
X126007880Y-106425952D01*
X126007880Y-106045000D01*
X126055500Y-105949761D01*
X126103119Y-105902142D01*
X126198357Y-105854523D01*
X126341214Y-105854523D01*
X126436452Y-105902142D01*
X126484071Y-105949761D01*
X126531690Y-106045000D01*
X126531690Y-106425952D01*
X126484071Y-105425952D02*
X126484071Y-105092619D01*
X127007880Y-104949761D02*
X127007880Y-105425952D01*
X126007880Y-105425952D01*
X126007880Y-104949761D01*
X127007880Y-104521190D02*
X126007880Y-104521190D01*
X126722166Y-104187857D01*
X126007880Y-103854523D01*
X127007880Y-103854523D01*
X126007880Y-103187857D02*
X126007880Y-102997380D01*
X126055500Y-102902142D01*
X126150738Y-102806904D01*
X126341214Y-102759285D01*
X126674547Y-102759285D01*
X126865023Y-102806904D01*
X126960261Y-102902142D01*
X127007880Y-102997380D01*
X127007880Y-103187857D01*
X126960261Y-103283095D01*
X126865023Y-103378333D01*
X126674547Y-103425952D01*
X126341214Y-103425952D01*
X126150738Y-103378333D01*
X126055500Y-103283095D01*
X126007880Y-103187857D01*
X126007880Y-102473571D02*
X126007880Y-101902142D01*
X127007880Y-102187857D02*
X126007880Y-102187857D01*
X126484071Y-101568809D02*
X126484071Y-101235476D01*
X127007880Y-101092619D02*
X127007880Y-101568809D01*
X126007880Y-101568809D01*
X126007880Y-101092619D01*
X51754731Y-110307333D02*
X51754731Y-110640666D01*
X52278540Y-110640666D02*
X51278540Y-110640666D01*
X51278540Y-110164476D01*
X51754731Y-109450190D02*
X51802350Y-109307333D01*
X51849969Y-109259714D01*
X51945207Y-109212095D01*
X52088064Y-109212095D01*
X52183302Y-109259714D01*
X52230921Y-109307333D01*
X52278540Y-109402571D01*
X52278540Y-109783523D01*
X51278540Y-109783523D01*
X51278540Y-109450190D01*
X51326160Y-109354952D01*
X51373779Y-109307333D01*
X51469017Y-109259714D01*
X51564255Y-109259714D01*
X51659493Y-109307333D01*
X51707112Y-109354952D01*
X51754731Y-109450190D01*
X51754731Y-109783523D01*
X51278540Y-108307333D02*
X51278540Y-108783523D01*
X51754731Y-108831142D01*
X51707112Y-108783523D01*
X51659493Y-108688285D01*
X51659493Y-108450190D01*
X51707112Y-108354952D01*
X51754731Y-108307333D01*
X51849969Y-108259714D01*
X52088064Y-108259714D01*
X52183302Y-108307333D01*
X52230921Y-108354952D01*
X52278540Y-108450190D01*
X52278540Y-108688285D01*
X52230921Y-108783523D01*
X52183302Y-108831142D01*
X128103380Y-109989833D02*
X128817666Y-109989833D01*
X128960523Y-110037452D01*
X129055761Y-110132690D01*
X129103380Y-110275547D01*
X129103380Y-110370785D01*
X129103380Y-109513642D02*
X128103380Y-109513642D01*
X128103380Y-109132690D01*
X128151000Y-109037452D01*
X128198619Y-108989833D01*
X128293857Y-108942214D01*
X128436714Y-108942214D01*
X128531952Y-108989833D01*
X128579571Y-109037452D01*
X128627190Y-109132690D01*
X128627190Y-109513642D01*
X128103380Y-108608880D02*
X128103380Y-107989833D01*
X128484333Y-108323166D01*
X128484333Y-108180309D01*
X128531952Y-108085071D01*
X128579571Y-108037452D01*
X128674809Y-107989833D01*
X128912904Y-107989833D01*
X129008142Y-108037452D01*
X129055761Y-108085071D01*
X129103380Y-108180309D01*
X129103380Y-108466023D01*
X129055761Y-108561261D01*
X129008142Y-108608880D01*
X131151261Y-110449761D02*
X131198880Y-110306904D01*
X131198880Y-110068809D01*
X131151261Y-109973571D01*
X131103642Y-109925952D01*
X131008404Y-109878333D01*
X130913166Y-109878333D01*
X130817928Y-109925952D01*
X130770309Y-109973571D01*
X130722690Y-110068809D01*
X130675071Y-110259285D01*
X130627452Y-110354523D01*
X130579833Y-110402142D01*
X130484595Y-110449761D01*
X130389357Y-110449761D01*
X130294119Y-110402142D01*
X130246500Y-110354523D01*
X130198880Y-110259285D01*
X130198880Y-110021190D01*
X130246500Y-109878333D01*
X130675071Y-109449761D02*
X130675071Y-109116428D01*
X131198880Y-108973571D02*
X131198880Y-109449761D01*
X130198880Y-109449761D01*
X130198880Y-108973571D01*
X131198880Y-108068809D02*
X131198880Y-108545000D01*
X130198880Y-108545000D01*
X131294119Y-107973571D02*
X131294119Y-107211666D01*
X131198880Y-106402142D02*
X130722690Y-106735476D01*
X131198880Y-106973571D02*
X130198880Y-106973571D01*
X130198880Y-106592619D01*
X130246500Y-106497380D01*
X130294119Y-106449761D01*
X130389357Y-106402142D01*
X130532214Y-106402142D01*
X130627452Y-106449761D01*
X130675071Y-106497380D01*
X130722690Y-106592619D01*
X130722690Y-106973571D01*
X130675071Y-105973571D02*
X130675071Y-105640238D01*
X131198880Y-105497380D02*
X131198880Y-105973571D01*
X130198880Y-105973571D01*
X130198880Y-105497380D01*
X131198880Y-105068809D02*
X130198880Y-105068809D01*
X130913166Y-104735476D01*
X130198880Y-104402142D01*
X131198880Y-104402142D01*
X130198880Y-103735476D02*
X130198880Y-103545000D01*
X130246500Y-103449761D01*
X130341738Y-103354523D01*
X130532214Y-103306904D01*
X130865547Y-103306904D01*
X131056023Y-103354523D01*
X131151261Y-103449761D01*
X131198880Y-103545000D01*
X131198880Y-103735476D01*
X131151261Y-103830714D01*
X131056023Y-103925952D01*
X130865547Y-103973571D01*
X130532214Y-103973571D01*
X130341738Y-103925952D01*
X130246500Y-103830714D01*
X130198880Y-103735476D01*
X130198880Y-103021190D02*
X130198880Y-102449761D01*
X131198880Y-102735476D02*
X130198880Y-102735476D01*
X130675071Y-102116428D02*
X130675071Y-101783095D01*
X131198880Y-101640238D02*
X131198880Y-102116428D01*
X130198880Y-102116428D01*
X130198880Y-101640238D01*
X48257222Y-104898462D02*
X48209603Y-104946081D01*
X48066746Y-104993700D01*
X47971508Y-104993700D01*
X47828651Y-104946081D01*
X47733413Y-104850843D01*
X47685794Y-104755605D01*
X47638175Y-104565129D01*
X47638175Y-104422272D01*
X47685794Y-104231796D01*
X47733413Y-104136558D01*
X47828651Y-104041320D01*
X47971508Y-103993700D01*
X48066746Y-103993700D01*
X48209603Y-104041320D01*
X48257222Y-104088939D01*
X49209603Y-104993700D02*
X48638175Y-104993700D01*
X48923889Y-104993700D02*
X48923889Y-103993700D01*
X48828651Y-104136558D01*
X48733413Y-104231796D01*
X48638175Y-104279415D01*
X50114365Y-103993700D02*
X49638175Y-103993700D01*
X49590556Y-104469891D01*
X49638175Y-104422272D01*
X49733413Y-104374653D01*
X49971508Y-104374653D01*
X50066746Y-104422272D01*
X50114365Y-104469891D01*
X50161984Y-104565129D01*
X50161984Y-104803224D01*
X50114365Y-104898462D01*
X50066746Y-104946081D01*
X49971508Y-104993700D01*
X49733413Y-104993700D01*
X49638175Y-104946081D01*
X49590556Y-104898462D01*
X64508142Y-105259142D02*
X64460523Y-105306761D01*
X64317666Y-105354380D01*
X64222428Y-105354380D01*
X64079571Y-105306761D01*
X63984333Y-105211523D01*
X63936714Y-105116285D01*
X63889095Y-104925809D01*
X63889095Y-104782952D01*
X63936714Y-104592476D01*
X63984333Y-104497238D01*
X64079571Y-104402000D01*
X64222428Y-104354380D01*
X64317666Y-104354380D01*
X64460523Y-104402000D01*
X64508142Y-104449619D01*
X65460523Y-105354380D02*
X64889095Y-105354380D01*
X65174809Y-105354380D02*
X65174809Y-104354380D01*
X65079571Y-104497238D01*
X64984333Y-104592476D01*
X64889095Y-104640095D01*
X66317666Y-104354380D02*
X66127190Y-104354380D01*
X66031952Y-104402000D01*
X65984333Y-104449619D01*
X65889095Y-104592476D01*
X65841476Y-104782952D01*
X65841476Y-105163904D01*
X65889095Y-105259142D01*
X65936714Y-105306761D01*
X66031952Y-105354380D01*
X66222428Y-105354380D01*
X66317666Y-105306761D01*
X66365285Y-105259142D01*
X66412904Y-105163904D01*
X66412904Y-104925809D01*
X66365285Y-104830571D01*
X66317666Y-104782952D01*
X66222428Y-104735333D01*
X66031952Y-104735333D01*
X65936714Y-104782952D01*
X65889095Y-104830571D01*
X65841476Y-104925809D01*
X55554642Y-105132142D02*
X55507023Y-105179761D01*
X55364166Y-105227380D01*
X55268928Y-105227380D01*
X55126071Y-105179761D01*
X55030833Y-105084523D01*
X54983214Y-104989285D01*
X54935595Y-104798809D01*
X54935595Y-104655952D01*
X54983214Y-104465476D01*
X55030833Y-104370238D01*
X55126071Y-104275000D01*
X55268928Y-104227380D01*
X55364166Y-104227380D01*
X55507023Y-104275000D01*
X55554642Y-104322619D01*
X56507023Y-105227380D02*
X55935595Y-105227380D01*
X56221309Y-105227380D02*
X56221309Y-104227380D01*
X56126071Y-104370238D01*
X56030833Y-104465476D01*
X55935595Y-104513095D01*
X56840357Y-104227380D02*
X57507023Y-104227380D01*
X57078452Y-105227380D01*
X111418642Y-113736357D02*
X111466261Y-113783976D01*
X111513880Y-113926833D01*
X111513880Y-114022071D01*
X111466261Y-114164928D01*
X111371023Y-114260166D01*
X111275785Y-114307785D01*
X111085309Y-114355404D01*
X110942452Y-114355404D01*
X110751976Y-114307785D01*
X110656738Y-114260166D01*
X110561500Y-114164928D01*
X110513880Y-114022071D01*
X110513880Y-113926833D01*
X110561500Y-113783976D01*
X110609119Y-113736357D01*
X111513880Y-112783976D02*
X111513880Y-113355404D01*
X111513880Y-113069690D02*
X110513880Y-113069690D01*
X110656738Y-113164928D01*
X110751976Y-113260166D01*
X110799595Y-113355404D01*
X110942452Y-112212547D02*
X110894833Y-112307785D01*
X110847214Y-112355404D01*
X110751976Y-112403023D01*
X110704357Y-112403023D01*
X110609119Y-112355404D01*
X110561500Y-112307785D01*
X110513880Y-112212547D01*
X110513880Y-112022071D01*
X110561500Y-111926833D01*
X110609119Y-111879214D01*
X110704357Y-111831595D01*
X110751976Y-111831595D01*
X110847214Y-111879214D01*
X110894833Y-111926833D01*
X110942452Y-112022071D01*
X110942452Y-112212547D01*
X110990071Y-112307785D01*
X111037690Y-112355404D01*
X111132928Y-112403023D01*
X111323404Y-112403023D01*
X111418642Y-112355404D01*
X111466261Y-112307785D01*
X111513880Y-112212547D01*
X111513880Y-112022071D01*
X111466261Y-111926833D01*
X111418642Y-111879214D01*
X111323404Y-111831595D01*
X111132928Y-111831595D01*
X111037690Y-111879214D01*
X110990071Y-111926833D01*
X110942452Y-112022071D01*
X101512642Y-113799857D02*
X101560261Y-113847476D01*
X101607880Y-113990333D01*
X101607880Y-114085571D01*
X101560261Y-114228428D01*
X101465023Y-114323666D01*
X101369785Y-114371285D01*
X101179309Y-114418904D01*
X101036452Y-114418904D01*
X100845976Y-114371285D01*
X100750738Y-114323666D01*
X100655500Y-114228428D01*
X100607880Y-114085571D01*
X100607880Y-113990333D01*
X100655500Y-113847476D01*
X100703119Y-113799857D01*
X101607880Y-112847476D02*
X101607880Y-113418904D01*
X101607880Y-113133190D02*
X100607880Y-113133190D01*
X100750738Y-113228428D01*
X100845976Y-113323666D01*
X100893595Y-113418904D01*
X101607880Y-112371285D02*
X101607880Y-112180809D01*
X101560261Y-112085571D01*
X101512642Y-112037952D01*
X101369785Y-111942714D01*
X101179309Y-111895095D01*
X100798357Y-111895095D01*
X100703119Y-111942714D01*
X100655500Y-111990333D01*
X100607880Y-112085571D01*
X100607880Y-112276047D01*
X100655500Y-112371285D01*
X100703119Y-112418904D01*
X100798357Y-112466523D01*
X101036452Y-112466523D01*
X101131690Y-112418904D01*
X101179309Y-112371285D01*
X101226928Y-112276047D01*
X101226928Y-112085571D01*
X101179309Y-111990333D01*
X101131690Y-111942714D01*
X101036452Y-111895095D01*
X106537166Y-120356380D02*
X106537166Y-121070666D01*
X106489547Y-121213523D01*
X106394309Y-121308761D01*
X106251452Y-121356380D01*
X106156214Y-121356380D01*
X106918119Y-120356380D02*
X107584785Y-120356380D01*
X107156214Y-121356380D01*
X102512880Y-121062142D02*
X102512880Y-120490714D01*
X103512880Y-120776428D02*
X102512880Y-120776428D01*
X102512880Y-119966904D02*
X102512880Y-119776428D01*
X102560500Y-119681190D01*
X102655738Y-119585952D01*
X102846214Y-119538333D01*
X103179547Y-119538333D01*
X103370023Y-119585952D01*
X103465261Y-119681190D01*
X103512880Y-119776428D01*
X103512880Y-119966904D01*
X103465261Y-120062142D01*
X103370023Y-120157380D01*
X103179547Y-120205000D01*
X102846214Y-120205000D01*
X102655738Y-120157380D01*
X102560500Y-120062142D01*
X102512880Y-119966904D01*
X103512880Y-119109761D02*
X102512880Y-119109761D01*
X103512880Y-118538333D01*
X102512880Y-118538333D01*
X102989071Y-118062142D02*
X102989071Y-117728809D01*
X103512880Y-117585952D02*
X103512880Y-118062142D01*
X102512880Y-118062142D01*
X102512880Y-117585952D01*
X103608119Y-117395476D02*
X103608119Y-116633571D01*
X103465261Y-116443095D02*
X103512880Y-116300238D01*
X103512880Y-116062142D01*
X103465261Y-115966904D01*
X103417642Y-115919285D01*
X103322404Y-115871666D01*
X103227166Y-115871666D01*
X103131928Y-115919285D01*
X103084309Y-115966904D01*
X103036690Y-116062142D01*
X102989071Y-116252619D01*
X102941452Y-116347857D01*
X102893833Y-116395476D01*
X102798595Y-116443095D01*
X102703357Y-116443095D01*
X102608119Y-116395476D01*
X102560500Y-116347857D01*
X102512880Y-116252619D01*
X102512880Y-116014523D01*
X102560500Y-115871666D01*
X102512880Y-115538333D02*
X103512880Y-115300238D01*
X102798595Y-115109761D01*
X103512880Y-114919285D01*
X102512880Y-114681190D01*
X103512880Y-114300238D02*
X102512880Y-114300238D01*
X102512880Y-113966904D02*
X102512880Y-113395476D01*
X103512880Y-113681190D02*
X102512880Y-113681190D01*
X103417642Y-112490714D02*
X103465261Y-112538333D01*
X103512880Y-112681190D01*
X103512880Y-112776428D01*
X103465261Y-112919285D01*
X103370023Y-113014523D01*
X103274785Y-113062142D01*
X103084309Y-113109761D01*
X102941452Y-113109761D01*
X102750976Y-113062142D01*
X102655738Y-113014523D01*
X102560500Y-112919285D01*
X102512880Y-112776428D01*
X102512880Y-112681190D01*
X102560500Y-112538333D01*
X102608119Y-112490714D01*
X103512880Y-112062142D02*
X102512880Y-112062142D01*
X102989071Y-112062142D02*
X102989071Y-111490714D01*
X103512880Y-111490714D02*
X102512880Y-111490714D01*
X124912380Y-98591666D02*
X124436190Y-98925000D01*
X124912380Y-99163095D02*
X123912380Y-99163095D01*
X123912380Y-98782142D01*
X123960000Y-98686904D01*
X124007619Y-98639285D01*
X124102857Y-98591666D01*
X124245714Y-98591666D01*
X124340952Y-98639285D01*
X124388571Y-98686904D01*
X124436190Y-98782142D01*
X124436190Y-99163095D01*
X123912380Y-98258333D02*
X123912380Y-97591666D01*
X124912380Y-98020238D01*
X62825333Y-102941380D02*
X62349142Y-102941380D01*
X62349142Y-101941380D01*
X63682476Y-102941380D02*
X63111047Y-102941380D01*
X63396761Y-102941380D02*
X63396761Y-101941380D01*
X63301523Y-102084238D01*
X63206285Y-102179476D01*
X63111047Y-102227095D01*
X71826380Y-84812095D02*
X70826380Y-84812095D01*
X70826380Y-84574000D01*
X70874000Y-84431142D01*
X70969238Y-84335904D01*
X71064476Y-84288285D01*
X71254952Y-84240666D01*
X71397809Y-84240666D01*
X71588285Y-84288285D01*
X71683523Y-84335904D01*
X71778761Y-84431142D01*
X71826380Y-84574000D01*
X71826380Y-84812095D01*
X70921619Y-83859714D02*
X70874000Y-83812095D01*
X70826380Y-83716857D01*
X70826380Y-83478761D01*
X70874000Y-83383523D01*
X70921619Y-83335904D01*
X71016857Y-83288285D01*
X71112095Y-83288285D01*
X71254952Y-83335904D01*
X71826380Y-83907333D01*
X71826380Y-83288285D01*
X58364380Y-102115595D02*
X57364380Y-102115595D01*
X57364380Y-101877500D01*
X57412000Y-101734642D01*
X57507238Y-101639404D01*
X57602476Y-101591785D01*
X57792952Y-101544166D01*
X57935809Y-101544166D01*
X58126285Y-101591785D01*
X58221523Y-101639404D01*
X58316761Y-101734642D01*
X58364380Y-101877500D01*
X58364380Y-102115595D01*
X57364380Y-101210833D02*
X57364380Y-100591785D01*
X57745333Y-100925119D01*
X57745333Y-100782261D01*
X57792952Y-100687023D01*
X57840571Y-100639404D01*
X57935809Y-100591785D01*
X58173904Y-100591785D01*
X58269142Y-100639404D01*
X58316761Y-100687023D01*
X58364380Y-100782261D01*
X58364380Y-101067976D01*
X58316761Y-101163214D01*
X58269142Y-101210833D01*
X65238404Y-83510380D02*
X65238404Y-82510380D01*
X65476500Y-82510380D01*
X65619357Y-82558000D01*
X65714595Y-82653238D01*
X65762214Y-82748476D01*
X65809833Y-82938952D01*
X65809833Y-83081809D01*
X65762214Y-83272285D01*
X65714595Y-83367523D01*
X65619357Y-83462761D01*
X65476500Y-83510380D01*
X65238404Y-83510380D01*
X66666976Y-82843714D02*
X66666976Y-83510380D01*
X66428880Y-82462761D02*
X66190785Y-83177047D01*
X66809833Y-83177047D01*
M02*
