G04 #@! TF.GenerationSoftware,KiCad,Pcbnew,5.1.4-e60b266~84~ubuntu18.04.1*
G04 #@! TF.CreationDate,2019-09-15T19:51:56+01:00*
G04 #@! TF.ProjectId,minitiouner-rt5047,6d696e69-7469-46f7-956e-65722d727435,rev?*
G04 #@! TF.SameCoordinates,Original*
G04 #@! TF.FileFunction,Soldermask,Bot*
G04 #@! TF.FilePolarity,Negative*
%FSLAX46Y46*%
G04 Gerber Fmt 4.6, Leading zero omitted, Abs format (unit mm)*
G04 Created by KiCad (PCBNEW 5.1.4-e60b266~84~ubuntu18.04.1) date 2019-09-15 19:51:56*
%MOMM*%
%LPD*%
G04 APERTURE LIST*
%ADD10C,0.100000*%
G04 APERTURE END LIST*
D10*
G36*
X67998547Y-115448326D02*
G01*
X68172156Y-115500990D01*
X68172158Y-115500991D01*
X68332155Y-115586511D01*
X68472397Y-115701603D01*
X68548595Y-115794452D01*
X68587489Y-115841844D01*
X68673010Y-116001843D01*
X68725674Y-116175452D01*
X68739000Y-116310756D01*
X68739000Y-116861243D01*
X68725674Y-116996548D01*
X68673010Y-117170157D01*
X68587489Y-117330156D01*
X68570452Y-117350915D01*
X68472397Y-117470397D01*
X68375729Y-117549729D01*
X68332156Y-117585489D01*
X68172157Y-117671010D01*
X67998548Y-117723674D01*
X67818000Y-117741456D01*
X67637453Y-117723674D01*
X67463844Y-117671010D01*
X67303845Y-117585489D01*
X67260272Y-117549729D01*
X67163604Y-117470397D01*
X67048513Y-117330157D01*
X67048512Y-117330155D01*
X66962990Y-117170157D01*
X66910326Y-116996548D01*
X66897000Y-116861244D01*
X66897000Y-116310757D01*
X66910326Y-116175453D01*
X66962990Y-116001844D01*
X67048511Y-115841845D01*
X67048512Y-115841844D01*
X67163603Y-115701603D01*
X67260271Y-115622271D01*
X67303844Y-115586511D01*
X67463843Y-115500990D01*
X67637452Y-115448326D01*
X67818000Y-115430544D01*
X67998547Y-115448326D01*
X67998547Y-115448326D01*
G37*
G36*
X50218547Y-115448326D02*
G01*
X50392156Y-115500990D01*
X50392158Y-115500991D01*
X50552155Y-115586511D01*
X50692397Y-115701603D01*
X50768595Y-115794452D01*
X50807489Y-115841844D01*
X50893010Y-116001843D01*
X50945674Y-116175452D01*
X50959000Y-116310756D01*
X50959000Y-116861243D01*
X50945674Y-116996548D01*
X50893010Y-117170157D01*
X50807489Y-117330156D01*
X50790452Y-117350915D01*
X50692397Y-117470397D01*
X50595729Y-117549729D01*
X50552156Y-117585489D01*
X50392157Y-117671010D01*
X50218548Y-117723674D01*
X50038000Y-117741456D01*
X49857453Y-117723674D01*
X49683844Y-117671010D01*
X49523845Y-117585489D01*
X49480272Y-117549729D01*
X49383604Y-117470397D01*
X49268513Y-117330157D01*
X49268512Y-117330155D01*
X49182990Y-117170157D01*
X49130326Y-116996548D01*
X49117000Y-116861244D01*
X49117000Y-116310757D01*
X49130326Y-116175453D01*
X49182990Y-116001844D01*
X49268511Y-115841845D01*
X49268512Y-115841844D01*
X49383603Y-115701603D01*
X49480271Y-115622271D01*
X49523844Y-115586511D01*
X49683843Y-115500990D01*
X49857452Y-115448326D01*
X50038000Y-115430544D01*
X50218547Y-115448326D01*
X50218547Y-115448326D01*
G37*
G36*
X59108547Y-115448326D02*
G01*
X59282156Y-115500990D01*
X59282158Y-115500991D01*
X59442155Y-115586511D01*
X59582397Y-115701603D01*
X59658595Y-115794452D01*
X59697489Y-115841844D01*
X59783010Y-116001843D01*
X59835674Y-116175452D01*
X59849000Y-116310756D01*
X59849000Y-116861243D01*
X59835674Y-116996548D01*
X59783010Y-117170157D01*
X59697489Y-117330156D01*
X59680452Y-117350915D01*
X59582397Y-117470397D01*
X59485729Y-117549729D01*
X59442156Y-117585489D01*
X59282157Y-117671010D01*
X59108548Y-117723674D01*
X58928000Y-117741456D01*
X58747453Y-117723674D01*
X58573844Y-117671010D01*
X58413845Y-117585489D01*
X58370272Y-117549729D01*
X58273604Y-117470397D01*
X58158513Y-117330157D01*
X58158512Y-117330155D01*
X58072990Y-117170157D01*
X58020326Y-116996548D01*
X58007000Y-116861244D01*
X58007000Y-116310757D01*
X58020326Y-116175453D01*
X58072990Y-116001844D01*
X58158511Y-115841845D01*
X58158512Y-115841844D01*
X58273603Y-115701603D01*
X58370271Y-115622271D01*
X58413844Y-115586511D01*
X58573843Y-115500990D01*
X58747452Y-115448326D01*
X58928000Y-115430544D01*
X59108547Y-115448326D01*
X59108547Y-115448326D01*
G37*
G36*
X48277561Y-115438966D02*
G01*
X48310383Y-115448923D01*
X48340632Y-115465092D01*
X48367148Y-115486852D01*
X48388908Y-115513368D01*
X48405077Y-115543617D01*
X48415034Y-115576439D01*
X48419000Y-115616713D01*
X48419000Y-117555287D01*
X48415034Y-117595561D01*
X48405077Y-117628383D01*
X48388908Y-117658632D01*
X48367148Y-117685148D01*
X48340632Y-117706908D01*
X48310383Y-117723077D01*
X48277561Y-117733034D01*
X48237287Y-117737000D01*
X46758713Y-117737000D01*
X46718439Y-117733034D01*
X46685617Y-117723077D01*
X46655368Y-117706908D01*
X46628852Y-117685148D01*
X46607092Y-117658632D01*
X46590923Y-117628383D01*
X46580966Y-117595561D01*
X46577000Y-117555287D01*
X46577000Y-115616713D01*
X46580966Y-115576439D01*
X46590923Y-115543617D01*
X46607092Y-115513368D01*
X46628852Y-115486852D01*
X46655368Y-115465092D01*
X46685617Y-115448923D01*
X46718439Y-115438966D01*
X46758713Y-115435000D01*
X48237287Y-115435000D01*
X48277561Y-115438966D01*
X48277561Y-115438966D01*
G37*
G36*
X66057561Y-115438966D02*
G01*
X66090383Y-115448923D01*
X66120632Y-115465092D01*
X66147148Y-115486852D01*
X66168908Y-115513368D01*
X66185077Y-115543617D01*
X66195034Y-115576439D01*
X66199000Y-115616713D01*
X66199000Y-117555287D01*
X66195034Y-117595561D01*
X66185077Y-117628383D01*
X66168908Y-117658632D01*
X66147148Y-117685148D01*
X66120632Y-117706908D01*
X66090383Y-117723077D01*
X66057561Y-117733034D01*
X66017287Y-117737000D01*
X64538713Y-117737000D01*
X64498439Y-117733034D01*
X64465617Y-117723077D01*
X64435368Y-117706908D01*
X64408852Y-117685148D01*
X64387092Y-117658632D01*
X64370923Y-117628383D01*
X64360966Y-117595561D01*
X64357000Y-117555287D01*
X64357000Y-115616713D01*
X64360966Y-115576439D01*
X64370923Y-115543617D01*
X64387092Y-115513368D01*
X64408852Y-115486852D01*
X64435368Y-115465092D01*
X64465617Y-115448923D01*
X64498439Y-115438966D01*
X64538713Y-115435000D01*
X66017287Y-115435000D01*
X66057561Y-115438966D01*
X66057561Y-115438966D01*
G37*
G36*
X57167561Y-115438966D02*
G01*
X57200383Y-115448923D01*
X57230632Y-115465092D01*
X57257148Y-115486852D01*
X57278908Y-115513368D01*
X57295077Y-115543617D01*
X57305034Y-115576439D01*
X57309000Y-115616713D01*
X57309000Y-117555287D01*
X57305034Y-117595561D01*
X57295077Y-117628383D01*
X57278908Y-117658632D01*
X57257148Y-117685148D01*
X57230632Y-117706908D01*
X57200383Y-117723077D01*
X57167561Y-117733034D01*
X57127287Y-117737000D01*
X55648713Y-117737000D01*
X55608439Y-117733034D01*
X55575617Y-117723077D01*
X55545368Y-117706908D01*
X55518852Y-117685148D01*
X55497092Y-117658632D01*
X55480923Y-117628383D01*
X55470966Y-117595561D01*
X55467000Y-117555287D01*
X55467000Y-115616713D01*
X55470966Y-115576439D01*
X55480923Y-115543617D01*
X55497092Y-115513368D01*
X55518852Y-115486852D01*
X55545368Y-115465092D01*
X55575617Y-115448923D01*
X55608439Y-115438966D01*
X55648713Y-115435000D01*
X57127287Y-115435000D01*
X57167561Y-115438966D01*
X57167561Y-115438966D01*
G37*
G36*
X133086047Y-115067326D02*
G01*
X133259656Y-115119990D01*
X133259658Y-115119991D01*
X133419655Y-115205511D01*
X133559897Y-115320603D01*
X133639229Y-115417271D01*
X133674989Y-115460844D01*
X133719232Y-115543617D01*
X133758303Y-115616713D01*
X133760510Y-115620843D01*
X133813174Y-115794452D01*
X133826500Y-115929756D01*
X133826500Y-116480243D01*
X133813174Y-116615548D01*
X133760510Y-116789157D01*
X133674989Y-116949156D01*
X133639229Y-116992729D01*
X133559897Y-117089397D01*
X133463229Y-117168729D01*
X133419656Y-117204489D01*
X133259657Y-117290010D01*
X133086048Y-117342674D01*
X132905500Y-117360456D01*
X132724953Y-117342674D01*
X132551344Y-117290010D01*
X132391345Y-117204489D01*
X132347772Y-117168729D01*
X132251104Y-117089397D01*
X132136013Y-116949157D01*
X132136012Y-116949155D01*
X132050490Y-116789157D01*
X131997826Y-116615548D01*
X131984500Y-116480244D01*
X131984500Y-115929757D01*
X131997826Y-115794453D01*
X132050490Y-115620844D01*
X132136011Y-115460845D01*
X132153048Y-115440085D01*
X132251103Y-115320603D01*
X132376888Y-115217375D01*
X132391344Y-115205511D01*
X132551343Y-115119990D01*
X132724952Y-115067326D01*
X132905500Y-115049544D01*
X133086047Y-115067326D01*
X133086047Y-115067326D01*
G37*
G36*
X118036547Y-115067326D02*
G01*
X118210156Y-115119990D01*
X118210158Y-115119991D01*
X118370155Y-115205511D01*
X118510397Y-115320603D01*
X118589729Y-115417271D01*
X118625489Y-115460844D01*
X118669732Y-115543617D01*
X118708803Y-115616713D01*
X118711010Y-115620843D01*
X118763674Y-115794452D01*
X118777000Y-115929756D01*
X118777000Y-116480243D01*
X118763674Y-116615548D01*
X118711010Y-116789157D01*
X118625489Y-116949156D01*
X118589729Y-116992729D01*
X118510397Y-117089397D01*
X118413729Y-117168729D01*
X118370156Y-117204489D01*
X118210157Y-117290010D01*
X118036548Y-117342674D01*
X117856000Y-117360456D01*
X117675453Y-117342674D01*
X117501844Y-117290010D01*
X117341845Y-117204489D01*
X117298272Y-117168729D01*
X117201604Y-117089397D01*
X117086513Y-116949157D01*
X117086512Y-116949155D01*
X117000990Y-116789157D01*
X116948326Y-116615548D01*
X116935000Y-116480244D01*
X116935000Y-115929757D01*
X116948326Y-115794453D01*
X117000990Y-115620844D01*
X117086511Y-115460845D01*
X117103548Y-115440085D01*
X117201603Y-115320603D01*
X117327388Y-115217375D01*
X117341844Y-115205511D01*
X117501843Y-115119990D01*
X117675452Y-115067326D01*
X117856000Y-115049544D01*
X118036547Y-115067326D01*
X118036547Y-115067326D01*
G37*
G36*
X95938547Y-115067326D02*
G01*
X96112156Y-115119990D01*
X96112158Y-115119991D01*
X96272155Y-115205511D01*
X96412397Y-115320603D01*
X96491729Y-115417271D01*
X96527489Y-115460844D01*
X96571732Y-115543617D01*
X96610803Y-115616713D01*
X96613010Y-115620843D01*
X96665674Y-115794452D01*
X96679000Y-115929756D01*
X96679000Y-116480243D01*
X96665674Y-116615548D01*
X96613010Y-116789157D01*
X96527489Y-116949156D01*
X96491729Y-116992729D01*
X96412397Y-117089397D01*
X96315729Y-117168729D01*
X96272156Y-117204489D01*
X96112157Y-117290010D01*
X95938548Y-117342674D01*
X95758000Y-117360456D01*
X95577453Y-117342674D01*
X95403844Y-117290010D01*
X95243845Y-117204489D01*
X95200272Y-117168729D01*
X95103604Y-117089397D01*
X94988513Y-116949157D01*
X94988512Y-116949155D01*
X94902990Y-116789157D01*
X94850326Y-116615548D01*
X94837000Y-116480244D01*
X94837000Y-115929757D01*
X94850326Y-115794453D01*
X94902990Y-115620844D01*
X94988511Y-115460845D01*
X95005548Y-115440085D01*
X95103603Y-115320603D01*
X95229388Y-115217375D01*
X95243844Y-115205511D01*
X95403843Y-115119990D01*
X95577452Y-115067326D01*
X95758000Y-115049544D01*
X95938547Y-115067326D01*
X95938547Y-115067326D01*
G37*
G36*
X98478547Y-115067326D02*
G01*
X98652156Y-115119990D01*
X98652158Y-115119991D01*
X98812155Y-115205511D01*
X98952397Y-115320603D01*
X99031729Y-115417271D01*
X99067489Y-115460844D01*
X99111732Y-115543617D01*
X99150803Y-115616713D01*
X99153010Y-115620843D01*
X99205674Y-115794452D01*
X99219000Y-115929756D01*
X99219000Y-116480243D01*
X99205674Y-116615548D01*
X99153010Y-116789157D01*
X99067489Y-116949156D01*
X99031729Y-116992729D01*
X98952397Y-117089397D01*
X98855729Y-117168729D01*
X98812156Y-117204489D01*
X98652157Y-117290010D01*
X98478548Y-117342674D01*
X98298000Y-117360456D01*
X98117453Y-117342674D01*
X97943844Y-117290010D01*
X97783845Y-117204489D01*
X97740272Y-117168729D01*
X97643604Y-117089397D01*
X97528513Y-116949157D01*
X97528512Y-116949155D01*
X97442990Y-116789157D01*
X97390326Y-116615548D01*
X97377000Y-116480244D01*
X97377000Y-115929757D01*
X97390326Y-115794453D01*
X97442990Y-115620844D01*
X97528511Y-115460845D01*
X97545548Y-115440085D01*
X97643603Y-115320603D01*
X97769388Y-115217375D01*
X97783844Y-115205511D01*
X97943843Y-115119990D01*
X98117452Y-115067326D01*
X98298000Y-115049544D01*
X98478547Y-115067326D01*
X98478547Y-115067326D01*
G37*
G36*
X130546047Y-115067326D02*
G01*
X130719656Y-115119990D01*
X130719658Y-115119991D01*
X130879655Y-115205511D01*
X131019897Y-115320603D01*
X131099229Y-115417271D01*
X131134989Y-115460844D01*
X131179232Y-115543617D01*
X131218303Y-115616713D01*
X131220510Y-115620843D01*
X131273174Y-115794452D01*
X131286500Y-115929756D01*
X131286500Y-116480243D01*
X131273174Y-116615548D01*
X131220510Y-116789157D01*
X131134989Y-116949156D01*
X131099229Y-116992729D01*
X131019897Y-117089397D01*
X130923229Y-117168729D01*
X130879656Y-117204489D01*
X130719657Y-117290010D01*
X130546048Y-117342674D01*
X130365500Y-117360456D01*
X130184953Y-117342674D01*
X130011344Y-117290010D01*
X129851345Y-117204489D01*
X129807772Y-117168729D01*
X129711104Y-117089397D01*
X129596013Y-116949157D01*
X129596012Y-116949155D01*
X129510490Y-116789157D01*
X129457826Y-116615548D01*
X129444500Y-116480244D01*
X129444500Y-115929757D01*
X129457826Y-115794453D01*
X129510490Y-115620844D01*
X129596011Y-115460845D01*
X129613048Y-115440085D01*
X129711103Y-115320603D01*
X129836888Y-115217375D01*
X129851344Y-115205511D01*
X130011343Y-115119990D01*
X130184952Y-115067326D01*
X130365500Y-115049544D01*
X130546047Y-115067326D01*
X130546047Y-115067326D01*
G37*
G36*
X108321047Y-115067326D02*
G01*
X108494656Y-115119990D01*
X108494658Y-115119991D01*
X108654655Y-115205511D01*
X108794897Y-115320603D01*
X108874229Y-115417271D01*
X108909989Y-115460844D01*
X108954232Y-115543617D01*
X108993303Y-115616713D01*
X108995510Y-115620843D01*
X109048174Y-115794452D01*
X109061500Y-115929756D01*
X109061500Y-116480243D01*
X109048174Y-116615548D01*
X108995510Y-116789157D01*
X108909989Y-116949156D01*
X108874229Y-116992729D01*
X108794897Y-117089397D01*
X108698229Y-117168729D01*
X108654656Y-117204489D01*
X108494657Y-117290010D01*
X108321048Y-117342674D01*
X108140500Y-117360456D01*
X107959953Y-117342674D01*
X107786344Y-117290010D01*
X107626345Y-117204489D01*
X107582772Y-117168729D01*
X107486104Y-117089397D01*
X107371013Y-116949157D01*
X107371012Y-116949155D01*
X107285490Y-116789157D01*
X107232826Y-116615548D01*
X107219500Y-116480244D01*
X107219500Y-115929757D01*
X107232826Y-115794453D01*
X107285490Y-115620844D01*
X107371011Y-115460845D01*
X107388048Y-115440085D01*
X107486103Y-115320603D01*
X107611888Y-115217375D01*
X107626344Y-115205511D01*
X107786343Y-115119990D01*
X107959952Y-115067326D01*
X108140500Y-115049544D01*
X108321047Y-115067326D01*
X108321047Y-115067326D01*
G37*
G36*
X128006047Y-115067326D02*
G01*
X128179656Y-115119990D01*
X128179658Y-115119991D01*
X128339655Y-115205511D01*
X128479897Y-115320603D01*
X128559229Y-115417271D01*
X128594989Y-115460844D01*
X128639232Y-115543617D01*
X128678303Y-115616713D01*
X128680510Y-115620843D01*
X128733174Y-115794452D01*
X128746500Y-115929756D01*
X128746500Y-116480243D01*
X128733174Y-116615548D01*
X128680510Y-116789157D01*
X128594989Y-116949156D01*
X128559229Y-116992729D01*
X128479897Y-117089397D01*
X128383229Y-117168729D01*
X128339656Y-117204489D01*
X128179657Y-117290010D01*
X128006048Y-117342674D01*
X127825500Y-117360456D01*
X127644953Y-117342674D01*
X127471344Y-117290010D01*
X127311345Y-117204489D01*
X127267772Y-117168729D01*
X127171104Y-117089397D01*
X127056013Y-116949157D01*
X127056012Y-116949155D01*
X126970490Y-116789157D01*
X126917826Y-116615548D01*
X126904500Y-116480244D01*
X126904500Y-115929757D01*
X126917826Y-115794453D01*
X126970490Y-115620844D01*
X127056011Y-115460845D01*
X127073048Y-115440085D01*
X127171103Y-115320603D01*
X127296888Y-115217375D01*
X127311344Y-115205511D01*
X127471343Y-115119990D01*
X127644952Y-115067326D01*
X127825500Y-115049544D01*
X128006047Y-115067326D01*
X128006047Y-115067326D01*
G37*
G36*
X116095561Y-115057966D02*
G01*
X116128383Y-115067923D01*
X116158632Y-115084092D01*
X116185148Y-115105852D01*
X116206908Y-115132368D01*
X116223077Y-115162617D01*
X116233034Y-115195439D01*
X116237000Y-115235713D01*
X116237000Y-117174287D01*
X116233034Y-117214561D01*
X116223077Y-117247383D01*
X116206908Y-117277632D01*
X116185148Y-117304148D01*
X116158632Y-117325908D01*
X116128383Y-117342077D01*
X116095561Y-117352034D01*
X116055287Y-117356000D01*
X114576713Y-117356000D01*
X114536439Y-117352034D01*
X114503617Y-117342077D01*
X114473368Y-117325908D01*
X114446852Y-117304148D01*
X114425092Y-117277632D01*
X114408923Y-117247383D01*
X114398966Y-117214561D01*
X114395000Y-117174287D01*
X114395000Y-115235713D01*
X114398966Y-115195439D01*
X114408923Y-115162617D01*
X114425092Y-115132368D01*
X114446852Y-115105852D01*
X114473368Y-115084092D01*
X114503617Y-115067923D01*
X114536439Y-115057966D01*
X114576713Y-115054000D01*
X116055287Y-115054000D01*
X116095561Y-115057966D01*
X116095561Y-115057966D01*
G37*
G36*
X93997561Y-115057966D02*
G01*
X94030383Y-115067923D01*
X94060632Y-115084092D01*
X94087148Y-115105852D01*
X94108908Y-115132368D01*
X94125077Y-115162617D01*
X94135034Y-115195439D01*
X94139000Y-115235713D01*
X94139000Y-117174287D01*
X94135034Y-117214561D01*
X94125077Y-117247383D01*
X94108908Y-117277632D01*
X94087148Y-117304148D01*
X94060632Y-117325908D01*
X94030383Y-117342077D01*
X93997561Y-117352034D01*
X93957287Y-117356000D01*
X92478713Y-117356000D01*
X92438439Y-117352034D01*
X92405617Y-117342077D01*
X92375368Y-117325908D01*
X92348852Y-117304148D01*
X92327092Y-117277632D01*
X92310923Y-117247383D01*
X92300966Y-117214561D01*
X92297000Y-117174287D01*
X92297000Y-115235713D01*
X92300966Y-115195439D01*
X92310923Y-115162617D01*
X92327092Y-115132368D01*
X92348852Y-115105852D01*
X92375368Y-115084092D01*
X92405617Y-115067923D01*
X92438439Y-115057966D01*
X92478713Y-115054000D01*
X93957287Y-115054000D01*
X93997561Y-115057966D01*
X93997561Y-115057966D01*
G37*
G36*
X126065061Y-115057966D02*
G01*
X126097883Y-115067923D01*
X126128132Y-115084092D01*
X126154648Y-115105852D01*
X126176408Y-115132368D01*
X126192577Y-115162617D01*
X126202534Y-115195439D01*
X126206500Y-115235713D01*
X126206500Y-117174287D01*
X126202534Y-117214561D01*
X126192577Y-117247383D01*
X126176408Y-117277632D01*
X126154648Y-117304148D01*
X126128132Y-117325908D01*
X126097883Y-117342077D01*
X126065061Y-117352034D01*
X126024787Y-117356000D01*
X124546213Y-117356000D01*
X124505939Y-117352034D01*
X124473117Y-117342077D01*
X124442868Y-117325908D01*
X124416352Y-117304148D01*
X124394592Y-117277632D01*
X124378423Y-117247383D01*
X124368466Y-117214561D01*
X124364500Y-117174287D01*
X124364500Y-115235713D01*
X124368466Y-115195439D01*
X124378423Y-115162617D01*
X124394592Y-115132368D01*
X124416352Y-115105852D01*
X124442868Y-115084092D01*
X124473117Y-115067923D01*
X124505939Y-115057966D01*
X124546213Y-115054000D01*
X126024787Y-115054000D01*
X126065061Y-115057966D01*
X126065061Y-115057966D01*
G37*
G36*
X106380061Y-115057966D02*
G01*
X106412883Y-115067923D01*
X106443132Y-115084092D01*
X106469648Y-115105852D01*
X106491408Y-115132368D01*
X106507577Y-115162617D01*
X106517534Y-115195439D01*
X106521500Y-115235713D01*
X106521500Y-117174287D01*
X106517534Y-117214561D01*
X106507577Y-117247383D01*
X106491408Y-117277632D01*
X106469648Y-117304148D01*
X106443132Y-117325908D01*
X106412883Y-117342077D01*
X106380061Y-117352034D01*
X106339787Y-117356000D01*
X104861213Y-117356000D01*
X104820939Y-117352034D01*
X104788117Y-117342077D01*
X104757868Y-117325908D01*
X104731352Y-117304148D01*
X104709592Y-117277632D01*
X104693423Y-117247383D01*
X104683466Y-117214561D01*
X104679500Y-117174287D01*
X104679500Y-115235713D01*
X104683466Y-115195439D01*
X104693423Y-115162617D01*
X104709592Y-115132368D01*
X104731352Y-115105852D01*
X104757868Y-115084092D01*
X104788117Y-115067923D01*
X104820939Y-115057966D01*
X104861213Y-115054000D01*
X106339787Y-115054000D01*
X106380061Y-115057966D01*
X106380061Y-115057966D01*
G37*
M02*
