M48
; DRILL file {KiCad 5.1.4-e60b266~84~ubuntu18.04.1} date Sun 15 Sep 2019 19:51:49 BST
; FORMAT={-:-/ absolute / inch / decimal}
; #@! TF.CreationDate,2019-09-15T19:51:49+01:00
; #@! TF.GenerationSoftware,Kicad,Pcbnew,5.1.4-e60b266~84~ubuntu18.04.1
; #@! TF.FileFunction,Plated,1,2,PTH
FMAT,2
INCH
T1C0.0118
T2C0.0157
T3C0.0236
T4C0.0472
%
G90
G05
T1
X2.7372Y-3.7028
X2.7372Y-3.7402
X2.7372Y-3.7776
X2.7746Y-3.7028
X2.7746Y-3.7402
X2.7746Y-3.7776
T2
X2.035Y-4.115
X2.325Y-3.495
X2.365Y-3.46
X2.405Y-3.495
X2.445Y-3.46
X2.485Y-3.495
X2.525Y-3.46
X2.565Y-3.495
X2.61Y-3.46
X2.62Y-3.505
X3.0248Y-3.7152
X3.0248Y-3.7652
X3.0248Y-3.8152
X3.025Y-3.665
X3.035Y-4.3
X3.2375Y-3.665
X3.34Y-4.35
X3.35Y-3.715
X3.4125Y-3.715
X3.5625Y-3.715
X3.6223Y-3.8152
X3.6225Y-3.765
X3.6975Y-3.715
X3.77Y-4.11
X3.7725Y-3.665
X4.3625Y-4.205
X4.75Y-4.35
T3
X2.01Y-3.7775
X2.0875Y-3.7775
X2.1625Y-3.7775
T4
X2.57Y-4.59
X2.67Y-4.59
X2.22Y-4.59
X2.32Y-4.59
X4.9325Y-4.575
X5.0325Y-4.575
X5.1325Y-4.575
X5.2325Y-4.575
X3.67Y-4.575
X3.77Y-4.575
X3.87Y-4.575
X1.87Y-4.59
X1.97Y-4.59
X4.1575Y-4.575
X4.2575Y-4.575
X4.54Y-4.575
X4.64Y-4.575
T0
M30
