G04 #@! TF.GenerationSoftware,KiCad,Pcbnew,5.1.4-e60b266~84~ubuntu18.04.1*
G04 #@! TF.CreationDate,2019-09-15T19:51:56+01:00*
G04 #@! TF.ProjectId,minitiouner-rt5047,6d696e69-7469-46f7-956e-65722d727435,rev?*
G04 #@! TF.SameCoordinates,Original*
G04 #@! TF.FileFunction,Copper,L1,Top*
G04 #@! TF.FilePolarity,Positive*
%FSLAX46Y46*%
G04 Gerber Fmt 4.6, Leading zero omitted, Abs format (unit mm)*
G04 Created by KiCad (PCBNEW 5.1.4-e60b266~84~ubuntu18.04.1) date 2019-09-15 19:51:56*
%MOMM*%
%LPD*%
G04 APERTURE LIST*
%ADD10R,1.000000X0.950000*%
%ADD11R,1.450000X1.150000*%
%ADD12R,1.150000X1.450000*%
%ADD13R,0.950000X1.000000*%
%ADD14R,3.300000X2.500000*%
%ADD15R,0.600000X1.000000*%
%ADD16R,1.550000X0.600000*%
%ADD17C,0.650000*%
%ADD18R,2.400000X3.100000*%
%ADD19C,0.100000*%
%ADD20C,1.740000*%
%ADD21O,1.740000X2.200000*%
%ADD22R,0.900000X0.800000*%
%ADD23R,1.500000X1.000000*%
%ADD24R,5.100000X2.350000*%
%ADD25R,1.700000X2.500000*%
%ADD26R,2.500000X1.700000*%
%ADD27C,0.800000*%
%ADD28C,1.200000*%
%ADD29C,1.000000*%
%ADD30C,2.000000*%
%ADD31C,0.750000*%
%ADD32C,0.254000*%
G04 APERTURE END LIST*
D10*
X77216000Y-111468000D03*
X77216000Y-113068000D03*
D11*
X65151000Y-90540000D03*
X65151000Y-92340000D03*
X63119000Y-92340000D03*
X63119000Y-90540000D03*
X61087000Y-90540000D03*
X61087000Y-92340000D03*
X59055000Y-92340000D03*
X59055000Y-90540000D03*
D12*
X69195520Y-100319840D03*
X67395520Y-100319840D03*
D13*
X56972000Y-109220000D03*
X55372000Y-109220000D03*
D10*
X68834000Y-89878000D03*
X68834000Y-91478000D03*
X83312000Y-113068000D03*
X83312000Y-111468000D03*
D12*
X67395520Y-102422960D03*
X69195520Y-102422960D03*
D13*
X69192040Y-98531680D03*
X67592040Y-98531680D03*
X56972000Y-112268000D03*
X55372000Y-112268000D03*
D14*
X76644500Y-83672000D03*
X76644500Y-90572000D03*
D15*
X81214000Y-110610000D03*
X79314000Y-110610000D03*
X80264000Y-112910000D03*
D16*
X67300000Y-93095000D03*
X67300000Y-94365000D03*
X67300000Y-95635000D03*
X67300000Y-96905000D03*
X72700000Y-96905000D03*
X72700000Y-95635000D03*
X72700000Y-94365000D03*
X72700000Y-93095000D03*
D17*
X69525000Y-94050000D03*
X69525000Y-95000000D03*
X69525000Y-95950000D03*
X70475000Y-94050000D03*
X70475000Y-95000000D03*
X70475000Y-95950000D03*
D18*
X70000000Y-95000000D03*
D10*
X95821500Y-91605000D03*
X95821500Y-90005000D03*
X93916500Y-89979500D03*
X93916500Y-91579500D03*
X92011500Y-98450500D03*
X92011500Y-100050500D03*
X92011500Y-91605000D03*
X92011500Y-90005000D03*
X128651000Y-100228500D03*
X128651000Y-101828500D03*
D19*
G36*
X48142505Y-115487204D02*
G01*
X48166773Y-115490804D01*
X48190572Y-115496765D01*
X48213671Y-115505030D01*
X48235850Y-115515520D01*
X48256893Y-115528132D01*
X48276599Y-115542747D01*
X48294777Y-115559223D01*
X48311253Y-115577401D01*
X48325868Y-115597107D01*
X48338480Y-115618150D01*
X48348970Y-115640329D01*
X48357235Y-115663428D01*
X48363196Y-115687227D01*
X48366796Y-115711495D01*
X48368000Y-115735999D01*
X48368000Y-117436001D01*
X48366796Y-117460505D01*
X48363196Y-117484773D01*
X48357235Y-117508572D01*
X48348970Y-117531671D01*
X48338480Y-117553850D01*
X48325868Y-117574893D01*
X48311253Y-117594599D01*
X48294777Y-117612777D01*
X48276599Y-117629253D01*
X48256893Y-117643868D01*
X48235850Y-117656480D01*
X48213671Y-117666970D01*
X48190572Y-117675235D01*
X48166773Y-117681196D01*
X48142505Y-117684796D01*
X48118001Y-117686000D01*
X46877999Y-117686000D01*
X46853495Y-117684796D01*
X46829227Y-117681196D01*
X46805428Y-117675235D01*
X46782329Y-117666970D01*
X46760150Y-117656480D01*
X46739107Y-117643868D01*
X46719401Y-117629253D01*
X46701223Y-117612777D01*
X46684747Y-117594599D01*
X46670132Y-117574893D01*
X46657520Y-117553850D01*
X46647030Y-117531671D01*
X46638765Y-117508572D01*
X46632804Y-117484773D01*
X46629204Y-117460505D01*
X46628000Y-117436001D01*
X46628000Y-115735999D01*
X46629204Y-115711495D01*
X46632804Y-115687227D01*
X46638765Y-115663428D01*
X46647030Y-115640329D01*
X46657520Y-115618150D01*
X46670132Y-115597107D01*
X46684747Y-115577401D01*
X46701223Y-115559223D01*
X46719401Y-115542747D01*
X46739107Y-115528132D01*
X46760150Y-115515520D01*
X46782329Y-115505030D01*
X46805428Y-115496765D01*
X46829227Y-115490804D01*
X46853495Y-115487204D01*
X46877999Y-115486000D01*
X48118001Y-115486000D01*
X48142505Y-115487204D01*
X48142505Y-115487204D01*
G37*
D20*
X47498000Y-116586000D03*
D21*
X50038000Y-116586000D03*
X58928000Y-116586000D03*
D19*
G36*
X57032505Y-115487204D02*
G01*
X57056773Y-115490804D01*
X57080572Y-115496765D01*
X57103671Y-115505030D01*
X57125850Y-115515520D01*
X57146893Y-115528132D01*
X57166599Y-115542747D01*
X57184777Y-115559223D01*
X57201253Y-115577401D01*
X57215868Y-115597107D01*
X57228480Y-115618150D01*
X57238970Y-115640329D01*
X57247235Y-115663428D01*
X57253196Y-115687227D01*
X57256796Y-115711495D01*
X57258000Y-115735999D01*
X57258000Y-117436001D01*
X57256796Y-117460505D01*
X57253196Y-117484773D01*
X57247235Y-117508572D01*
X57238970Y-117531671D01*
X57228480Y-117553850D01*
X57215868Y-117574893D01*
X57201253Y-117594599D01*
X57184777Y-117612777D01*
X57166599Y-117629253D01*
X57146893Y-117643868D01*
X57125850Y-117656480D01*
X57103671Y-117666970D01*
X57080572Y-117675235D01*
X57056773Y-117681196D01*
X57032505Y-117684796D01*
X57008001Y-117686000D01*
X55767999Y-117686000D01*
X55743495Y-117684796D01*
X55719227Y-117681196D01*
X55695428Y-117675235D01*
X55672329Y-117666970D01*
X55650150Y-117656480D01*
X55629107Y-117643868D01*
X55609401Y-117629253D01*
X55591223Y-117612777D01*
X55574747Y-117594599D01*
X55560132Y-117574893D01*
X55547520Y-117553850D01*
X55537030Y-117531671D01*
X55528765Y-117508572D01*
X55522804Y-117484773D01*
X55519204Y-117460505D01*
X55518000Y-117436001D01*
X55518000Y-115735999D01*
X55519204Y-115711495D01*
X55522804Y-115687227D01*
X55528765Y-115663428D01*
X55537030Y-115640329D01*
X55547520Y-115618150D01*
X55560132Y-115597107D01*
X55574747Y-115577401D01*
X55591223Y-115559223D01*
X55609401Y-115542747D01*
X55629107Y-115528132D01*
X55650150Y-115515520D01*
X55672329Y-115505030D01*
X55695428Y-115496765D01*
X55719227Y-115490804D01*
X55743495Y-115487204D01*
X55767999Y-115486000D01*
X57008001Y-115486000D01*
X57032505Y-115487204D01*
X57032505Y-115487204D01*
G37*
D20*
X56388000Y-116586000D03*
D19*
G36*
X115960505Y-115106204D02*
G01*
X115984773Y-115109804D01*
X116008572Y-115115765D01*
X116031671Y-115124030D01*
X116053850Y-115134520D01*
X116074893Y-115147132D01*
X116094599Y-115161747D01*
X116112777Y-115178223D01*
X116129253Y-115196401D01*
X116143868Y-115216107D01*
X116156480Y-115237150D01*
X116166970Y-115259329D01*
X116175235Y-115282428D01*
X116181196Y-115306227D01*
X116184796Y-115330495D01*
X116186000Y-115354999D01*
X116186000Y-117055001D01*
X116184796Y-117079505D01*
X116181196Y-117103773D01*
X116175235Y-117127572D01*
X116166970Y-117150671D01*
X116156480Y-117172850D01*
X116143868Y-117193893D01*
X116129253Y-117213599D01*
X116112777Y-117231777D01*
X116094599Y-117248253D01*
X116074893Y-117262868D01*
X116053850Y-117275480D01*
X116031671Y-117285970D01*
X116008572Y-117294235D01*
X115984773Y-117300196D01*
X115960505Y-117303796D01*
X115936001Y-117305000D01*
X114695999Y-117305000D01*
X114671495Y-117303796D01*
X114647227Y-117300196D01*
X114623428Y-117294235D01*
X114600329Y-117285970D01*
X114578150Y-117275480D01*
X114557107Y-117262868D01*
X114537401Y-117248253D01*
X114519223Y-117231777D01*
X114502747Y-117213599D01*
X114488132Y-117193893D01*
X114475520Y-117172850D01*
X114465030Y-117150671D01*
X114456765Y-117127572D01*
X114450804Y-117103773D01*
X114447204Y-117079505D01*
X114446000Y-117055001D01*
X114446000Y-115354999D01*
X114447204Y-115330495D01*
X114450804Y-115306227D01*
X114456765Y-115282428D01*
X114465030Y-115259329D01*
X114475520Y-115237150D01*
X114488132Y-115216107D01*
X114502747Y-115196401D01*
X114519223Y-115178223D01*
X114537401Y-115161747D01*
X114557107Y-115147132D01*
X114578150Y-115134520D01*
X114600329Y-115124030D01*
X114623428Y-115115765D01*
X114647227Y-115109804D01*
X114671495Y-115106204D01*
X114695999Y-115105000D01*
X115936001Y-115105000D01*
X115960505Y-115106204D01*
X115960505Y-115106204D01*
G37*
D20*
X115316000Y-116205000D03*
D21*
X117856000Y-116205000D03*
D19*
G36*
X93862505Y-115106204D02*
G01*
X93886773Y-115109804D01*
X93910572Y-115115765D01*
X93933671Y-115124030D01*
X93955850Y-115134520D01*
X93976893Y-115147132D01*
X93996599Y-115161747D01*
X94014777Y-115178223D01*
X94031253Y-115196401D01*
X94045868Y-115216107D01*
X94058480Y-115237150D01*
X94068970Y-115259329D01*
X94077235Y-115282428D01*
X94083196Y-115306227D01*
X94086796Y-115330495D01*
X94088000Y-115354999D01*
X94088000Y-117055001D01*
X94086796Y-117079505D01*
X94083196Y-117103773D01*
X94077235Y-117127572D01*
X94068970Y-117150671D01*
X94058480Y-117172850D01*
X94045868Y-117193893D01*
X94031253Y-117213599D01*
X94014777Y-117231777D01*
X93996599Y-117248253D01*
X93976893Y-117262868D01*
X93955850Y-117275480D01*
X93933671Y-117285970D01*
X93910572Y-117294235D01*
X93886773Y-117300196D01*
X93862505Y-117303796D01*
X93838001Y-117305000D01*
X92597999Y-117305000D01*
X92573495Y-117303796D01*
X92549227Y-117300196D01*
X92525428Y-117294235D01*
X92502329Y-117285970D01*
X92480150Y-117275480D01*
X92459107Y-117262868D01*
X92439401Y-117248253D01*
X92421223Y-117231777D01*
X92404747Y-117213599D01*
X92390132Y-117193893D01*
X92377520Y-117172850D01*
X92367030Y-117150671D01*
X92358765Y-117127572D01*
X92352804Y-117103773D01*
X92349204Y-117079505D01*
X92348000Y-117055001D01*
X92348000Y-115354999D01*
X92349204Y-115330495D01*
X92352804Y-115306227D01*
X92358765Y-115282428D01*
X92367030Y-115259329D01*
X92377520Y-115237150D01*
X92390132Y-115216107D01*
X92404747Y-115196401D01*
X92421223Y-115178223D01*
X92439401Y-115161747D01*
X92459107Y-115147132D01*
X92480150Y-115134520D01*
X92502329Y-115124030D01*
X92525428Y-115115765D01*
X92549227Y-115109804D01*
X92573495Y-115106204D01*
X92597999Y-115105000D01*
X93838001Y-115105000D01*
X93862505Y-115106204D01*
X93862505Y-115106204D01*
G37*
D20*
X93218000Y-116205000D03*
D21*
X95758000Y-116205000D03*
X98298000Y-116205000D03*
D19*
G36*
X125930005Y-115106204D02*
G01*
X125954273Y-115109804D01*
X125978072Y-115115765D01*
X126001171Y-115124030D01*
X126023350Y-115134520D01*
X126044393Y-115147132D01*
X126064099Y-115161747D01*
X126082277Y-115178223D01*
X126098753Y-115196401D01*
X126113368Y-115216107D01*
X126125980Y-115237150D01*
X126136470Y-115259329D01*
X126144735Y-115282428D01*
X126150696Y-115306227D01*
X126154296Y-115330495D01*
X126155500Y-115354999D01*
X126155500Y-117055001D01*
X126154296Y-117079505D01*
X126150696Y-117103773D01*
X126144735Y-117127572D01*
X126136470Y-117150671D01*
X126125980Y-117172850D01*
X126113368Y-117193893D01*
X126098753Y-117213599D01*
X126082277Y-117231777D01*
X126064099Y-117248253D01*
X126044393Y-117262868D01*
X126023350Y-117275480D01*
X126001171Y-117285970D01*
X125978072Y-117294235D01*
X125954273Y-117300196D01*
X125930005Y-117303796D01*
X125905501Y-117305000D01*
X124665499Y-117305000D01*
X124640995Y-117303796D01*
X124616727Y-117300196D01*
X124592928Y-117294235D01*
X124569829Y-117285970D01*
X124547650Y-117275480D01*
X124526607Y-117262868D01*
X124506901Y-117248253D01*
X124488723Y-117231777D01*
X124472247Y-117213599D01*
X124457632Y-117193893D01*
X124445020Y-117172850D01*
X124434530Y-117150671D01*
X124426265Y-117127572D01*
X124420304Y-117103773D01*
X124416704Y-117079505D01*
X124415500Y-117055001D01*
X124415500Y-115354999D01*
X124416704Y-115330495D01*
X124420304Y-115306227D01*
X124426265Y-115282428D01*
X124434530Y-115259329D01*
X124445020Y-115237150D01*
X124457632Y-115216107D01*
X124472247Y-115196401D01*
X124488723Y-115178223D01*
X124506901Y-115161747D01*
X124526607Y-115147132D01*
X124547650Y-115134520D01*
X124569829Y-115124030D01*
X124592928Y-115115765D01*
X124616727Y-115109804D01*
X124640995Y-115106204D01*
X124665499Y-115105000D01*
X125905501Y-115105000D01*
X125930005Y-115106204D01*
X125930005Y-115106204D01*
G37*
D20*
X125285500Y-116205000D03*
D21*
X127825500Y-116205000D03*
X130365500Y-116205000D03*
X132905500Y-116205000D03*
D22*
X113300000Y-109286000D03*
X113300000Y-111186000D03*
X115300000Y-110236000D03*
D10*
X117856000Y-110528000D03*
X117856000Y-108928000D03*
D13*
X64351000Y-109347000D03*
X65951000Y-109347000D03*
X64224000Y-112268000D03*
X65824000Y-112268000D03*
D19*
G36*
X65922505Y-115487204D02*
G01*
X65946773Y-115490804D01*
X65970572Y-115496765D01*
X65993671Y-115505030D01*
X66015850Y-115515520D01*
X66036893Y-115528132D01*
X66056599Y-115542747D01*
X66074777Y-115559223D01*
X66091253Y-115577401D01*
X66105868Y-115597107D01*
X66118480Y-115618150D01*
X66128970Y-115640329D01*
X66137235Y-115663428D01*
X66143196Y-115687227D01*
X66146796Y-115711495D01*
X66148000Y-115735999D01*
X66148000Y-117436001D01*
X66146796Y-117460505D01*
X66143196Y-117484773D01*
X66137235Y-117508572D01*
X66128970Y-117531671D01*
X66118480Y-117553850D01*
X66105868Y-117574893D01*
X66091253Y-117594599D01*
X66074777Y-117612777D01*
X66056599Y-117629253D01*
X66036893Y-117643868D01*
X66015850Y-117656480D01*
X65993671Y-117666970D01*
X65970572Y-117675235D01*
X65946773Y-117681196D01*
X65922505Y-117684796D01*
X65898001Y-117686000D01*
X64657999Y-117686000D01*
X64633495Y-117684796D01*
X64609227Y-117681196D01*
X64585428Y-117675235D01*
X64562329Y-117666970D01*
X64540150Y-117656480D01*
X64519107Y-117643868D01*
X64499401Y-117629253D01*
X64481223Y-117612777D01*
X64464747Y-117594599D01*
X64450132Y-117574893D01*
X64437520Y-117553850D01*
X64427030Y-117531671D01*
X64418765Y-117508572D01*
X64412804Y-117484773D01*
X64409204Y-117460505D01*
X64408000Y-117436001D01*
X64408000Y-115735999D01*
X64409204Y-115711495D01*
X64412804Y-115687227D01*
X64418765Y-115663428D01*
X64427030Y-115640329D01*
X64437520Y-115618150D01*
X64450132Y-115597107D01*
X64464747Y-115577401D01*
X64481223Y-115559223D01*
X64499401Y-115542747D01*
X64519107Y-115528132D01*
X64540150Y-115515520D01*
X64562329Y-115505030D01*
X64585428Y-115496765D01*
X64609227Y-115490804D01*
X64633495Y-115487204D01*
X64657999Y-115486000D01*
X65898001Y-115486000D01*
X65922505Y-115487204D01*
X65922505Y-115487204D01*
G37*
D20*
X65278000Y-116586000D03*
D21*
X67818000Y-116586000D03*
D11*
X59182000Y-108088000D03*
X59182000Y-106288000D03*
X59182000Y-110352000D03*
X59182000Y-112152000D03*
X68072000Y-108215000D03*
X68072000Y-106415000D03*
X68072000Y-110479000D03*
X68072000Y-112279000D03*
D23*
X132905500Y-106695000D03*
X132905500Y-105395000D03*
X124460000Y-105395000D03*
X124460000Y-106695000D03*
D11*
X50053240Y-108548600D03*
X50053240Y-110348600D03*
D23*
X128651000Y-106695000D03*
X128651000Y-105395000D03*
D13*
X49695000Y-105918000D03*
X48095000Y-105918000D03*
X64345920Y-106319320D03*
X65945920Y-106319320D03*
X56974640Y-106197400D03*
X55374640Y-106197400D03*
D10*
X111061500Y-115405000D03*
X111061500Y-117005000D03*
X101155500Y-117005000D03*
X101155500Y-115405000D03*
D19*
G36*
X106245005Y-115106204D02*
G01*
X106269273Y-115109804D01*
X106293072Y-115115765D01*
X106316171Y-115124030D01*
X106338350Y-115134520D01*
X106359393Y-115147132D01*
X106379099Y-115161747D01*
X106397277Y-115178223D01*
X106413753Y-115196401D01*
X106428368Y-115216107D01*
X106440980Y-115237150D01*
X106451470Y-115259329D01*
X106459735Y-115282428D01*
X106465696Y-115306227D01*
X106469296Y-115330495D01*
X106470500Y-115354999D01*
X106470500Y-117055001D01*
X106469296Y-117079505D01*
X106465696Y-117103773D01*
X106459735Y-117127572D01*
X106451470Y-117150671D01*
X106440980Y-117172850D01*
X106428368Y-117193893D01*
X106413753Y-117213599D01*
X106397277Y-117231777D01*
X106379099Y-117248253D01*
X106359393Y-117262868D01*
X106338350Y-117275480D01*
X106316171Y-117285970D01*
X106293072Y-117294235D01*
X106269273Y-117300196D01*
X106245005Y-117303796D01*
X106220501Y-117305000D01*
X104980499Y-117305000D01*
X104955995Y-117303796D01*
X104931727Y-117300196D01*
X104907928Y-117294235D01*
X104884829Y-117285970D01*
X104862650Y-117275480D01*
X104841607Y-117262868D01*
X104821901Y-117248253D01*
X104803723Y-117231777D01*
X104787247Y-117213599D01*
X104772632Y-117193893D01*
X104760020Y-117172850D01*
X104749530Y-117150671D01*
X104741265Y-117127572D01*
X104735304Y-117103773D01*
X104731704Y-117079505D01*
X104730500Y-117055001D01*
X104730500Y-115354999D01*
X104731704Y-115330495D01*
X104735304Y-115306227D01*
X104741265Y-115282428D01*
X104749530Y-115259329D01*
X104760020Y-115237150D01*
X104772632Y-115216107D01*
X104787247Y-115196401D01*
X104803723Y-115178223D01*
X104821901Y-115161747D01*
X104841607Y-115147132D01*
X104862650Y-115134520D01*
X104884829Y-115124030D01*
X104907928Y-115115765D01*
X104931727Y-115109804D01*
X104955995Y-115106204D01*
X104980499Y-115105000D01*
X106220501Y-115105000D01*
X106245005Y-115106204D01*
X106245005Y-115106204D01*
G37*
D20*
X105600500Y-116205000D03*
D21*
X108140500Y-116205000D03*
D10*
X124460000Y-101828500D03*
X124460000Y-100228500D03*
X120840500Y-115405000D03*
X120840500Y-117005000D03*
D24*
X62992000Y-100225500D03*
X62992000Y-96075500D03*
D25*
X71374000Y-86582500D03*
X71374000Y-90582500D03*
X57912000Y-94805500D03*
X57912000Y-98805500D03*
D26*
X67976500Y-85471000D03*
X63976500Y-85471000D03*
D27*
X77089000Y-109220000D03*
X51688998Y-104521000D03*
X59055000Y-88773000D03*
X61087000Y-88773000D03*
X63119000Y-88773000D03*
X65151000Y-88773000D03*
X64135000Y-87884000D03*
X62103000Y-87884000D03*
X60071000Y-87884000D03*
X66294000Y-87884000D03*
X66548000Y-89027000D03*
D28*
X51054004Y-95948500D03*
X54927500Y-95948500D03*
X53022500Y-95948500D03*
D27*
X84836000Y-110490000D03*
X120650000Y-110490000D03*
X76831000Y-96905000D03*
X92007500Y-96905000D03*
X76831000Y-95635000D03*
X92011500Y-95631000D03*
X110807500Y-106807000D03*
X76831000Y-94365000D03*
X93916500Y-94361002D03*
X95757992Y-104394000D03*
X76835000Y-93091000D03*
X82232500Y-93091000D03*
X85090000Y-94361000D03*
X86677500Y-94361000D03*
X90487500Y-94361000D03*
X95821502Y-93091000D03*
D29*
X67300000Y-98239640D02*
X67592040Y-98531680D01*
X67300000Y-96905000D02*
X67300000Y-98239640D01*
X67395520Y-98728200D02*
X67592040Y-98531680D01*
X67395520Y-100319840D02*
X67395520Y-98728200D01*
X78074000Y-110610000D02*
X77216000Y-111468000D01*
X79314000Y-110610000D02*
X78074000Y-110610000D01*
X67395520Y-102422960D02*
X61655960Y-102422960D01*
X78074000Y-110610000D02*
X77971000Y-110610000D01*
X77971000Y-110610000D02*
X77216000Y-109855000D01*
X77158315Y-109855000D02*
X77216000Y-109855000D01*
X77089000Y-109785685D02*
X77158315Y-109855000D01*
X77089000Y-109220000D02*
X77089000Y-109785685D01*
X61655960Y-102422960D02*
X57216040Y-102422960D01*
D30*
X63086340Y-100319840D02*
X62992000Y-100225500D01*
X66410840Y-100319840D02*
X63086340Y-100319840D01*
D29*
X66410840Y-100319840D02*
X67395520Y-100319840D01*
X66410840Y-99712880D02*
X67395520Y-98728200D01*
X66410840Y-100319840D02*
X66410840Y-99712880D01*
X66410840Y-101081840D02*
X67395520Y-102066520D01*
X66410840Y-100319840D02*
X66410840Y-101081840D01*
X67395520Y-102422960D02*
X67395520Y-102066520D01*
X67395520Y-102066520D02*
X67395520Y-100319840D01*
X50038000Y-106958360D02*
X50053240Y-106973600D01*
X50053240Y-106973600D02*
X50053240Y-108548600D01*
X57216040Y-102422960D02*
X51120040Y-102422960D01*
X51120040Y-102422960D02*
X50038000Y-103505000D01*
X50038000Y-104457500D02*
X50101500Y-104521000D01*
X50101500Y-104521000D02*
X51688998Y-104521000D01*
X50038000Y-104457500D02*
X50038000Y-106958360D01*
X50038000Y-103505000D02*
X50038000Y-104457500D01*
D30*
X47498000Y-116586000D02*
X47498000Y-118237000D01*
X47498000Y-118618000D02*
X48768000Y-119888000D01*
X47498000Y-118237000D02*
X47498000Y-118618000D01*
X60706000Y-119888000D02*
X61976000Y-119888000D01*
X56388000Y-116586000D02*
X56388000Y-119888000D01*
X48768000Y-119888000D02*
X56388000Y-119888000D01*
X56388000Y-119888000D02*
X60706000Y-119888000D01*
X65278000Y-119507000D02*
X64897000Y-119888000D01*
X65278000Y-116586000D02*
X65278000Y-119507000D01*
X61976000Y-119888000D02*
X64897000Y-119888000D01*
D29*
X64351000Y-115659000D02*
X64351000Y-112395000D01*
X65278000Y-116586000D02*
X64351000Y-115659000D01*
X64351000Y-112395000D02*
X64351000Y-109347000D01*
X80106000Y-113068000D02*
X80264000Y-112910000D01*
X77216000Y-113068000D02*
X80106000Y-113068000D01*
X80422000Y-113068000D02*
X80264000Y-112910000D01*
X83312000Y-113068000D02*
X80422000Y-113068000D01*
X55372000Y-115570000D02*
X55372000Y-112268000D01*
X56388000Y-116586000D02*
X55372000Y-115570000D01*
X55372000Y-109220000D02*
X55372000Y-112268000D01*
X106934000Y-119634000D02*
X107061000Y-119761000D01*
X80264000Y-112910000D02*
X80264000Y-113893600D01*
X80264000Y-113893600D02*
X77815440Y-116342160D01*
X80264000Y-113893600D02*
X82697320Y-116326920D01*
D30*
X77805280Y-116332000D02*
X77815440Y-116342160D01*
X72136000Y-116332000D02*
X77805280Y-116332000D01*
X64897000Y-119888000D02*
X68580000Y-119888000D01*
X68580000Y-119888000D02*
X72136000Y-116332000D01*
D29*
X64351000Y-106324400D02*
X64345920Y-106319320D01*
X64351000Y-109347000D02*
X64351000Y-106324400D01*
X55372000Y-106200040D02*
X55374640Y-106197400D01*
X55372000Y-109220000D02*
X55372000Y-106200040D01*
X69195520Y-98535160D02*
X69192040Y-98531680D01*
D30*
X82697320Y-116326920D02*
X87878920Y-116326920D01*
X87878920Y-116326920D02*
X91313000Y-119761000D01*
D29*
X93218000Y-119316500D02*
X92773500Y-119761000D01*
X93218000Y-116205000D02*
X93218000Y-119316500D01*
D30*
X91313000Y-119761000D02*
X92773500Y-119761000D01*
D29*
X101155500Y-117005000D02*
X101155500Y-119189500D01*
X101155500Y-119189500D02*
X100584000Y-119761000D01*
D30*
X92773500Y-119761000D02*
X100584000Y-119761000D01*
X100584000Y-119761000D02*
X107061000Y-119761000D01*
D29*
X111061500Y-119697500D02*
X110998000Y-119761000D01*
X111061500Y-117005000D02*
X111061500Y-119697500D01*
D30*
X107061000Y-119761000D02*
X110998000Y-119761000D01*
D29*
X113284000Y-119062500D02*
X112585500Y-119761000D01*
X113284000Y-112602000D02*
X113284000Y-119062500D01*
X113300000Y-112586000D02*
X113284000Y-112602000D01*
X113300000Y-111186000D02*
X113300000Y-112586000D01*
D30*
X110998000Y-119761000D02*
X112585500Y-119761000D01*
X121729500Y-119761000D02*
X125285500Y-116205000D01*
D29*
X120840500Y-117005000D02*
X120840500Y-119570500D01*
X120840500Y-119570500D02*
X120650000Y-119761000D01*
D30*
X112585500Y-119761000D02*
X120650000Y-119761000D01*
X120650000Y-119761000D02*
X121729500Y-119761000D01*
D29*
X87878920Y-116326920D02*
X87878920Y-108198920D01*
X92011500Y-104066340D02*
X92011500Y-100050500D01*
X87878920Y-108198920D02*
X92011500Y-104066340D01*
D30*
X47498000Y-116586000D02*
X47498000Y-99504504D01*
X47498000Y-99504504D02*
X51054004Y-95948500D01*
D29*
X70000000Y-95000000D02*
X70000000Y-92582000D01*
X70000000Y-92644000D02*
X68834000Y-91478000D01*
X70000000Y-95000000D02*
X70000000Y-92644000D01*
X70485000Y-95485000D02*
X70000000Y-95000000D01*
X70485000Y-98806000D02*
X70485000Y-95485000D01*
X70000000Y-91956500D02*
X71374000Y-90582500D01*
X70000000Y-92644000D02*
X70000000Y-91956500D01*
X70478500Y-91478000D02*
X71374000Y-90582500D01*
X68834000Y-91478000D02*
X70478500Y-91478000D01*
X76634000Y-90582500D02*
X76644500Y-90572000D01*
X71374000Y-90582500D02*
X76634000Y-90582500D01*
D30*
X51054004Y-95948500D02*
X54927500Y-95948500D01*
D29*
X65151000Y-92340000D02*
X63119000Y-92340000D01*
X63119000Y-92340000D02*
X61087000Y-92340000D01*
X61087000Y-92340000D02*
X59055000Y-92340000D01*
X56896000Y-91906000D02*
X57330000Y-92340000D01*
X56896000Y-86995000D02*
X56896000Y-91906000D01*
D31*
X66488500Y-94365000D02*
X67300000Y-94365000D01*
X66361500Y-94365000D02*
X66488500Y-94365000D01*
X65151000Y-92340000D02*
X65151000Y-93154500D01*
X65151000Y-93154500D02*
X66361500Y-94365000D01*
D29*
X58420000Y-85471000D02*
X56896000Y-86995000D01*
X63976500Y-85471000D02*
X58420000Y-85471000D01*
X57923000Y-92544500D02*
X57923000Y-92340000D01*
X57912000Y-92555500D02*
X57923000Y-92544500D01*
X57912000Y-94805500D02*
X57912000Y-92555500D01*
X57330000Y-92340000D02*
X57923000Y-92340000D01*
X57923000Y-92340000D02*
X59055000Y-92340000D01*
X58928000Y-109220000D02*
X59182000Y-109474000D01*
X56972000Y-109220000D02*
X58928000Y-109220000D01*
X59182000Y-110352000D02*
X59182000Y-109474000D01*
X59182000Y-109474000D02*
X59182000Y-108088000D01*
X82454000Y-110610000D02*
X83312000Y-111468000D01*
X81214000Y-110610000D02*
X82454000Y-110610000D01*
X99098000Y-115405000D02*
X98298000Y-116205000D01*
X101155500Y-115405000D02*
X99098000Y-115405000D01*
X108940500Y-115405000D02*
X108140500Y-116205000D01*
X111061500Y-115405000D02*
X108940500Y-115405000D01*
X83312000Y-111468000D02*
X84290000Y-110490000D01*
X84290000Y-110490000D02*
X84836000Y-110490000D01*
X119088000Y-108928000D02*
X118364000Y-108928000D01*
X120650000Y-110490000D02*
X119088000Y-108928000D01*
X120840500Y-110680500D02*
X120650000Y-110490000D01*
X120840500Y-115405000D02*
X120840500Y-110680500D01*
X93891000Y-90005000D02*
X93916500Y-89979500D01*
X92011500Y-90005000D02*
X93891000Y-90005000D01*
X95796000Y-89979500D02*
X95821500Y-90005000D01*
X93916500Y-89979500D02*
X95796000Y-89979500D01*
X118364000Y-108928000D02*
X117856000Y-108928000D01*
X84836000Y-108394500D02*
X84836000Y-110490000D01*
X80899000Y-91059000D02*
X80899000Y-104457500D01*
X80899000Y-104457500D02*
X84836000Y-108394500D01*
X92011500Y-90005000D02*
X81953000Y-90005000D01*
X81953000Y-90005000D02*
X80899000Y-91059000D01*
X59066000Y-112268000D02*
X59182000Y-112152000D01*
X56972000Y-112268000D02*
X59066000Y-112268000D01*
X58928000Y-112406000D02*
X59182000Y-112152000D01*
X58928000Y-116586000D02*
X58928000Y-112406000D01*
X63432500Y-95635000D02*
X62992000Y-96075500D01*
X67300000Y-95635000D02*
X63432500Y-95635000D01*
X60642000Y-96075500D02*
X57912000Y-98805500D01*
X62992000Y-96075500D02*
X60642000Y-96075500D01*
D31*
X72700000Y-96905000D02*
X76831000Y-96905000D01*
D29*
X92011500Y-96909000D02*
X92007500Y-96905000D01*
X92011500Y-98450500D02*
X92011500Y-96909000D01*
X105600500Y-116205000D02*
X105600500Y-97028000D01*
X105477500Y-96905000D02*
X123194000Y-96905000D01*
X124460000Y-98171000D02*
X124460000Y-100228500D01*
X123194000Y-96905000D02*
X124460000Y-98171000D01*
D31*
X72700000Y-95635000D02*
X76831000Y-95635000D01*
D29*
X92011500Y-91605000D02*
X92011500Y-95631000D01*
X113300000Y-109286000D02*
X113286500Y-109286000D01*
X113286500Y-109286000D02*
X110807500Y-106807000D01*
X110807500Y-106807000D02*
X110807500Y-106807000D01*
D31*
X72700000Y-94365000D02*
X76831000Y-94365000D01*
D29*
X93916500Y-91579500D02*
X93916500Y-94361002D01*
X95758000Y-116205000D02*
X95758000Y-104394008D01*
X95758000Y-104394008D02*
X95757992Y-104394000D01*
X128651000Y-98552000D02*
X128651000Y-100228500D01*
X124460002Y-94361002D02*
X128651000Y-98552000D01*
D31*
X74225000Y-93095000D02*
X74229000Y-93091000D01*
X72700000Y-93095000D02*
X74225000Y-93095000D01*
X74229000Y-93091000D02*
X76835000Y-93091000D01*
X92007500Y-96905000D02*
X87877983Y-96905000D01*
X87873983Y-96901000D02*
X87877983Y-96905000D01*
X82232500Y-93091000D02*
X82232500Y-93091000D01*
X86042500Y-96901000D02*
X82232500Y-93091000D01*
X87312500Y-96901000D02*
X86042500Y-96901000D01*
X87877983Y-96905000D02*
X87316500Y-96905000D01*
X87316500Y-96905000D02*
X87312500Y-96901000D01*
D29*
X105477500Y-96905000D02*
X92007500Y-96905000D01*
D31*
X86360000Y-95631000D02*
X85090000Y-94361000D01*
X92011500Y-95631000D02*
X86360000Y-95631000D01*
X85090000Y-94361000D02*
X85090000Y-94361000D01*
X86677500Y-94361000D02*
X90487500Y-94361000D01*
X90487500Y-94361000D02*
X90487500Y-94361000D01*
D29*
X93916500Y-94361002D02*
X124460002Y-94361002D01*
X95821500Y-93090998D02*
X95821502Y-93091000D01*
X95821500Y-91605000D02*
X95821500Y-93090998D01*
X132905500Y-99377500D02*
X132905500Y-105395000D01*
X126619000Y-93091000D02*
X132905500Y-99377500D01*
X126619000Y-93091000D02*
X95821502Y-93091000D01*
X132905500Y-106695000D02*
X132905500Y-116205000D01*
X127825500Y-114105000D02*
X124460000Y-110739500D01*
X127825500Y-116205000D02*
X127825500Y-114105000D01*
X124460000Y-110739500D02*
X124460000Y-107823000D01*
X124460000Y-107823000D02*
X124460000Y-106695000D01*
X130365500Y-110744000D02*
X130365500Y-116205000D01*
X128651000Y-106695000D02*
X128651000Y-109029500D01*
X128651000Y-109029500D02*
X130365500Y-110744000D01*
X115316000Y-110252000D02*
X115300000Y-110236000D01*
X115316000Y-116205000D02*
X115316000Y-110252000D01*
X117856000Y-116205000D02*
X117856000Y-111036000D01*
X117856000Y-111036000D02*
X117856000Y-110528000D01*
X67426000Y-109347000D02*
X68072000Y-109347000D01*
X65951000Y-109347000D02*
X67426000Y-109347000D01*
X68072000Y-110479000D02*
X68072000Y-109347000D01*
X68072000Y-109347000D02*
X68072000Y-108215000D01*
X67818000Y-112533000D02*
X68072000Y-112279000D01*
X67818000Y-116586000D02*
X67818000Y-112533000D01*
X65835000Y-112279000D02*
X65824000Y-112268000D01*
X68072000Y-112279000D02*
X65835000Y-112279000D01*
X50038000Y-110363840D02*
X50053240Y-110348600D01*
X50038000Y-116586000D02*
X50038000Y-110363840D01*
X128651000Y-101828500D02*
X128651000Y-104648000D01*
X128651000Y-104648000D02*
X128651000Y-105395000D01*
X59091400Y-106197400D02*
X59182000Y-106288000D01*
X56974640Y-106197400D02*
X59091400Y-106197400D01*
X67976320Y-106319320D02*
X68072000Y-106415000D01*
X65945920Y-106319320D02*
X67976320Y-106319320D01*
X59182000Y-106288000D02*
X59182000Y-105537000D01*
X59182000Y-105537000D02*
X59182000Y-105410000D01*
X59182000Y-105410000D02*
X60071000Y-104521000D01*
X68072000Y-104840000D02*
X68199000Y-104713000D01*
X68072000Y-106415000D02*
X68072000Y-104840000D01*
X60071000Y-104521000D02*
X68199000Y-104521000D01*
X68199000Y-104713000D02*
X68199000Y-104521000D01*
X67300000Y-90688000D02*
X67300000Y-93095000D01*
X68834000Y-89878000D02*
X68110000Y-89878000D01*
X68110000Y-89878000D02*
X67300000Y-90688000D01*
X75946000Y-83672000D02*
X76346000Y-83672000D01*
X68834000Y-89122500D02*
X71374000Y-86582500D01*
X68834000Y-89878000D02*
X68834000Y-89122500D01*
X77044500Y-83672000D02*
X76644500Y-83672000D01*
X79375000Y-97917000D02*
X79375000Y-86002500D01*
X72771000Y-104521000D02*
X79375000Y-97917000D01*
X79375000Y-86002500D02*
X77044500Y-83672000D01*
X68199000Y-104521000D02*
X72771000Y-104521000D01*
X74284500Y-83672000D02*
X71374000Y-86582500D01*
X76644500Y-83672000D02*
X74284500Y-83672000D01*
X70262500Y-85471000D02*
X71374000Y-86582500D01*
X67976500Y-85471000D02*
X70262500Y-85471000D01*
X124460000Y-101828500D02*
X124460000Y-105395000D01*
D32*
G36*
X66652257Y-87516769D02*
G01*
X66741955Y-87553923D01*
X66818976Y-87613024D01*
X66878077Y-87690045D01*
X66915231Y-87779743D01*
X66929000Y-87884328D01*
X66929000Y-89453868D01*
X66536864Y-89846005D01*
X66504933Y-89872210D01*
X66501812Y-89840518D01*
X66465502Y-89720820D01*
X66406537Y-89610506D01*
X66327185Y-89513815D01*
X66230494Y-89434463D01*
X66120180Y-89375498D01*
X66000482Y-89339188D01*
X65876000Y-89326928D01*
X65436750Y-89330000D01*
X65278000Y-89488750D01*
X65278000Y-90413000D01*
X65298000Y-90413000D01*
X65298000Y-90667000D01*
X65278000Y-90667000D01*
X65278000Y-90687000D01*
X65024000Y-90687000D01*
X65024000Y-90667000D01*
X63246000Y-90667000D01*
X63246000Y-90687000D01*
X62992000Y-90687000D01*
X62992000Y-90667000D01*
X61214000Y-90667000D01*
X61214000Y-90687000D01*
X60960000Y-90687000D01*
X60960000Y-90667000D01*
X59182000Y-90667000D01*
X59182000Y-90687000D01*
X58928000Y-90687000D01*
X58928000Y-90667000D01*
X58908000Y-90667000D01*
X58908000Y-90413000D01*
X58928000Y-90413000D01*
X58928000Y-89488750D01*
X59182000Y-89488750D01*
X59182000Y-90413000D01*
X60960000Y-90413000D01*
X60960000Y-89488750D01*
X61214000Y-89488750D01*
X61214000Y-90413000D01*
X62992000Y-90413000D01*
X62992000Y-89488750D01*
X63246000Y-89488750D01*
X63246000Y-90413000D01*
X65024000Y-90413000D01*
X65024000Y-89488750D01*
X64865250Y-89330000D01*
X64426000Y-89326928D01*
X64301518Y-89339188D01*
X64181820Y-89375498D01*
X64135000Y-89400524D01*
X64088180Y-89375498D01*
X63968482Y-89339188D01*
X63844000Y-89326928D01*
X63404750Y-89330000D01*
X63246000Y-89488750D01*
X62992000Y-89488750D01*
X62833250Y-89330000D01*
X62394000Y-89326928D01*
X62269518Y-89339188D01*
X62149820Y-89375498D01*
X62103000Y-89400524D01*
X62056180Y-89375498D01*
X61936482Y-89339188D01*
X61812000Y-89326928D01*
X61372750Y-89330000D01*
X61214000Y-89488750D01*
X60960000Y-89488750D01*
X60801250Y-89330000D01*
X60362000Y-89326928D01*
X60237518Y-89339188D01*
X60117820Y-89375498D01*
X60071000Y-89400524D01*
X60024180Y-89375498D01*
X59904482Y-89339188D01*
X59780000Y-89326928D01*
X59340750Y-89330000D01*
X59182000Y-89488750D01*
X58928000Y-89488750D01*
X58769250Y-89330000D01*
X58330000Y-89326928D01*
X58205518Y-89339188D01*
X58166000Y-89351176D01*
X58166000Y-87884328D01*
X58179769Y-87779743D01*
X58216923Y-87690045D01*
X58276024Y-87613024D01*
X58353045Y-87553923D01*
X58442743Y-87516769D01*
X58547328Y-87503000D01*
X66547672Y-87503000D01*
X66652257Y-87516769D01*
X66652257Y-87516769D01*
G37*
X66652257Y-87516769D02*
X66741955Y-87553923D01*
X66818976Y-87613024D01*
X66878077Y-87690045D01*
X66915231Y-87779743D01*
X66929000Y-87884328D01*
X66929000Y-89453868D01*
X66536864Y-89846005D01*
X66504933Y-89872210D01*
X66501812Y-89840518D01*
X66465502Y-89720820D01*
X66406537Y-89610506D01*
X66327185Y-89513815D01*
X66230494Y-89434463D01*
X66120180Y-89375498D01*
X66000482Y-89339188D01*
X65876000Y-89326928D01*
X65436750Y-89330000D01*
X65278000Y-89488750D01*
X65278000Y-90413000D01*
X65298000Y-90413000D01*
X65298000Y-90667000D01*
X65278000Y-90667000D01*
X65278000Y-90687000D01*
X65024000Y-90687000D01*
X65024000Y-90667000D01*
X63246000Y-90667000D01*
X63246000Y-90687000D01*
X62992000Y-90687000D01*
X62992000Y-90667000D01*
X61214000Y-90667000D01*
X61214000Y-90687000D01*
X60960000Y-90687000D01*
X60960000Y-90667000D01*
X59182000Y-90667000D01*
X59182000Y-90687000D01*
X58928000Y-90687000D01*
X58928000Y-90667000D01*
X58908000Y-90667000D01*
X58908000Y-90413000D01*
X58928000Y-90413000D01*
X58928000Y-89488750D01*
X59182000Y-89488750D01*
X59182000Y-90413000D01*
X60960000Y-90413000D01*
X60960000Y-89488750D01*
X61214000Y-89488750D01*
X61214000Y-90413000D01*
X62992000Y-90413000D01*
X62992000Y-89488750D01*
X63246000Y-89488750D01*
X63246000Y-90413000D01*
X65024000Y-90413000D01*
X65024000Y-89488750D01*
X64865250Y-89330000D01*
X64426000Y-89326928D01*
X64301518Y-89339188D01*
X64181820Y-89375498D01*
X64135000Y-89400524D01*
X64088180Y-89375498D01*
X63968482Y-89339188D01*
X63844000Y-89326928D01*
X63404750Y-89330000D01*
X63246000Y-89488750D01*
X62992000Y-89488750D01*
X62833250Y-89330000D01*
X62394000Y-89326928D01*
X62269518Y-89339188D01*
X62149820Y-89375498D01*
X62103000Y-89400524D01*
X62056180Y-89375498D01*
X61936482Y-89339188D01*
X61812000Y-89326928D01*
X61372750Y-89330000D01*
X61214000Y-89488750D01*
X60960000Y-89488750D01*
X60801250Y-89330000D01*
X60362000Y-89326928D01*
X60237518Y-89339188D01*
X60117820Y-89375498D01*
X60071000Y-89400524D01*
X60024180Y-89375498D01*
X59904482Y-89339188D01*
X59780000Y-89326928D01*
X59340750Y-89330000D01*
X59182000Y-89488750D01*
X58928000Y-89488750D01*
X58769250Y-89330000D01*
X58330000Y-89326928D01*
X58205518Y-89339188D01*
X58166000Y-89351176D01*
X58166000Y-87884328D01*
X58179769Y-87779743D01*
X58216923Y-87690045D01*
X58276024Y-87613024D01*
X58353045Y-87553923D01*
X58442743Y-87516769D01*
X58547328Y-87503000D01*
X66547672Y-87503000D01*
X66652257Y-87516769D01*
G36*
X71306189Y-97934376D02*
G01*
X71469850Y-97984022D01*
X71620672Y-98064638D01*
X71752870Y-98173130D01*
X71861362Y-98305328D01*
X71941978Y-98456150D01*
X71991624Y-98619811D01*
X72009000Y-98796234D01*
X72009000Y-101814552D01*
X71991624Y-101990976D01*
X71941978Y-102154637D01*
X71861363Y-102305458D01*
X71748898Y-102442496D01*
X71200496Y-102990898D01*
X71063458Y-103103363D01*
X70912637Y-103183978D01*
X70748976Y-103233624D01*
X70572552Y-103251000D01*
X70398444Y-103251000D01*
X70408592Y-103147960D01*
X70405520Y-102708710D01*
X70246770Y-102549960D01*
X69322520Y-102549960D01*
X69322520Y-102569960D01*
X69068520Y-102569960D01*
X69068520Y-102549960D01*
X69048520Y-102549960D01*
X69048520Y-102295960D01*
X69068520Y-102295960D01*
X69068520Y-100446840D01*
X69322520Y-100446840D01*
X69322520Y-102295960D01*
X70246770Y-102295960D01*
X70405520Y-102137210D01*
X70408592Y-101697960D01*
X70396332Y-101573478D01*
X70360022Y-101453780D01*
X70315988Y-101371400D01*
X70360022Y-101289020D01*
X70396332Y-101169322D01*
X70408592Y-101044840D01*
X70405520Y-100605590D01*
X70246770Y-100446840D01*
X69322520Y-100446840D01*
X69068520Y-100446840D01*
X69048520Y-100446840D01*
X69048520Y-100192840D01*
X69068520Y-100192840D01*
X69068520Y-99118590D01*
X69065040Y-99115110D01*
X69065040Y-98658680D01*
X69319040Y-98658680D01*
X69319040Y-99507930D01*
X69322520Y-99511410D01*
X69322520Y-100192840D01*
X70246770Y-100192840D01*
X70405520Y-100034090D01*
X70408592Y-99594840D01*
X70396332Y-99470358D01*
X70360022Y-99350660D01*
X70301057Y-99240346D01*
X70276421Y-99210327D01*
X70292852Y-99156162D01*
X70305112Y-99031680D01*
X70302040Y-98817430D01*
X70143290Y-98658680D01*
X69319040Y-98658680D01*
X69065040Y-98658680D01*
X69045040Y-98658680D01*
X69045040Y-98404680D01*
X69065040Y-98404680D01*
X69065040Y-98384680D01*
X69319040Y-98384680D01*
X69319040Y-98404680D01*
X70143290Y-98404680D01*
X70302040Y-98245930D01*
X70305112Y-98031680D01*
X70293817Y-97917000D01*
X71129766Y-97917000D01*
X71306189Y-97934376D01*
X71306189Y-97934376D01*
G37*
X71306189Y-97934376D02*
X71469850Y-97984022D01*
X71620672Y-98064638D01*
X71752870Y-98173130D01*
X71861362Y-98305328D01*
X71941978Y-98456150D01*
X71991624Y-98619811D01*
X72009000Y-98796234D01*
X72009000Y-101814552D01*
X71991624Y-101990976D01*
X71941978Y-102154637D01*
X71861363Y-102305458D01*
X71748898Y-102442496D01*
X71200496Y-102990898D01*
X71063458Y-103103363D01*
X70912637Y-103183978D01*
X70748976Y-103233624D01*
X70572552Y-103251000D01*
X70398444Y-103251000D01*
X70408592Y-103147960D01*
X70405520Y-102708710D01*
X70246770Y-102549960D01*
X69322520Y-102549960D01*
X69322520Y-102569960D01*
X69068520Y-102569960D01*
X69068520Y-102549960D01*
X69048520Y-102549960D01*
X69048520Y-102295960D01*
X69068520Y-102295960D01*
X69068520Y-100446840D01*
X69322520Y-100446840D01*
X69322520Y-102295960D01*
X70246770Y-102295960D01*
X70405520Y-102137210D01*
X70408592Y-101697960D01*
X70396332Y-101573478D01*
X70360022Y-101453780D01*
X70315988Y-101371400D01*
X70360022Y-101289020D01*
X70396332Y-101169322D01*
X70408592Y-101044840D01*
X70405520Y-100605590D01*
X70246770Y-100446840D01*
X69322520Y-100446840D01*
X69068520Y-100446840D01*
X69048520Y-100446840D01*
X69048520Y-100192840D01*
X69068520Y-100192840D01*
X69068520Y-99118590D01*
X69065040Y-99115110D01*
X69065040Y-98658680D01*
X69319040Y-98658680D01*
X69319040Y-99507930D01*
X69322520Y-99511410D01*
X69322520Y-100192840D01*
X70246770Y-100192840D01*
X70405520Y-100034090D01*
X70408592Y-99594840D01*
X70396332Y-99470358D01*
X70360022Y-99350660D01*
X70301057Y-99240346D01*
X70276421Y-99210327D01*
X70292852Y-99156162D01*
X70305112Y-99031680D01*
X70302040Y-98817430D01*
X70143290Y-98658680D01*
X69319040Y-98658680D01*
X69065040Y-98658680D01*
X69045040Y-98658680D01*
X69045040Y-98404680D01*
X69065040Y-98404680D01*
X69065040Y-98384680D01*
X69319040Y-98384680D01*
X69319040Y-98404680D01*
X70143290Y-98404680D01*
X70302040Y-98245930D01*
X70305112Y-98031680D01*
X70293817Y-97917000D01*
X71129766Y-97917000D01*
X71306189Y-97934376D01*
M02*
